<?xml version="1.0" encoding="UTF-8" standalone="no"?>
<!DOCTYPE svg PUBLIC "-//W3C//DTD SVG 1.1//EN"
 "http://www.w3.org/Graphics/SVG/1.1/DTD/svg11.dtd">
<!-- Generated by graphviz version 2.43.0 (0)
 -->
<!-- Title: G Pages: 1 -->
<svg width="2183pt" height="153pt"
 viewBox="0.00 0.00 1572.00 110.00" xmlns="http://www.w3.org/2000/svg" xmlns:xlink="http://www.w3.org/1999/xlink">
<g id="graph0" class="graph" transform="scale(0.72 0.72) rotate(0) translate(4 106)">
<title>G</title>
<polygon fill="white" stroke="transparent" points="-4,4 -4,-106 1568,-106 1568,4 -4,4"/>
<!-- node0 -->
<g id="node1" class="node">
<title>node0</title>
<path fill="#9d4cef" stroke="black" d="M12,-0.5C12,-0.5 112,-0.5 112,-0.5 118,-0.5 124,-6.5 124,-12.5 124,-12.5 124,-57.5 124,-57.5 124,-63.5 118,-69.5 112,-69.5 112,-69.5 12,-69.5 12,-69.5 6,-69.5 0,-63.5 0,-57.5 0,-57.5 0,-12.5 0,-12.5 0,-6.5 6,-0.5 12,-0.5"/>
<text text-anchor="middle" x="62" y="-54.3" font-family="Times,serif" font-size="14.00">index 0</text>
<polyline fill="none" stroke="black" points="0,-46.5 124,-46.5 "/>
<text text-anchor="middle" x="62" y="-31.3" font-family="Times,serif" font-size="14.00">value &#45;66</text>
<polyline fill="none" stroke="black" points="0,-23.5 124,-23.5 "/>
<text text-anchor="middle" x="31" y="-8.3" font-family="Times,serif" font-size="14.00">prev 9</text>
<polyline fill="none" stroke="black" points="62,-0.5 62,-23.5 "/>
<text text-anchor="middle" x="93" y="-8.3" font-family="Times,serif" font-size="14.00">next 1</text>
</g>
<!-- node1 -->
<g id="node2" class="node">
<title>node1</title>
<path fill="#9d4cef" stroke="black" d="M172,-32.5C172,-32.5 272,-32.5 272,-32.5 278,-32.5 284,-38.5 284,-44.5 284,-44.5 284,-89.5 284,-89.5 284,-95.5 278,-101.5 272,-101.5 272,-101.5 172,-101.5 172,-101.5 166,-101.5 160,-95.5 160,-89.5 160,-89.5 160,-44.5 160,-44.5 160,-38.5 166,-32.5 172,-32.5"/>
<text text-anchor="middle" x="222" y="-86.3" font-family="Times,serif" font-size="14.00">index 1</text>
<polyline fill="none" stroke="black" points="160,-78.5 284,-78.5 "/>
<text text-anchor="middle" x="222" y="-63.3" font-family="Times,serif" font-size="14.00">value 49</text>
<polyline fill="none" stroke="black" points="160,-55.5 284,-55.5 "/>
<text text-anchor="middle" x="191" y="-40.3" font-family="Times,serif" font-size="14.00">prev 0</text>
<polyline fill="none" stroke="black" points="222,-32.5 222,-55.5 "/>
<text text-anchor="middle" x="253" y="-40.3" font-family="Times,serif" font-size="14.00">next 2</text>
</g>
<!-- node0&#45;&gt;node1 -->
<g id="edge1" class="edge">
<title>node0&#45;&gt;node1</title>
<path fill="none" stroke="blue" d="M124.09,-47.37C132.51,-49.08 141.23,-50.84 149.81,-52.58"/>
<polygon fill="blue" stroke="blue" points="149.32,-56.05 159.82,-54.61 150.71,-49.19 149.32,-56.05"/>
</g>
<!-- node2 -->
<g id="node3" class="node">
<title>node2</title>
<path fill="#9d4cef" stroke="black" d="M332,-32.5C332,-32.5 432,-32.5 432,-32.5 438,-32.5 444,-38.5 444,-44.5 444,-44.5 444,-89.5 444,-89.5 444,-95.5 438,-101.5 432,-101.5 432,-101.5 332,-101.5 332,-101.5 326,-101.5 320,-95.5 320,-89.5 320,-89.5 320,-44.5 320,-44.5 320,-38.5 326,-32.5 332,-32.5"/>
<text text-anchor="middle" x="382" y="-86.3" font-family="Times,serif" font-size="14.00">index 2</text>
<polyline fill="none" stroke="black" points="320,-78.5 444,-78.5 "/>
<text text-anchor="middle" x="382" y="-63.3" font-family="Times,serif" font-size="14.00">value 50</text>
<polyline fill="none" stroke="black" points="320,-55.5 444,-55.5 "/>
<text text-anchor="middle" x="351" y="-40.3" font-family="Times,serif" font-size="14.00">prev 1</text>
<polyline fill="none" stroke="black" points="382,-32.5 382,-55.5 "/>
<text text-anchor="middle" x="413" y="-40.3" font-family="Times,serif" font-size="14.00">next 3</text>
</g>
<!-- node1&#45;&gt;node2 -->
<g id="edge2" class="edge">
<title>node1&#45;&gt;node2</title>
<path fill="none" stroke="blue" d="M284.09,-67C292.51,-67 301.23,-67 309.81,-67"/>
<polygon fill="blue" stroke="blue" points="309.82,-70.5 319.82,-67 309.82,-63.5 309.82,-70.5"/>
</g>
<!-- node3 -->
<g id="node4" class="node">
<title>node3</title>
<path fill="#9d4cef" stroke="black" d="M492,-32.5C492,-32.5 592,-32.5 592,-32.5 598,-32.5 604,-38.5 604,-44.5 604,-44.5 604,-89.5 604,-89.5 604,-95.5 598,-101.5 592,-101.5 592,-101.5 492,-101.5 492,-101.5 486,-101.5 480,-95.5 480,-89.5 480,-89.5 480,-44.5 480,-44.5 480,-38.5 486,-32.5 492,-32.5"/>
<text text-anchor="middle" x="542" y="-86.3" font-family="Times,serif" font-size="14.00">index 3</text>
<polyline fill="none" stroke="black" points="480,-78.5 604,-78.5 "/>
<text text-anchor="middle" x="542" y="-63.3" font-family="Times,serif" font-size="14.00">value 51</text>
<polyline fill="none" stroke="black" points="480,-55.5 604,-55.5 "/>
<text text-anchor="middle" x="511" y="-40.3" font-family="Times,serif" font-size="14.00">prev 2</text>
<polyline fill="none" stroke="black" points="542,-32.5 542,-55.5 "/>
<text text-anchor="middle" x="573" y="-40.3" font-family="Times,serif" font-size="14.00">next 4</text>
</g>
<!-- node2&#45;&gt;node3 -->
<g id="edge3" class="edge">
<title>node2&#45;&gt;node3</title>
<path fill="none" stroke="blue" d="M444.09,-67C452.51,-67 461.23,-67 469.81,-67"/>
<polygon fill="blue" stroke="blue" points="469.82,-70.5 479.82,-67 469.82,-63.5 469.82,-70.5"/>
</g>
<!-- node4 -->
<g id="node5" class="node">
<title>node4</title>
<path fill="#9d4cef" stroke="black" d="M652,-32.5C652,-32.5 752,-32.5 752,-32.5 758,-32.5 764,-38.5 764,-44.5 764,-44.5 764,-89.5 764,-89.5 764,-95.5 758,-101.5 752,-101.5 752,-101.5 652,-101.5 652,-101.5 646,-101.5 640,-95.5 640,-89.5 640,-89.5 640,-44.5 640,-44.5 640,-38.5 646,-32.5 652,-32.5"/>
<text text-anchor="middle" x="702" y="-86.3" font-family="Times,serif" font-size="14.00">index 4</text>
<polyline fill="none" stroke="black" points="640,-78.5 764,-78.5 "/>
<text text-anchor="middle" x="702" y="-63.3" font-family="Times,serif" font-size="14.00">value 52</text>
<polyline fill="none" stroke="black" points="640,-55.5 764,-55.5 "/>
<text text-anchor="middle" x="671" y="-40.3" font-family="Times,serif" font-size="14.00">prev 3</text>
<polyline fill="none" stroke="black" points="702,-32.5 702,-55.5 "/>
<text text-anchor="middle" x="733" y="-40.3" font-family="Times,serif" font-size="14.00">next 5</text>
</g>
<!-- node3&#45;&gt;node4 -->
<g id="edge4" class="edge">
<title>node3&#45;&gt;node4</title>
<path fill="none" stroke="blue" d="M604.09,-67C612.51,-67 621.23,-67 629.81,-67"/>
<polygon fill="blue" stroke="blue" points="629.82,-70.5 639.82,-67 629.82,-63.5 629.82,-70.5"/>
</g>
<!-- node5 -->
<g id="node6" class="node">
<title>node5</title>
<path fill="#9d4cef" stroke="black" d="M812,-32.5C812,-32.5 912,-32.5 912,-32.5 918,-32.5 924,-38.5 924,-44.5 924,-44.5 924,-89.5 924,-89.5 924,-95.5 918,-101.5 912,-101.5 912,-101.5 812,-101.5 812,-101.5 806,-101.5 800,-95.5 800,-89.5 800,-89.5 800,-44.5 800,-44.5 800,-38.5 806,-32.5 812,-32.5"/>
<text text-anchor="middle" x="862" y="-86.3" font-family="Times,serif" font-size="14.00">index 5</text>
<polyline fill="none" stroke="black" points="800,-78.5 924,-78.5 "/>
<text text-anchor="middle" x="862" y="-63.3" font-family="Times,serif" font-size="14.00">value 53</text>
<polyline fill="none" stroke="black" points="800,-55.5 924,-55.5 "/>
<text text-anchor="middle" x="831" y="-40.3" font-family="Times,serif" font-size="14.00">prev 4</text>
<polyline fill="none" stroke="black" points="862,-32.5 862,-55.5 "/>
<text text-anchor="middle" x="893" y="-40.3" font-family="Times,serif" font-size="14.00">next 6</text>
</g>
<!-- node4&#45;&gt;node5 -->
<g id="edge5" class="edge">
<title>node4&#45;&gt;node5</title>
<path fill="none" stroke="blue" d="M764.09,-67C772.51,-67 781.23,-67 789.81,-67"/>
<polygon fill="blue" stroke="blue" points="789.82,-70.5 799.82,-67 789.82,-63.5 789.82,-70.5"/>
</g>
<!-- node6 -->
<g id="node7" class="node">
<title>node6</title>
<path fill="#9d4cef" stroke="black" d="M972,-32.5C972,-32.5 1072,-32.5 1072,-32.5 1078,-32.5 1084,-38.5 1084,-44.5 1084,-44.5 1084,-89.5 1084,-89.5 1084,-95.5 1078,-101.5 1072,-101.5 1072,-101.5 972,-101.5 972,-101.5 966,-101.5 960,-95.5 960,-89.5 960,-89.5 960,-44.5 960,-44.5 960,-38.5 966,-32.5 972,-32.5"/>
<text text-anchor="middle" x="1022" y="-86.3" font-family="Times,serif" font-size="14.00">index 6</text>
<polyline fill="none" stroke="black" points="960,-78.5 1084,-78.5 "/>
<text text-anchor="middle" x="1022" y="-63.3" font-family="Times,serif" font-size="14.00">value 54</text>
<polyline fill="none" stroke="black" points="960,-55.5 1084,-55.5 "/>
<text text-anchor="middle" x="991" y="-40.3" font-family="Times,serif" font-size="14.00">prev 5</text>
<polyline fill="none" stroke="black" points="1022,-32.5 1022,-55.5 "/>
<text text-anchor="middle" x="1053" y="-40.3" font-family="Times,serif" font-size="14.00">next 7</text>
</g>
<!-- node5&#45;&gt;node6 -->
<g id="edge6" class="edge">
<title>node5&#45;&gt;node6</title>
<path fill="none" stroke="blue" d="M924.09,-67C932.51,-67 941.23,-67 949.81,-67"/>
<polygon fill="blue" stroke="blue" points="949.82,-70.5 959.82,-67 949.82,-63.5 949.82,-70.5"/>
</g>
<!-- node7 -->
<g id="node8" class="node">
<title>node7</title>
<path fill="#9d4cef" stroke="black" d="M1132,-32.5C1132,-32.5 1232,-32.5 1232,-32.5 1238,-32.5 1244,-38.5 1244,-44.5 1244,-44.5 1244,-89.5 1244,-89.5 1244,-95.5 1238,-101.5 1232,-101.5 1232,-101.5 1132,-101.5 1132,-101.5 1126,-101.5 1120,-95.5 1120,-89.5 1120,-89.5 1120,-44.5 1120,-44.5 1120,-38.5 1126,-32.5 1132,-32.5"/>
<text text-anchor="middle" x="1182" y="-86.3" font-family="Times,serif" font-size="14.00">index 7</text>
<polyline fill="none" stroke="black" points="1120,-78.5 1244,-78.5 "/>
<text text-anchor="middle" x="1182" y="-63.3" font-family="Times,serif" font-size="14.00">value 55</text>
<polyline fill="none" stroke="black" points="1120,-55.5 1244,-55.5 "/>
<text text-anchor="middle" x="1151" y="-40.3" font-family="Times,serif" font-size="14.00">prev 6</text>
<polyline fill="none" stroke="black" points="1182,-32.5 1182,-55.5 "/>
<text text-anchor="middle" x="1213" y="-40.3" font-family="Times,serif" font-size="14.00">next 8</text>
</g>
<!-- node6&#45;&gt;node7 -->
<g id="edge7" class="edge">
<title>node6&#45;&gt;node7</title>
<path fill="none" stroke="blue" d="M1084.09,-67C1092.51,-67 1101.23,-67 1109.81,-67"/>
<polygon fill="blue" stroke="blue" points="1109.82,-70.5 1119.82,-67 1109.82,-63.5 1109.82,-70.5"/>
</g>
<!-- node8 -->
<g id="node9" class="node">
<title>node8</title>
<path fill="#9d4cef" stroke="black" d="M1292,-32.5C1292,-32.5 1392,-32.5 1392,-32.5 1398,-32.5 1404,-38.5 1404,-44.5 1404,-44.5 1404,-89.5 1404,-89.5 1404,-95.5 1398,-101.5 1392,-101.5 1392,-101.5 1292,-101.5 1292,-101.5 1286,-101.5 1280,-95.5 1280,-89.5 1280,-89.5 1280,-44.5 1280,-44.5 1280,-38.5 1286,-32.5 1292,-32.5"/>
<text text-anchor="middle" x="1342" y="-86.3" font-family="Times,serif" font-size="14.00">index 8</text>
<polyline fill="none" stroke="black" points="1280,-78.5 1404,-78.5 "/>
<text text-anchor="middle" x="1342" y="-63.3" font-family="Times,serif" font-size="14.00">value 56</text>
<polyline fill="none" stroke="black" points="1280,-55.5 1404,-55.5 "/>
<text text-anchor="middle" x="1311" y="-40.3" font-family="Times,serif" font-size="14.00">prev 7</text>
<polyline fill="none" stroke="black" points="1342,-32.5 1342,-55.5 "/>
<text text-anchor="middle" x="1373" y="-40.3" font-family="Times,serif" font-size="14.00">next 9</text>
</g>
<!-- node7&#45;&gt;node8 -->
<g id="edge8" class="edge">
<title>node7&#45;&gt;node8</title>
<path fill="none" stroke="blue" d="M1244.09,-67C1252.51,-67 1261.23,-67 1269.81,-67"/>
<polygon fill="blue" stroke="blue" points="1269.82,-70.5 1279.82,-67 1269.82,-63.5 1269.82,-70.5"/>
</g>
<!-- node9 -->
<g id="node10" class="node">
<title>node9</title>
<path fill="#9d4cef" stroke="black" d="M1452,-0.5C1452,-0.5 1552,-0.5 1552,-0.5 1558,-0.5 1564,-6.5 1564,-12.5 1564,-12.5 1564,-57.5 1564,-57.5 1564,-63.5 1558,-69.5 1552,-69.5 1552,-69.5 1452,-69.5 1452,-69.5 1446,-69.5 1440,-63.5 1440,-57.5 1440,-57.5 1440,-12.5 1440,-12.5 1440,-6.5 1446,-0.5 1452,-0.5"/>
<text text-anchor="middle" x="1502" y="-54.3" font-family="Times,serif" font-size="14.00">index 9</text>
<polyline fill="none" stroke="black" points="1440,-46.5 1564,-46.5 "/>
<text text-anchor="middle" x="1502" y="-31.3" font-family="Times,serif" font-size="14.00">value 57</text>
<polyline fill="none" stroke="black" points="1440,-23.5 1564,-23.5 "/>
<text text-anchor="middle" x="1471" y="-8.3" font-family="Times,serif" font-size="14.00">prev 8</text>
<polyline fill="none" stroke="black" points="1502,-0.5 1502,-23.5 "/>
<text text-anchor="middle" x="1533" y="-8.3" font-family="Times,serif" font-size="14.00">next 0</text>
</g>
<!-- node8&#45;&gt;node9 -->
<g id="edge9" class="edge">
<title>node8&#45;&gt;node9</title>
<path fill="none" stroke="blue" d="M1404.09,-54.63C1412.51,-52.92 1421.23,-51.16 1429.81,-49.42"/>
<polygon fill="blue" stroke="blue" points="1430.71,-52.81 1439.82,-47.39 1429.32,-45.95 1430.71,-52.81"/>
</g>
<!-- node9&#45;&gt;node0 -->
<g id="edge10" class="edge">
<title>node9&#45;&gt;node0</title>
<path fill="none" stroke="blue" d="M1439.91,-25.49C1376.02,-16.38 1272.72,-4 1183,-4 381,-4 381,-4 381,-4 295.83,-4 198.44,-15.15 134.12,-24.08"/>
<polygon fill="blue" stroke="blue" points="133.5,-20.63 124.09,-25.49 134.48,-27.56 133.5,-20.63"/>
</g>
</g>
</svg>
