<?xml version="1.0" encoding="UTF-8" standalone="no"?>
<!DOCTYPE svg PUBLIC "-//W3C//DTD SVG 1.1//EN"
 "http://www.w3.org/Graphics/SVG/1.1/DTD/svg11.dtd">
<!-- Generated by graphviz version 2.43.0 (0)
 -->
<!-- Title: G Pages: 1 -->
<svg width="2197pt" height="153pt"
 viewBox="0.00 0.00 1582.00 110.00" xmlns="http://www.w3.org/2000/svg" xmlns:xlink="http://www.w3.org/1999/xlink">
<g id="graph0" class="graph" transform="scale(0.72 0.72) rotate(0) translate(4 106)">
<title>G</title>
<polygon fill="white" stroke="transparent" points="-4,4 -4,-106 1578,-106 1578,4 -4,4"/>
<!-- node0 -->
<g id="node1" class="node">
<title>node0</title>
<path fill="#9d4cef" stroke="black" d="M342,-0.5C342,-0.5 442,-0.5 442,-0.5 448,-0.5 454,-6.5 454,-12.5 454,-12.5 454,-57.5 454,-57.5 454,-63.5 448,-69.5 442,-69.5 442,-69.5 342,-69.5 342,-69.5 336,-69.5 330,-63.5 330,-57.5 330,-57.5 330,-12.5 330,-12.5 330,-6.5 336,-0.5 342,-0.5"/>
<text text-anchor="middle" x="392" y="-54.3" font-family="Times,serif" font-size="14.00">index 0</text>
<polyline fill="none" stroke="black" points="330,-46.5 454,-46.5 "/>
<text text-anchor="middle" x="392" y="-31.3" font-family="Times,serif" font-size="14.00">value &#45;66</text>
<polyline fill="none" stroke="black" points="330,-23.5 454,-23.5 "/>
<text text-anchor="middle" x="361" y="-8.3" font-family="Times,serif" font-size="14.00">prev 9</text>
<polyline fill="none" stroke="black" points="392,-0.5 392,-23.5 "/>
<text text-anchor="middle" x="423" y="-8.3" font-family="Times,serif" font-size="14.00">next 3</text>
</g>
<!-- node3 -->
<g id="node4" class="node">
<title>node3</title>
<path fill="#9d4cef" stroke="black" d="M502,-32.5C502,-32.5 602,-32.5 602,-32.5 608,-32.5 614,-38.5 614,-44.5 614,-44.5 614,-89.5 614,-89.5 614,-95.5 608,-101.5 602,-101.5 602,-101.5 502,-101.5 502,-101.5 496,-101.5 490,-95.5 490,-89.5 490,-89.5 490,-44.5 490,-44.5 490,-38.5 496,-32.5 502,-32.5"/>
<text text-anchor="middle" x="552" y="-86.3" font-family="Times,serif" font-size="14.00">index 3</text>
<polyline fill="none" stroke="black" points="490,-78.5 614,-78.5 "/>
<text text-anchor="middle" x="552" y="-63.3" font-family="Times,serif" font-size="14.00">value 51</text>
<polyline fill="none" stroke="black" points="490,-55.5 614,-55.5 "/>
<text text-anchor="middle" x="521" y="-40.3" font-family="Times,serif" font-size="14.00">prev 0</text>
<polyline fill="none" stroke="black" points="552,-32.5 552,-55.5 "/>
<text text-anchor="middle" x="583" y="-40.3" font-family="Times,serif" font-size="14.00">next 4</text>
</g>
<!-- node0&#45;&gt;node3 -->
<g id="edge1" class="edge">
<title>node0&#45;&gt;node3</title>
<path fill="none" stroke="blue" d="M454.09,-47.37C462.51,-49.08 471.23,-50.84 479.81,-52.58"/>
<polygon fill="blue" stroke="blue" points="479.32,-56.05 489.82,-54.61 480.71,-49.19 479.32,-56.05"/>
</g>
<!-- node1 -->
<g id="node2" class="node">
<title>node1</title>
<path fill="#fb45a7" stroke="black" d="M177,-0.5C177,-0.5 282,-0.5 282,-0.5 288,-0.5 294,-6.5 294,-12.5 294,-12.5 294,-57.5 294,-57.5 294,-63.5 288,-69.5 282,-69.5 282,-69.5 177,-69.5 177,-69.5 171,-69.5 165,-63.5 165,-57.5 165,-57.5 165,-12.5 165,-12.5 165,-6.5 171,-0.5 177,-0.5"/>
<text text-anchor="middle" x="229.5" y="-54.3" font-family="Times,serif" font-size="14.00">index 1</text>
<polyline fill="none" stroke="black" points="165,-46.5 294,-46.5 "/>
<text text-anchor="middle" x="229.5" y="-31.3" font-family="Times,serif" font-size="14.00">value PSN</text>
<polyline fill="none" stroke="black" points="165,-23.5 294,-23.5 "/>
<text text-anchor="middle" x="198.5" y="-8.3" font-family="Times,serif" font-size="14.00">prev &#45;1</text>
<polyline fill="none" stroke="black" points="232,-0.5 232,-23.5 "/>
<text text-anchor="middle" x="263" y="-8.3" font-family="Times,serif" font-size="14.00">next 0</text>
</g>
<!-- node1&#45;&gt;node0 -->
<g id="edge2" class="edge">
<title>node1&#45;&gt;node0</title>
<path fill="none" stroke="red" d="M294.4,-35C302.72,-35 311.3,-35 319.74,-35"/>
<polygon fill="red" stroke="red" points="319.94,-38.5 329.94,-35 319.94,-31.5 319.94,-38.5"/>
</g>
<!-- node2 -->
<g id="node3" class="node">
<title>node2</title>
<path fill="#fb45a7" stroke="black" d="M12,-0.5C12,-0.5 117,-0.5 117,-0.5 123,-0.5 129,-6.5 129,-12.5 129,-12.5 129,-57.5 129,-57.5 129,-63.5 123,-69.5 117,-69.5 117,-69.5 12,-69.5 12,-69.5 6,-69.5 0,-63.5 0,-57.5 0,-57.5 0,-12.5 0,-12.5 0,-6.5 6,-0.5 12,-0.5"/>
<text text-anchor="middle" x="64.5" y="-54.3" font-family="Times,serif" font-size="14.00">index 2</text>
<polyline fill="none" stroke="black" points="0,-46.5 129,-46.5 "/>
<text text-anchor="middle" x="64.5" y="-31.3" font-family="Times,serif" font-size="14.00">value PSN</text>
<polyline fill="none" stroke="black" points="0,-23.5 129,-23.5 "/>
<text text-anchor="middle" x="33.5" y="-8.3" font-family="Times,serif" font-size="14.00">prev &#45;1</text>
<polyline fill="none" stroke="black" points="67,-0.5 67,-23.5 "/>
<text text-anchor="middle" x="98" y="-8.3" font-family="Times,serif" font-size="14.00">next 1</text>
</g>
<!-- node2&#45;&gt;node1 -->
<g id="edge3" class="edge">
<title>node2&#45;&gt;node1</title>
<path fill="none" stroke="red" d="M129.45,-35C137.76,-35 146.32,-35 154.77,-35"/>
<polygon fill="red" stroke="red" points="155,-38.5 165,-35 155,-31.5 155,-38.5"/>
</g>
<!-- node4 -->
<g id="node5" class="node">
<title>node4</title>
<path fill="#9d4cef" stroke="black" d="M662,-32.5C662,-32.5 762,-32.5 762,-32.5 768,-32.5 774,-38.5 774,-44.5 774,-44.5 774,-89.5 774,-89.5 774,-95.5 768,-101.5 762,-101.5 762,-101.5 662,-101.5 662,-101.5 656,-101.5 650,-95.5 650,-89.5 650,-89.5 650,-44.5 650,-44.5 650,-38.5 656,-32.5 662,-32.5"/>
<text text-anchor="middle" x="712" y="-86.3" font-family="Times,serif" font-size="14.00">index 4</text>
<polyline fill="none" stroke="black" points="650,-78.5 774,-78.5 "/>
<text text-anchor="middle" x="712" y="-63.3" font-family="Times,serif" font-size="14.00">value 52</text>
<polyline fill="none" stroke="black" points="650,-55.5 774,-55.5 "/>
<text text-anchor="middle" x="681" y="-40.3" font-family="Times,serif" font-size="14.00">prev 3</text>
<polyline fill="none" stroke="black" points="712,-32.5 712,-55.5 "/>
<text text-anchor="middle" x="743" y="-40.3" font-family="Times,serif" font-size="14.00">next 5</text>
</g>
<!-- node3&#45;&gt;node4 -->
<g id="edge4" class="edge">
<title>node3&#45;&gt;node4</title>
<path fill="none" stroke="blue" d="M614.09,-67C622.51,-67 631.23,-67 639.81,-67"/>
<polygon fill="blue" stroke="blue" points="639.82,-70.5 649.82,-67 639.82,-63.5 639.82,-70.5"/>
</g>
<!-- node5 -->
<g id="node6" class="node">
<title>node5</title>
<path fill="#9d4cef" stroke="black" d="M822,-32.5C822,-32.5 922,-32.5 922,-32.5 928,-32.5 934,-38.5 934,-44.5 934,-44.5 934,-89.5 934,-89.5 934,-95.5 928,-101.5 922,-101.5 922,-101.5 822,-101.5 822,-101.5 816,-101.5 810,-95.5 810,-89.5 810,-89.5 810,-44.5 810,-44.5 810,-38.5 816,-32.5 822,-32.5"/>
<text text-anchor="middle" x="872" y="-86.3" font-family="Times,serif" font-size="14.00">index 5</text>
<polyline fill="none" stroke="black" points="810,-78.5 934,-78.5 "/>
<text text-anchor="middle" x="872" y="-63.3" font-family="Times,serif" font-size="14.00">value 53</text>
<polyline fill="none" stroke="black" points="810,-55.5 934,-55.5 "/>
<text text-anchor="middle" x="841" y="-40.3" font-family="Times,serif" font-size="14.00">prev 4</text>
<polyline fill="none" stroke="black" points="872,-32.5 872,-55.5 "/>
<text text-anchor="middle" x="903" y="-40.3" font-family="Times,serif" font-size="14.00">next 6</text>
</g>
<!-- node4&#45;&gt;node5 -->
<g id="edge5" class="edge">
<title>node4&#45;&gt;node5</title>
<path fill="none" stroke="blue" d="M774.09,-67C782.51,-67 791.23,-67 799.81,-67"/>
<polygon fill="blue" stroke="blue" points="799.82,-70.5 809.82,-67 799.82,-63.5 799.82,-70.5"/>
</g>
<!-- node6 -->
<g id="node7" class="node">
<title>node6</title>
<path fill="#9d4cef" stroke="black" d="M982,-32.5C982,-32.5 1082,-32.5 1082,-32.5 1088,-32.5 1094,-38.5 1094,-44.5 1094,-44.5 1094,-89.5 1094,-89.5 1094,-95.5 1088,-101.5 1082,-101.5 1082,-101.5 982,-101.5 982,-101.5 976,-101.5 970,-95.5 970,-89.5 970,-89.5 970,-44.5 970,-44.5 970,-38.5 976,-32.5 982,-32.5"/>
<text text-anchor="middle" x="1032" y="-86.3" font-family="Times,serif" font-size="14.00">index 6</text>
<polyline fill="none" stroke="black" points="970,-78.5 1094,-78.5 "/>
<text text-anchor="middle" x="1032" y="-63.3" font-family="Times,serif" font-size="14.00">value 54</text>
<polyline fill="none" stroke="black" points="970,-55.5 1094,-55.5 "/>
<text text-anchor="middle" x="1001" y="-40.3" font-family="Times,serif" font-size="14.00">prev 5</text>
<polyline fill="none" stroke="black" points="1032,-32.5 1032,-55.5 "/>
<text text-anchor="middle" x="1063" y="-40.3" font-family="Times,serif" font-size="14.00">next 7</text>
</g>
<!-- node5&#45;&gt;node6 -->
<g id="edge6" class="edge">
<title>node5&#45;&gt;node6</title>
<path fill="none" stroke="blue" d="M934.09,-67C942.51,-67 951.23,-67 959.81,-67"/>
<polygon fill="blue" stroke="blue" points="959.82,-70.5 969.82,-67 959.82,-63.5 959.82,-70.5"/>
</g>
<!-- node7 -->
<g id="node8" class="node">
<title>node7</title>
<path fill="#9d4cef" stroke="black" d="M1142,-32.5C1142,-32.5 1242,-32.5 1242,-32.5 1248,-32.5 1254,-38.5 1254,-44.5 1254,-44.5 1254,-89.5 1254,-89.5 1254,-95.5 1248,-101.5 1242,-101.5 1242,-101.5 1142,-101.5 1142,-101.5 1136,-101.5 1130,-95.5 1130,-89.5 1130,-89.5 1130,-44.5 1130,-44.5 1130,-38.5 1136,-32.5 1142,-32.5"/>
<text text-anchor="middle" x="1192" y="-86.3" font-family="Times,serif" font-size="14.00">index 7</text>
<polyline fill="none" stroke="black" points="1130,-78.5 1254,-78.5 "/>
<text text-anchor="middle" x="1192" y="-63.3" font-family="Times,serif" font-size="14.00">value 55</text>
<polyline fill="none" stroke="black" points="1130,-55.5 1254,-55.5 "/>
<text text-anchor="middle" x="1161" y="-40.3" font-family="Times,serif" font-size="14.00">prev 6</text>
<polyline fill="none" stroke="black" points="1192,-32.5 1192,-55.5 "/>
<text text-anchor="middle" x="1223" y="-40.3" font-family="Times,serif" font-size="14.00">next 8</text>
</g>
<!-- node6&#45;&gt;node7 -->
<g id="edge7" class="edge">
<title>node6&#45;&gt;node7</title>
<path fill="none" stroke="blue" d="M1094.09,-67C1102.51,-67 1111.23,-67 1119.81,-67"/>
<polygon fill="blue" stroke="blue" points="1119.82,-70.5 1129.82,-67 1119.82,-63.5 1119.82,-70.5"/>
</g>
<!-- node8 -->
<g id="node9" class="node">
<title>node8</title>
<path fill="#9d4cef" stroke="black" d="M1302,-32.5C1302,-32.5 1402,-32.5 1402,-32.5 1408,-32.5 1414,-38.5 1414,-44.5 1414,-44.5 1414,-89.5 1414,-89.5 1414,-95.5 1408,-101.5 1402,-101.5 1402,-101.5 1302,-101.5 1302,-101.5 1296,-101.5 1290,-95.5 1290,-89.5 1290,-89.5 1290,-44.5 1290,-44.5 1290,-38.5 1296,-32.5 1302,-32.5"/>
<text text-anchor="middle" x="1352" y="-86.3" font-family="Times,serif" font-size="14.00">index 8</text>
<polyline fill="none" stroke="black" points="1290,-78.5 1414,-78.5 "/>
<text text-anchor="middle" x="1352" y="-63.3" font-family="Times,serif" font-size="14.00">value 56</text>
<polyline fill="none" stroke="black" points="1290,-55.5 1414,-55.5 "/>
<text text-anchor="middle" x="1321" y="-40.3" font-family="Times,serif" font-size="14.00">prev 7</text>
<polyline fill="none" stroke="black" points="1352,-32.5 1352,-55.5 "/>
<text text-anchor="middle" x="1383" y="-40.3" font-family="Times,serif" font-size="14.00">next 9</text>
</g>
<!-- node7&#45;&gt;node8 -->
<g id="edge8" class="edge">
<title>node7&#45;&gt;node8</title>
<path fill="none" stroke="blue" d="M1254.09,-67C1262.51,-67 1271.23,-67 1279.81,-67"/>
<polygon fill="blue" stroke="blue" points="1279.82,-70.5 1289.82,-67 1279.82,-63.5 1279.82,-70.5"/>
</g>
<!-- node9 -->
<g id="node10" class="node">
<title>node9</title>
<path fill="#9d4cef" stroke="black" d="M1462,-0.5C1462,-0.5 1562,-0.5 1562,-0.5 1568,-0.5 1574,-6.5 1574,-12.5 1574,-12.5 1574,-57.5 1574,-57.5 1574,-63.5 1568,-69.5 1562,-69.5 1562,-69.5 1462,-69.5 1462,-69.5 1456,-69.5 1450,-63.5 1450,-57.5 1450,-57.5 1450,-12.5 1450,-12.5 1450,-6.5 1456,-0.5 1462,-0.5"/>
<text text-anchor="middle" x="1512" y="-54.3" font-family="Times,serif" font-size="14.00">index 9</text>
<polyline fill="none" stroke="black" points="1450,-46.5 1574,-46.5 "/>
<text text-anchor="middle" x="1512" y="-31.3" font-family="Times,serif" font-size="14.00">value 57</text>
<polyline fill="none" stroke="black" points="1450,-23.5 1574,-23.5 "/>
<text text-anchor="middle" x="1481" y="-8.3" font-family="Times,serif" font-size="14.00">prev 8</text>
<polyline fill="none" stroke="black" points="1512,-0.5 1512,-23.5 "/>
<text text-anchor="middle" x="1543" y="-8.3" font-family="Times,serif" font-size="14.00">next 0</text>
</g>
<!-- node8&#45;&gt;node9 -->
<g id="edge9" class="edge">
<title>node8&#45;&gt;node9</title>
<path fill="none" stroke="blue" d="M1414.09,-54.63C1422.51,-52.92 1431.23,-51.16 1439.81,-49.42"/>
<polygon fill="blue" stroke="blue" points="1440.71,-52.81 1449.82,-47.39 1439.32,-45.95 1440.71,-52.81"/>
</g>
<!-- node9&#45;&gt;node0 -->
<g id="edge10" class="edge">
<title>node9&#45;&gt;node0</title>
<path fill="none" stroke="blue" d="M1449.91,-25.49C1386.02,-16.38 1282.72,-4 1193,-4 711,-4 711,-4 711,-4 625.83,-4 528.44,-15.15 464.12,-24.08"/>
<polygon fill="blue" stroke="blue" points="463.5,-20.63 454.09,-25.49 464.48,-27.56 463.5,-20.63"/>
</g>
</g>
</svg>
