<?xml version="1.0" encoding="UTF-8" standalone="no"?>
<!DOCTYPE svg PUBLIC "-//W3C//DTD SVG 1.1//EN"
 "http://www.w3.org/Graphics/SVG/1.1/DTD/svg11.dtd">
<!-- Generated by graphviz version 2.43.0 (0)
 -->
<!-- Title: G Pages: 1 -->
<svg width="2190pt" height="153pt"
 viewBox="0.00 0.00 1577.00 110.00" xmlns="http://www.w3.org/2000/svg" xmlns:xlink="http://www.w3.org/1999/xlink">
<g id="graph0" class="graph" transform="scale(0.72 0.72) rotate(0) translate(4 106)">
<title>G</title>
<polygon fill="white" stroke="transparent" points="-4,4 -4,-106 1573,-106 1573,4 -4,4"/>
<!-- node0 -->
<g id="node1" class="node">
<title>node0</title>
<path fill="#9d4cef" stroke="black" d="M177,-0.5C177,-0.5 277,-0.5 277,-0.5 283,-0.5 289,-6.5 289,-12.5 289,-12.5 289,-57.5 289,-57.5 289,-63.5 283,-69.5 277,-69.5 277,-69.5 177,-69.5 177,-69.5 171,-69.5 165,-63.5 165,-57.5 165,-57.5 165,-12.5 165,-12.5 165,-6.5 171,-0.5 177,-0.5"/>
<text text-anchor="middle" x="227" y="-54.3" font-family="Times,serif" font-size="14.00">index 0</text>
<polyline fill="none" stroke="black" points="165,-46.5 289,-46.5 "/>
<text text-anchor="middle" x="227" y="-31.3" font-family="Times,serif" font-size="14.00">value &#45;66</text>
<polyline fill="none" stroke="black" points="165,-23.5 289,-23.5 "/>
<text text-anchor="middle" x="196" y="-8.3" font-family="Times,serif" font-size="14.00">prev 9</text>
<polyline fill="none" stroke="black" points="227,-0.5 227,-23.5 "/>
<text text-anchor="middle" x="258" y="-8.3" font-family="Times,serif" font-size="14.00">next 2</text>
</g>
<!-- node2 -->
<g id="node3" class="node">
<title>node2</title>
<path fill="#9d4cef" stroke="black" d="M337,-32.5C337,-32.5 437,-32.5 437,-32.5 443,-32.5 449,-38.5 449,-44.5 449,-44.5 449,-89.5 449,-89.5 449,-95.5 443,-101.5 437,-101.5 437,-101.5 337,-101.5 337,-101.5 331,-101.5 325,-95.5 325,-89.5 325,-89.5 325,-44.5 325,-44.5 325,-38.5 331,-32.5 337,-32.5"/>
<text text-anchor="middle" x="387" y="-86.3" font-family="Times,serif" font-size="14.00">index 2</text>
<polyline fill="none" stroke="black" points="325,-78.5 449,-78.5 "/>
<text text-anchor="middle" x="387" y="-63.3" font-family="Times,serif" font-size="14.00">value 50</text>
<polyline fill="none" stroke="black" points="325,-55.5 449,-55.5 "/>
<text text-anchor="middle" x="356" y="-40.3" font-family="Times,serif" font-size="14.00">prev 0</text>
<polyline fill="none" stroke="black" points="387,-32.5 387,-55.5 "/>
<text text-anchor="middle" x="418" y="-40.3" font-family="Times,serif" font-size="14.00">next 3</text>
</g>
<!-- node0&#45;&gt;node2 -->
<g id="edge1" class="edge">
<title>node0&#45;&gt;node2</title>
<path fill="none" stroke="blue" d="M289.09,-47.37C297.51,-49.08 306.23,-50.84 314.81,-52.58"/>
<polygon fill="blue" stroke="blue" points="314.32,-56.05 324.82,-54.61 315.71,-49.19 314.32,-56.05"/>
</g>
<!-- node1 -->
<g id="node2" class="node">
<title>node1</title>
<path fill="#fb45a7" stroke="black" d="M12,-0.5C12,-0.5 117,-0.5 117,-0.5 123,-0.5 129,-6.5 129,-12.5 129,-12.5 129,-57.5 129,-57.5 129,-63.5 123,-69.5 117,-69.5 117,-69.5 12,-69.5 12,-69.5 6,-69.5 0,-63.5 0,-57.5 0,-57.5 0,-12.5 0,-12.5 0,-6.5 6,-0.5 12,-0.5"/>
<text text-anchor="middle" x="64.5" y="-54.3" font-family="Times,serif" font-size="14.00">index 1</text>
<polyline fill="none" stroke="black" points="0,-46.5 129,-46.5 "/>
<text text-anchor="middle" x="64.5" y="-31.3" font-family="Times,serif" font-size="14.00">value PSN</text>
<polyline fill="none" stroke="black" points="0,-23.5 129,-23.5 "/>
<text text-anchor="middle" x="33.5" y="-8.3" font-family="Times,serif" font-size="14.00">prev &#45;1</text>
<polyline fill="none" stroke="black" points="67,-0.5 67,-23.5 "/>
<text text-anchor="middle" x="98" y="-8.3" font-family="Times,serif" font-size="14.00">next 0</text>
</g>
<!-- node1&#45;&gt;node0 -->
<g id="edge2" class="edge">
<title>node1&#45;&gt;node0</title>
<path fill="none" stroke="red" d="M129.4,-35C137.72,-35 146.3,-35 154.74,-35"/>
<polygon fill="red" stroke="red" points="154.94,-38.5 164.94,-35 154.94,-31.5 154.94,-38.5"/>
</g>
<!-- node3 -->
<g id="node4" class="node">
<title>node3</title>
<path fill="#9d4cef" stroke="black" d="M497,-32.5C497,-32.5 597,-32.5 597,-32.5 603,-32.5 609,-38.5 609,-44.5 609,-44.5 609,-89.5 609,-89.5 609,-95.5 603,-101.5 597,-101.5 597,-101.5 497,-101.5 497,-101.5 491,-101.5 485,-95.5 485,-89.5 485,-89.5 485,-44.5 485,-44.5 485,-38.5 491,-32.5 497,-32.5"/>
<text text-anchor="middle" x="547" y="-86.3" font-family="Times,serif" font-size="14.00">index 3</text>
<polyline fill="none" stroke="black" points="485,-78.5 609,-78.5 "/>
<text text-anchor="middle" x="547" y="-63.3" font-family="Times,serif" font-size="14.00">value 51</text>
<polyline fill="none" stroke="black" points="485,-55.5 609,-55.5 "/>
<text text-anchor="middle" x="516" y="-40.3" font-family="Times,serif" font-size="14.00">prev 2</text>
<polyline fill="none" stroke="black" points="547,-32.5 547,-55.5 "/>
<text text-anchor="middle" x="578" y="-40.3" font-family="Times,serif" font-size="14.00">next 4</text>
</g>
<!-- node2&#45;&gt;node3 -->
<g id="edge3" class="edge">
<title>node2&#45;&gt;node3</title>
<path fill="none" stroke="blue" d="M449.09,-67C457.51,-67 466.23,-67 474.81,-67"/>
<polygon fill="blue" stroke="blue" points="474.82,-70.5 484.82,-67 474.82,-63.5 474.82,-70.5"/>
</g>
<!-- node4 -->
<g id="node5" class="node">
<title>node4</title>
<path fill="#9d4cef" stroke="black" d="M657,-32.5C657,-32.5 757,-32.5 757,-32.5 763,-32.5 769,-38.5 769,-44.5 769,-44.5 769,-89.5 769,-89.5 769,-95.5 763,-101.5 757,-101.5 757,-101.5 657,-101.5 657,-101.5 651,-101.5 645,-95.5 645,-89.5 645,-89.5 645,-44.5 645,-44.5 645,-38.5 651,-32.5 657,-32.5"/>
<text text-anchor="middle" x="707" y="-86.3" font-family="Times,serif" font-size="14.00">index 4</text>
<polyline fill="none" stroke="black" points="645,-78.5 769,-78.5 "/>
<text text-anchor="middle" x="707" y="-63.3" font-family="Times,serif" font-size="14.00">value 52</text>
<polyline fill="none" stroke="black" points="645,-55.5 769,-55.5 "/>
<text text-anchor="middle" x="676" y="-40.3" font-family="Times,serif" font-size="14.00">prev 3</text>
<polyline fill="none" stroke="black" points="707,-32.5 707,-55.5 "/>
<text text-anchor="middle" x="738" y="-40.3" font-family="Times,serif" font-size="14.00">next 5</text>
</g>
<!-- node3&#45;&gt;node4 -->
<g id="edge4" class="edge">
<title>node3&#45;&gt;node4</title>
<path fill="none" stroke="blue" d="M609.09,-67C617.51,-67 626.23,-67 634.81,-67"/>
<polygon fill="blue" stroke="blue" points="634.82,-70.5 644.82,-67 634.82,-63.5 634.82,-70.5"/>
</g>
<!-- node5 -->
<g id="node6" class="node">
<title>node5</title>
<path fill="#9d4cef" stroke="black" d="M817,-32.5C817,-32.5 917,-32.5 917,-32.5 923,-32.5 929,-38.5 929,-44.5 929,-44.5 929,-89.5 929,-89.5 929,-95.5 923,-101.5 917,-101.5 917,-101.5 817,-101.5 817,-101.5 811,-101.5 805,-95.5 805,-89.5 805,-89.5 805,-44.5 805,-44.5 805,-38.5 811,-32.5 817,-32.5"/>
<text text-anchor="middle" x="867" y="-86.3" font-family="Times,serif" font-size="14.00">index 5</text>
<polyline fill="none" stroke="black" points="805,-78.5 929,-78.5 "/>
<text text-anchor="middle" x="867" y="-63.3" font-family="Times,serif" font-size="14.00">value 53</text>
<polyline fill="none" stroke="black" points="805,-55.5 929,-55.5 "/>
<text text-anchor="middle" x="836" y="-40.3" font-family="Times,serif" font-size="14.00">prev 4</text>
<polyline fill="none" stroke="black" points="867,-32.5 867,-55.5 "/>
<text text-anchor="middle" x="898" y="-40.3" font-family="Times,serif" font-size="14.00">next 6</text>
</g>
<!-- node4&#45;&gt;node5 -->
<g id="edge5" class="edge">
<title>node4&#45;&gt;node5</title>
<path fill="none" stroke="blue" d="M769.09,-67C777.51,-67 786.23,-67 794.81,-67"/>
<polygon fill="blue" stroke="blue" points="794.82,-70.5 804.82,-67 794.82,-63.5 794.82,-70.5"/>
</g>
<!-- node6 -->
<g id="node7" class="node">
<title>node6</title>
<path fill="#9d4cef" stroke="black" d="M977,-32.5C977,-32.5 1077,-32.5 1077,-32.5 1083,-32.5 1089,-38.5 1089,-44.5 1089,-44.5 1089,-89.5 1089,-89.5 1089,-95.5 1083,-101.5 1077,-101.5 1077,-101.5 977,-101.5 977,-101.5 971,-101.5 965,-95.5 965,-89.5 965,-89.5 965,-44.5 965,-44.5 965,-38.5 971,-32.5 977,-32.5"/>
<text text-anchor="middle" x="1027" y="-86.3" font-family="Times,serif" font-size="14.00">index 6</text>
<polyline fill="none" stroke="black" points="965,-78.5 1089,-78.5 "/>
<text text-anchor="middle" x="1027" y="-63.3" font-family="Times,serif" font-size="14.00">value 54</text>
<polyline fill="none" stroke="black" points="965,-55.5 1089,-55.5 "/>
<text text-anchor="middle" x="996" y="-40.3" font-family="Times,serif" font-size="14.00">prev 5</text>
<polyline fill="none" stroke="black" points="1027,-32.5 1027,-55.5 "/>
<text text-anchor="middle" x="1058" y="-40.3" font-family="Times,serif" font-size="14.00">next 7</text>
</g>
<!-- node5&#45;&gt;node6 -->
<g id="edge6" class="edge">
<title>node5&#45;&gt;node6</title>
<path fill="none" stroke="blue" d="M929.09,-67C937.51,-67 946.23,-67 954.81,-67"/>
<polygon fill="blue" stroke="blue" points="954.82,-70.5 964.82,-67 954.82,-63.5 954.82,-70.5"/>
</g>
<!-- node7 -->
<g id="node8" class="node">
<title>node7</title>
<path fill="#9d4cef" stroke="black" d="M1137,-32.5C1137,-32.5 1237,-32.5 1237,-32.5 1243,-32.5 1249,-38.5 1249,-44.5 1249,-44.5 1249,-89.5 1249,-89.5 1249,-95.5 1243,-101.5 1237,-101.5 1237,-101.5 1137,-101.5 1137,-101.5 1131,-101.5 1125,-95.5 1125,-89.5 1125,-89.5 1125,-44.5 1125,-44.5 1125,-38.5 1131,-32.5 1137,-32.5"/>
<text text-anchor="middle" x="1187" y="-86.3" font-family="Times,serif" font-size="14.00">index 7</text>
<polyline fill="none" stroke="black" points="1125,-78.5 1249,-78.5 "/>
<text text-anchor="middle" x="1187" y="-63.3" font-family="Times,serif" font-size="14.00">value 55</text>
<polyline fill="none" stroke="black" points="1125,-55.5 1249,-55.5 "/>
<text text-anchor="middle" x="1156" y="-40.3" font-family="Times,serif" font-size="14.00">prev 6</text>
<polyline fill="none" stroke="black" points="1187,-32.5 1187,-55.5 "/>
<text text-anchor="middle" x="1218" y="-40.3" font-family="Times,serif" font-size="14.00">next 8</text>
</g>
<!-- node6&#45;&gt;node7 -->
<g id="edge7" class="edge">
<title>node6&#45;&gt;node7</title>
<path fill="none" stroke="blue" d="M1089.09,-67C1097.51,-67 1106.23,-67 1114.81,-67"/>
<polygon fill="blue" stroke="blue" points="1114.82,-70.5 1124.82,-67 1114.82,-63.5 1114.82,-70.5"/>
</g>
<!-- node8 -->
<g id="node9" class="node">
<title>node8</title>
<path fill="#9d4cef" stroke="black" d="M1297,-32.5C1297,-32.5 1397,-32.5 1397,-32.5 1403,-32.5 1409,-38.5 1409,-44.5 1409,-44.5 1409,-89.5 1409,-89.5 1409,-95.5 1403,-101.5 1397,-101.5 1397,-101.5 1297,-101.5 1297,-101.5 1291,-101.5 1285,-95.5 1285,-89.5 1285,-89.5 1285,-44.5 1285,-44.5 1285,-38.5 1291,-32.5 1297,-32.5"/>
<text text-anchor="middle" x="1347" y="-86.3" font-family="Times,serif" font-size="14.00">index 8</text>
<polyline fill="none" stroke="black" points="1285,-78.5 1409,-78.5 "/>
<text text-anchor="middle" x="1347" y="-63.3" font-family="Times,serif" font-size="14.00">value 56</text>
<polyline fill="none" stroke="black" points="1285,-55.5 1409,-55.5 "/>
<text text-anchor="middle" x="1316" y="-40.3" font-family="Times,serif" font-size="14.00">prev 7</text>
<polyline fill="none" stroke="black" points="1347,-32.5 1347,-55.5 "/>
<text text-anchor="middle" x="1378" y="-40.3" font-family="Times,serif" font-size="14.00">next 9</text>
</g>
<!-- node7&#45;&gt;node8 -->
<g id="edge8" class="edge">
<title>node7&#45;&gt;node8</title>
<path fill="none" stroke="blue" d="M1249.09,-67C1257.51,-67 1266.23,-67 1274.81,-67"/>
<polygon fill="blue" stroke="blue" points="1274.82,-70.5 1284.82,-67 1274.82,-63.5 1274.82,-70.5"/>
</g>
<!-- node9 -->
<g id="node10" class="node">
<title>node9</title>
<path fill="#9d4cef" stroke="black" d="M1457,-0.5C1457,-0.5 1557,-0.5 1557,-0.5 1563,-0.5 1569,-6.5 1569,-12.5 1569,-12.5 1569,-57.5 1569,-57.5 1569,-63.5 1563,-69.5 1557,-69.5 1557,-69.5 1457,-69.5 1457,-69.5 1451,-69.5 1445,-63.5 1445,-57.5 1445,-57.5 1445,-12.5 1445,-12.5 1445,-6.5 1451,-0.5 1457,-0.5"/>
<text text-anchor="middle" x="1507" y="-54.3" font-family="Times,serif" font-size="14.00">index 9</text>
<polyline fill="none" stroke="black" points="1445,-46.5 1569,-46.5 "/>
<text text-anchor="middle" x="1507" y="-31.3" font-family="Times,serif" font-size="14.00">value 57</text>
<polyline fill="none" stroke="black" points="1445,-23.5 1569,-23.5 "/>
<text text-anchor="middle" x="1476" y="-8.3" font-family="Times,serif" font-size="14.00">prev 8</text>
<polyline fill="none" stroke="black" points="1507,-0.5 1507,-23.5 "/>
<text text-anchor="middle" x="1538" y="-8.3" font-family="Times,serif" font-size="14.00">next 0</text>
</g>
<!-- node8&#45;&gt;node9 -->
<g id="edge9" class="edge">
<title>node8&#45;&gt;node9</title>
<path fill="none" stroke="blue" d="M1409.09,-54.63C1417.51,-52.92 1426.23,-51.16 1434.81,-49.42"/>
<polygon fill="blue" stroke="blue" points="1435.71,-52.81 1444.82,-47.39 1434.32,-45.95 1435.71,-52.81"/>
</g>
<!-- node9&#45;&gt;node0 -->
<g id="edge10" class="edge">
<title>node9&#45;&gt;node0</title>
<path fill="none" stroke="blue" d="M1444.91,-25.49C1381.02,-16.38 1277.72,-4 1188,-4 546,-4 546,-4 546,-4 460.83,-4 363.44,-15.15 299.12,-24.08"/>
<polygon fill="blue" stroke="blue" points="298.5,-20.63 289.09,-25.49 299.48,-27.56 298.5,-20.63"/>
</g>
</g>
</svg>
