<?xml version="1.0" encoding="UTF-8" standalone="no"?>
<!DOCTYPE svg PUBLIC "-//W3C//DTD SVG 1.1//EN"
 "http://www.w3.org/Graphics/SVG/1.1/DTD/svg11.dtd">
<!-- Generated by graphviz version 2.43.0 (0)
 -->
<!-- Title: G Pages: 1 -->
<svg width="3467pt" height="571pt"
 viewBox="0.00 0.00 2496.00 411.00" xmlns="http://www.w3.org/2000/svg" xmlns:xlink="http://www.w3.org/1999/xlink">
<g id="graph0" class="graph" transform="scale(0.72 0.72) rotate(0) translate(4 407)">
<title>G</title>
<polygon fill="white" stroke="transparent" points="-4,4 -4,-407 2492,-407 2492,4 -4,4"/>
<!-- node1 -->
<g id="node1" class="node">
<title>node1</title>
<path fill="#9d4cef" stroke="black" d="M12,-193.5C12,-193.5 82,-193.5 82,-193.5 88,-193.5 94,-199.5 94,-205.5 94,-205.5 94,-227.5 94,-227.5 94,-233.5 88,-239.5 82,-239.5 82,-239.5 12,-239.5 12,-239.5 6,-239.5 0,-233.5 0,-227.5 0,-227.5 0,-205.5 0,-205.5 0,-199.5 6,-193.5 12,-193.5"/>
<text text-anchor="middle" x="47" y="-224.3" font-family="Times,serif" font-size="14.00">index 1</text>
<polyline fill="none" stroke="black" points="0,-216.5 94,-216.5 "/>
<text text-anchor="middle" x="47" y="-201.3" font-family="Times,serif" font-size="14.00">value Pony</text>
</g>
<!-- node2 -->
<g id="node2" class="node">
<title>node2</title>
<path fill="#9d4cef" stroke="black" d="M158,-226.5C158,-226.5 291,-226.5 291,-226.5 297,-226.5 303,-232.5 303,-238.5 303,-238.5 303,-260.5 303,-260.5 303,-266.5 297,-272.5 291,-272.5 291,-272.5 158,-272.5 158,-272.5 152,-272.5 146,-266.5 146,-260.5 146,-260.5 146,-238.5 146,-238.5 146,-232.5 152,-226.5 158,-226.5"/>
<text text-anchor="middle" x="224.5" y="-257.3" font-family="Times,serif" font-size="14.00">index 2</text>
<polyline fill="none" stroke="black" points="146,-249.5 303,-249.5 "/>
<text text-anchor="middle" x="224.5" y="-234.3" font-family="Times,serif" font-size="14.00">value the best pony</text>
</g>
<!-- node1&#45;&gt;node2 -->
<g id="edge1" class="edge">
<title>node1&#45;&gt;node2</title>
<path fill="none" stroke="blue" d="M94.11,-225.17C106.98,-227.59 121.41,-230.3 135.84,-233.02"/>
<polygon fill="blue" stroke="blue" points="135.33,-236.48 145.8,-234.89 136.62,-229.6 135.33,-236.48"/>
</g>
<!-- node19 -->
<g id="node19" class="node">
<title>node19</title>
<path fill="#9d4cef" stroke="black" d="M142,-161.5C142,-161.5 307,-161.5 307,-161.5 313,-161.5 319,-167.5 319,-173.5 319,-173.5 319,-195.5 319,-195.5 319,-201.5 313,-207.5 307,-207.5 307,-207.5 142,-207.5 142,-207.5 136,-207.5 130,-201.5 130,-195.5 130,-195.5 130,-173.5 130,-173.5 130,-167.5 136,-161.5 142,-161.5"/>
<text text-anchor="middle" x="224.5" y="-192.3" font-family="Times,serif" font-size="14.00">index 19</text>
<polyline fill="none" stroke="black" points="130,-184.5 319,-184.5 "/>
<text text-anchor="middle" x="224.5" y="-169.3" font-family="Times,serif" font-size="14.00">value the Lord Of Chaos</text>
</g>
<!-- node1&#45;&gt;node19 -->
<g id="edge18" class="edge">
<title>node1&#45;&gt;node19</title>
<path fill="none" stroke="blue" d="M94.11,-208.09C102.15,-206.63 110.8,-205.05 119.68,-203.43"/>
<polygon fill="blue" stroke="blue" points="120.57,-206.83 129.78,-201.59 119.32,-199.94 120.57,-206.83"/>
</g>
<!-- node3 -->
<g id="node3" class="node">
<title>node3</title>
<path fill="#9d4cef" stroke="black" d="M399.5,-291.5C399.5,-291.5 504.5,-291.5 504.5,-291.5 510.5,-291.5 516.5,-297.5 516.5,-303.5 516.5,-303.5 516.5,-325.5 516.5,-325.5 516.5,-331.5 510.5,-337.5 504.5,-337.5 504.5,-337.5 399.5,-337.5 399.5,-337.5 393.5,-337.5 387.5,-331.5 387.5,-325.5 387.5,-325.5 387.5,-303.5 387.5,-303.5 387.5,-297.5 393.5,-291.5 399.5,-291.5"/>
<text text-anchor="middle" x="452" y="-322.3" font-family="Times,serif" font-size="14.00">index 3</text>
<polyline fill="none" stroke="black" points="387.5,-314.5 516.5,-314.5 "/>
<text text-anchor="middle" x="452" y="-299.3" font-family="Times,serif" font-size="14.00">value got wings</text>
</g>
<!-- node2&#45;&gt;node3 -->
<g id="edge2" class="edge">
<title>node2&#45;&gt;node3</title>
<path fill="none" stroke="blue" d="M303.1,-271.87C327.29,-278.84 353.87,-286.5 377.75,-293.39"/>
<polygon fill="blue" stroke="blue" points="376.88,-296.78 387.45,-296.18 378.81,-290.05 376.88,-296.78"/>
</g>
<!-- node6 -->
<g id="node6" class="node">
<title>node6</title>
<path fill="#9d4cef" stroke="black" d="M367,-226.5C367,-226.5 537,-226.5 537,-226.5 543,-226.5 549,-232.5 549,-238.5 549,-238.5 549,-260.5 549,-260.5 549,-266.5 543,-272.5 537,-272.5 537,-272.5 367,-272.5 367,-272.5 361,-272.5 355,-266.5 355,-260.5 355,-260.5 355,-238.5 355,-238.5 355,-232.5 361,-226.5 367,-226.5"/>
<text text-anchor="middle" x="452" y="-257.3" font-family="Times,serif" font-size="14.00">index 6</text>
<polyline fill="none" stroke="black" points="355,-249.5 549,-249.5 "/>
<text text-anchor="middle" x="452" y="-234.3" font-family="Times,serif" font-size="14.00">value the strongest pony</text>
</g>
<!-- node2&#45;&gt;node6 -->
<g id="edge5" class="edge">
<title>node2&#45;&gt;node6</title>
<path fill="none" stroke="blue" d="M303.1,-249.5C316.53,-249.5 330.7,-249.5 344.74,-249.5"/>
<polygon fill="blue" stroke="blue" points="344.92,-253 354.92,-249.5 344.92,-246 344.92,-253"/>
</g>
<!-- node4 -->
<g id="node4" class="node">
<title>node4</title>
<path fill="#9d4cef" stroke="black" d="M656,-356.5C656,-356.5 792,-356.5 792,-356.5 798,-356.5 804,-362.5 804,-368.5 804,-368.5 804,-390.5 804,-390.5 804,-396.5 798,-402.5 792,-402.5 792,-402.5 656,-402.5 656,-402.5 650,-402.5 644,-396.5 644,-390.5 644,-390.5 644,-368.5 644,-368.5 644,-362.5 650,-356.5 656,-356.5"/>
<text text-anchor="middle" x="724" y="-387.3" font-family="Times,serif" font-size="14.00">index 4</text>
<polyline fill="none" stroke="black" points="644,-379.5 804,-379.5 "/>
<text text-anchor="middle" x="724" y="-364.3" font-family="Times,serif" font-size="14.00">value Derpy Hooves</text>
</g>
<!-- node3&#45;&gt;node4 -->
<g id="edge3" class="edge">
<title>node3&#45;&gt;node4</title>
<path fill="none" stroke="blue" d="M516.73,-330.67C538.38,-336.1 562.72,-342.13 585,-347.5 600.74,-351.29 617.51,-355.25 633.74,-359.04"/>
<polygon fill="blue" stroke="blue" points="633.23,-362.51 643.77,-361.37 634.82,-355.7 633.23,-362.51"/>
</g>
<!-- node5 -->
<g id="node5" class="node">
<title>node5</title>
<path fill="#9d4cef" stroke="black" d="M646.5,-291.5C646.5,-291.5 801.5,-291.5 801.5,-291.5 807.5,-291.5 813.5,-297.5 813.5,-303.5 813.5,-303.5 813.5,-325.5 813.5,-325.5 813.5,-331.5 807.5,-337.5 801.5,-337.5 801.5,-337.5 646.5,-337.5 646.5,-337.5 640.5,-337.5 634.5,-331.5 634.5,-325.5 634.5,-325.5 634.5,-303.5 634.5,-303.5 634.5,-297.5 640.5,-291.5 646.5,-291.5"/>
<text text-anchor="middle" x="724" y="-322.3" font-family="Times,serif" font-size="14.00">index 5</text>
<polyline fill="none" stroke="black" points="634.5,-314.5 813.5,-314.5 "/>
<text text-anchor="middle" x="724" y="-299.3" font-family="Times,serif" font-size="14.00">value Sunset Shimmer</text>
</g>
<!-- node3&#45;&gt;node5 -->
<g id="edge4" class="edge">
<title>node3&#45;&gt;node5</title>
<path fill="none" stroke="blue" d="M516.64,-314.5C548.78,-314.5 588.49,-314.5 624.46,-314.5"/>
<polygon fill="blue" stroke="blue" points="624.5,-318 634.5,-314.5 624.5,-311 624.5,-318"/>
</g>
<!-- node7 -->
<g id="node7" class="node">
<title>node7</title>
<path fill="#9d4cef" stroke="black" d="M672,-226.5C672,-226.5 776,-226.5 776,-226.5 782,-226.5 788,-232.5 788,-238.5 788,-238.5 788,-260.5 788,-260.5 788,-266.5 782,-272.5 776,-272.5 776,-272.5 672,-272.5 672,-272.5 666,-272.5 660,-266.5 660,-260.5 660,-260.5 660,-238.5 660,-238.5 660,-232.5 666,-226.5 672,-226.5"/>
<text text-anchor="middle" x="724" y="-257.3" font-family="Times,serif" font-size="14.00">index 7</text>
<polyline fill="none" stroke="black" points="660,-249.5 788,-249.5 "/>
<text text-anchor="middle" x="724" y="-234.3" font-family="Times,serif" font-size="14.00">value Applejack</text>
</g>
<!-- node6&#45;&gt;node7 -->
<g id="edge6" class="edge">
<title>node6&#45;&gt;node7</title>
<path fill="none" stroke="blue" d="M549.33,-249.5C582.26,-249.5 618.54,-249.5 649.39,-249.5"/>
<polygon fill="blue" stroke="blue" points="649.63,-253 659.63,-249.5 649.63,-246 649.63,-253"/>
</g>
<!-- node8 -->
<g id="node8" class="node">
<title>node8</title>
<path fill="#9d4cef" stroke="black" d="M597,-161.5C597,-161.5 851,-161.5 851,-161.5 857,-161.5 863,-167.5 863,-173.5 863,-173.5 863,-195.5 863,-195.5 863,-201.5 857,-207.5 851,-207.5 851,-207.5 597,-207.5 597,-207.5 591,-207.5 585,-201.5 585,-195.5 585,-195.5 585,-173.5 585,-173.5 585,-167.5 591,-161.5 597,-161.5"/>
<text text-anchor="middle" x="724" y="-192.3" font-family="Times,serif" font-size="14.00">index 8</text>
<polyline fill="none" stroke="black" points="585,-184.5 863,-184.5 "/>
<text text-anchor="middle" x="724" y="-169.3" font-family="Times,serif" font-size="14.00">value the shyest and most kind pony</text>
</g>
<!-- node6&#45;&gt;node8 -->
<g id="edge7" class="edge">
<title>node6&#45;&gt;node8</title>
<path fill="none" stroke="blue" d="M547.81,-226.48C560.31,-223.45 572.96,-220.4 585,-217.5 595.27,-215.03 605.97,-212.46 616.67,-209.89"/>
<polygon fill="blue" stroke="blue" points="617.57,-213.28 626.48,-207.54 615.94,-206.47 617.57,-213.28"/>
</g>
<!-- node9 -->
<g id="node9" class="node">
<title>node9</title>
<path fill="#9d4cef" stroke="black" d="M986,-193.5C986,-193.5 1096,-193.5 1096,-193.5 1102,-193.5 1108,-199.5 1108,-205.5 1108,-205.5 1108,-227.5 1108,-227.5 1108,-233.5 1102,-239.5 1096,-239.5 1096,-239.5 986,-239.5 986,-239.5 980,-239.5 974,-233.5 974,-227.5 974,-227.5 974,-205.5 974,-205.5 974,-199.5 980,-193.5 986,-193.5"/>
<text text-anchor="middle" x="1041" y="-224.3" font-family="Times,serif" font-size="14.00">index 9</text>
<polyline fill="none" stroke="black" points="974,-216.5 1108,-216.5 "/>
<text text-anchor="middle" x="1041" y="-201.3" font-family="Times,serif" font-size="14.00">value Fluttershy</text>
</g>
<!-- node8&#45;&gt;node9 -->
<g id="edge8" class="edge">
<title>node8&#45;&gt;node9</title>
<path fill="none" stroke="blue" d="M863.16,-198.54C897.62,-202.04 933.33,-205.66 963.56,-208.73"/>
<polygon fill="blue" stroke="blue" points="963.29,-212.23 973.59,-209.75 964,-205.26 963.29,-212.23"/>
</g>
<!-- node10 -->
<g id="node10" class="node">
<title>node10</title>
<path fill="#9d4cef" stroke="black" d="M911,-128.5C911,-128.5 1171,-128.5 1171,-128.5 1177,-128.5 1183,-134.5 1183,-140.5 1183,-140.5 1183,-162.5 1183,-162.5 1183,-168.5 1177,-174.5 1171,-174.5 1171,-174.5 911,-174.5 911,-174.5 905,-174.5 899,-168.5 899,-162.5 899,-162.5 899,-140.5 899,-140.5 899,-134.5 905,-128.5 911,-128.5"/>
<text text-anchor="middle" x="1041" y="-159.3" font-family="Times,serif" font-size="14.00">index 10</text>
<polyline fill="none" stroke="black" points="899,-151.5 1183,-151.5 "/>
<text text-anchor="middle" x="1041" y="-136.3" font-family="Times,serif" font-size="14.00">value the craziest and funniesst pony</text>
</g>
<!-- node8&#45;&gt;node10 -->
<g id="edge9" class="edge">
<title>node8&#45;&gt;node10</title>
<path fill="none" stroke="blue" d="M863.16,-170.03C871.6,-169.14 880.11,-168.25 888.6,-167.36"/>
<polygon fill="blue" stroke="blue" points="888.96,-170.84 898.54,-166.32 888.23,-163.88 888.96,-170.84"/>
</g>
<!-- node11 -->
<g id="node11" class="node">
<title>node11</title>
<path fill="#9d4cef" stroke="black" d="M1316.5,-161.5C1316.5,-161.5 1423.5,-161.5 1423.5,-161.5 1429.5,-161.5 1435.5,-167.5 1435.5,-173.5 1435.5,-173.5 1435.5,-195.5 1435.5,-195.5 1435.5,-201.5 1429.5,-207.5 1423.5,-207.5 1423.5,-207.5 1316.5,-207.5 1316.5,-207.5 1310.5,-207.5 1304.5,-201.5 1304.5,-195.5 1304.5,-195.5 1304.5,-173.5 1304.5,-173.5 1304.5,-167.5 1310.5,-161.5 1316.5,-161.5"/>
<text text-anchor="middle" x="1370" y="-192.3" font-family="Times,serif" font-size="14.00">index 11</text>
<polyline fill="none" stroke="black" points="1304.5,-184.5 1435.5,-184.5 "/>
<text text-anchor="middle" x="1370" y="-169.3" font-family="Times,serif" font-size="14.00">value Pinkie Pie</text>
</g>
<!-- node10&#45;&gt;node11 -->
<g id="edge10" class="edge">
<title>node10&#45;&gt;node11</title>
<path fill="none" stroke="blue" d="M1183.05,-165.73C1221.27,-169.59 1261.16,-173.62 1294.15,-176.95"/>
<polygon fill="blue" stroke="blue" points="1293.86,-180.43 1304.16,-177.96 1294.56,-173.47 1293.86,-180.43"/>
</g>
<!-- node12 -->
<g id="node12" class="node">
<title>node12</title>
<path fill="#9d4cef" stroke="black" d="M1231,-96.5C1231,-96.5 1509,-96.5 1509,-96.5 1515,-96.5 1521,-102.5 1521,-108.5 1521,-108.5 1521,-130.5 1521,-130.5 1521,-136.5 1515,-142.5 1509,-142.5 1509,-142.5 1231,-142.5 1231,-142.5 1225,-142.5 1219,-136.5 1219,-130.5 1219,-130.5 1219,-108.5 1219,-108.5 1219,-102.5 1225,-96.5 1231,-96.5"/>
<text text-anchor="middle" x="1370" y="-127.3" font-family="Times,serif" font-size="14.00">index 12</text>
<polyline fill="none" stroke="black" points="1219,-119.5 1521,-119.5 "/>
<text text-anchor="middle" x="1370" y="-104.3" font-family="Times,serif" font-size="14.00">value the fastest and most faithful pony</text>
</g>
<!-- node10&#45;&gt;node12 -->
<g id="edge11" class="edge">
<title>node10&#45;&gt;node12</title>
<path fill="none" stroke="blue" d="M1183.05,-137.7C1191.56,-136.86 1200.15,-136.02 1208.73,-135.18"/>
<polygon fill="blue" stroke="blue" points="1209.19,-138.66 1218.8,-134.2 1208.5,-131.69 1209.19,-138.66"/>
</g>
<!-- node13 -->
<g id="node13" class="node">
<title>node13</title>
<path fill="#9d4cef" stroke="black" d="M1667.5,-129.5C1667.5,-129.5 1804.5,-129.5 1804.5,-129.5 1810.5,-129.5 1816.5,-135.5 1816.5,-141.5 1816.5,-141.5 1816.5,-163.5 1816.5,-163.5 1816.5,-169.5 1810.5,-175.5 1804.5,-175.5 1804.5,-175.5 1667.5,-175.5 1667.5,-175.5 1661.5,-175.5 1655.5,-169.5 1655.5,-163.5 1655.5,-163.5 1655.5,-141.5 1655.5,-141.5 1655.5,-135.5 1661.5,-129.5 1667.5,-129.5"/>
<text text-anchor="middle" x="1736" y="-160.3" font-family="Times,serif" font-size="14.00">index 13</text>
<polyline fill="none" stroke="black" points="1655.5,-152.5 1816.5,-152.5 "/>
<text text-anchor="middle" x="1736" y="-137.3" font-family="Times,serif" font-size="14.00">value Rainbow Dash</text>
</g>
<!-- node12&#45;&gt;node13 -->
<g id="edge12" class="edge">
<title>node12&#45;&gt;node13</title>
<path fill="none" stroke="blue" d="M1521.15,-133.11C1563.22,-136.93 1607.63,-140.95 1645.01,-144.34"/>
<polygon fill="blue" stroke="blue" points="1645.09,-147.86 1655.36,-145.28 1645.72,-140.89 1645.09,-147.86"/>
</g>
<!-- node14 -->
<g id="node14" class="node">
<title>node14</title>
<path fill="#9d4cef" stroke="black" d="M1569,-64.5C1569,-64.5 1903,-64.5 1903,-64.5 1909,-64.5 1915,-70.5 1915,-76.5 1915,-76.5 1915,-98.5 1915,-98.5 1915,-104.5 1909,-110.5 1903,-110.5 1903,-110.5 1569,-110.5 1569,-110.5 1563,-110.5 1557,-104.5 1557,-98.5 1557,-98.5 1557,-76.5 1557,-76.5 1557,-70.5 1563,-64.5 1569,-64.5"/>
<text text-anchor="middle" x="1736" y="-95.3" font-family="Times,serif" font-size="14.00">index 14</text>
<polyline fill="none" stroke="black" points="1557,-87.5 1915,-87.5 "/>
<text text-anchor="middle" x="1736" y="-72.3" font-family="Times,serif" font-size="14.00">value the most beautiful and most selfless pony</text>
</g>
<!-- node12&#45;&gt;node14 -->
<g id="edge13" class="edge">
<title>node12&#45;&gt;node14</title>
<path fill="none" stroke="blue" d="M1521.15,-106.3C1529.6,-105.56 1538.14,-104.81 1546.7,-104.05"/>
<polygon fill="blue" stroke="blue" points="1547.09,-107.53 1556.75,-103.17 1546.48,-100.56 1547.09,-107.53"/>
</g>
<!-- node15 -->
<g id="node15" class="node">
<title>node15</title>
<path fill="#9d4cef" stroke="black" d="M2073,-97.5C2073,-97.5 2153,-97.5 2153,-97.5 2159,-97.5 2165,-103.5 2165,-109.5 2165,-109.5 2165,-131.5 2165,-131.5 2165,-137.5 2159,-143.5 2153,-143.5 2153,-143.5 2073,-143.5 2073,-143.5 2067,-143.5 2061,-137.5 2061,-131.5 2061,-131.5 2061,-109.5 2061,-109.5 2061,-103.5 2067,-97.5 2073,-97.5"/>
<text text-anchor="middle" x="2113" y="-128.3" font-family="Times,serif" font-size="14.00">index 15</text>
<polyline fill="none" stroke="black" points="2061,-120.5 2165,-120.5 "/>
<text text-anchor="middle" x="2113" y="-105.3" font-family="Times,serif" font-size="14.00">value Rarity</text>
</g>
<!-- node14&#45;&gt;node15 -->
<g id="edge14" class="edge">
<title>node14&#45;&gt;node15</title>
<path fill="none" stroke="blue" d="M1915.17,-103.18C1963.88,-107.47 2013.43,-111.83 2050.63,-115.1"/>
<polygon fill="blue" stroke="blue" points="2050.52,-118.6 2060.79,-115.99 2051.13,-111.63 2050.52,-118.6"/>
</g>
<!-- node16 -->
<g id="node16" class="node">
<title>node16</title>
<path fill="#9d4cef" stroke="black" d="M1963,-32.5C1963,-32.5 2263,-32.5 2263,-32.5 2269,-32.5 2275,-38.5 2275,-44.5 2275,-44.5 2275,-66.5 2275,-66.5 2275,-72.5 2269,-78.5 2263,-78.5 2263,-78.5 1963,-78.5 1963,-78.5 1957,-78.5 1951,-72.5 1951,-66.5 1951,-66.5 1951,-44.5 1951,-44.5 1951,-38.5 1957,-32.5 1963,-32.5"/>
<text text-anchor="middle" x="2113" y="-63.3" font-family="Times,serif" font-size="14.00">index 16</text>
<polyline fill="none" stroke="black" points="1951,-55.5 2275,-55.5 "/>
<text text-anchor="middle" x="2113" y="-40.3" font-family="Times,serif" font-size="14.00">value greatest and the most powerful pony</text>
</g>
<!-- node14&#45;&gt;node16 -->
<g id="edge15" class="edge">
<title>node14&#45;&gt;node16</title>
<path fill="none" stroke="blue" d="M1915.17,-72.3C1923.72,-71.57 1932.31,-70.83 1940.84,-70.11"/>
<polygon fill="blue" stroke="blue" points="1941.17,-73.59 1950.84,-69.25 1940.58,-66.62 1941.17,-73.59"/>
</g>
<!-- node17 -->
<g id="node17" class="node">
<title>node17</title>
<path fill="#9d4cef" stroke="black" d="M2361,-65.5C2361,-65.5 2438,-65.5 2438,-65.5 2444,-65.5 2450,-71.5 2450,-77.5 2450,-77.5 2450,-99.5 2450,-99.5 2450,-105.5 2444,-111.5 2438,-111.5 2438,-111.5 2361,-111.5 2361,-111.5 2355,-111.5 2349,-105.5 2349,-99.5 2349,-99.5 2349,-77.5 2349,-77.5 2349,-71.5 2355,-65.5 2361,-65.5"/>
<text text-anchor="middle" x="2399.5" y="-96.3" font-family="Times,serif" font-size="14.00">index 17</text>
<polyline fill="none" stroke="black" points="2349,-88.5 2450,-88.5 "/>
<text text-anchor="middle" x="2399.5" y="-73.3" font-family="Times,serif" font-size="14.00">value Trixie</text>
</g>
<!-- node16&#45;&gt;node17 -->
<g id="edge16" class="edge">
<title>node16&#45;&gt;node17</title>
<path fill="none" stroke="blue" d="M2275.37,-74.22C2297.91,-76.83 2319.8,-79.37 2338.71,-81.56"/>
<polygon fill="blue" stroke="blue" points="2338.56,-85.07 2348.9,-82.75 2339.37,-78.12 2338.56,-85.07"/>
</g>
<!-- node18 -->
<g id="node18" class="node">
<title>node18</title>
<path fill="#9d4cef" stroke="black" d="M2323,-0.5C2323,-0.5 2476,-0.5 2476,-0.5 2482,-0.5 2488,-6.5 2488,-12.5 2488,-12.5 2488,-34.5 2488,-34.5 2488,-40.5 2482,-46.5 2476,-46.5 2476,-46.5 2323,-46.5 2323,-46.5 2317,-46.5 2311,-40.5 2311,-34.5 2311,-34.5 2311,-12.5 2311,-12.5 2311,-6.5 2317,-0.5 2323,-0.5"/>
<text text-anchor="middle" x="2399.5" y="-31.3" font-family="Times,serif" font-size="14.00">index 18</text>
<polyline fill="none" stroke="black" points="2311,-23.5 2488,-23.5 "/>
<text text-anchor="middle" x="2399.5" y="-8.3" font-family="Times,serif" font-size="14.00">value Twilight Sparkle</text>
</g>
<!-- node16&#45;&gt;node18 -->
<g id="edge17" class="edge">
<title>node16&#45;&gt;node18</title>
<path fill="none" stroke="blue" d="M2275.37,-37.35C2284.02,-36.38 2292.57,-35.41 2300.9,-34.48"/>
<polygon fill="blue" stroke="blue" points="2301.38,-37.95 2310.93,-33.35 2300.6,-30.99 2301.38,-37.95"/>
</g>
<!-- node20 -->
<g id="node20" class="node">
<title>node20</title>
<path fill="#9d4cef" stroke="black" d="M407,-161.5C407,-161.5 497,-161.5 497,-161.5 503,-161.5 509,-167.5 509,-173.5 509,-173.5 509,-195.5 509,-195.5 509,-201.5 503,-207.5 497,-207.5 497,-207.5 407,-207.5 407,-207.5 401,-207.5 395,-201.5 395,-195.5 395,-195.5 395,-173.5 395,-173.5 395,-167.5 401,-161.5 407,-161.5"/>
<text text-anchor="middle" x="452" y="-192.3" font-family="Times,serif" font-size="14.00">index 20</text>
<polyline fill="none" stroke="black" points="395,-184.5 509,-184.5 "/>
<text text-anchor="middle" x="452" y="-169.3" font-family="Times,serif" font-size="14.00">value Discord</text>
</g>
<!-- node19&#45;&gt;node20 -->
<g id="edge19" class="edge">
<title>node19&#45;&gt;node20</title>
<path fill="none" stroke="blue" d="M319.17,-184.5C341.12,-184.5 364.06,-184.5 384.53,-184.5"/>
<polygon fill="blue" stroke="blue" points="384.68,-188 394.68,-184.5 384.68,-181 384.68,-188"/>
</g>
<!-- node21 -->
<g id="node21" class="node">
<title>node21</title>
<path fill="#9d4cef" stroke="black" d="M403,-96.5C403,-96.5 501,-96.5 501,-96.5 507,-96.5 513,-102.5 513,-108.5 513,-108.5 513,-130.5 513,-130.5 513,-136.5 507,-142.5 501,-142.5 501,-142.5 403,-142.5 403,-142.5 397,-142.5 391,-136.5 391,-130.5 391,-130.5 391,-108.5 391,-108.5 391,-102.5 397,-96.5 403,-96.5"/>
<text text-anchor="middle" x="452" y="-127.3" font-family="Times,serif" font-size="14.00">index 21</text>
<polyline fill="none" stroke="black" points="391,-119.5 513,-119.5 "/>
<text text-anchor="middle" x="452" y="-104.3" font-family="Times,serif" font-size="14.00">value a dragon</text>
</g>
<!-- node19&#45;&gt;node21 -->
<g id="edge20" class="edge">
<title>node19&#45;&gt;node21</title>
<path fill="none" stroke="blue" d="M305.32,-161.49C330.04,-154.37 357.08,-146.57 381.07,-139.66"/>
<polygon fill="blue" stroke="blue" points="382.17,-142.98 390.81,-136.85 380.23,-136.26 382.17,-142.98"/>
</g>
<!-- node22 -->
<g id="node22" class="node">
<title>node22</title>
<path fill="#9d4cef" stroke="black" d="M686.5,-96.5C686.5,-96.5 761.5,-96.5 761.5,-96.5 767.5,-96.5 773.5,-102.5 773.5,-108.5 773.5,-108.5 773.5,-130.5 773.5,-130.5 773.5,-136.5 767.5,-142.5 761.5,-142.5 761.5,-142.5 686.5,-142.5 686.5,-142.5 680.5,-142.5 674.5,-136.5 674.5,-130.5 674.5,-130.5 674.5,-108.5 674.5,-108.5 674.5,-102.5 680.5,-96.5 686.5,-96.5"/>
<text text-anchor="middle" x="724" y="-127.3" font-family="Times,serif" font-size="14.00">index 22</text>
<polyline fill="none" stroke="black" points="674.5,-119.5 773.5,-119.5 "/>
<text text-anchor="middle" x="724" y="-104.3" font-family="Times,serif" font-size="14.00">value Spike</text>
</g>
<!-- node21&#45;&gt;node22 -->
<g id="edge21" class="edge">
<title>node21&#45;&gt;node22</title>
<path fill="none" stroke="blue" d="M513.26,-119.5C558.24,-119.5 619.4,-119.5 664.07,-119.5"/>
<polygon fill="blue" stroke="blue" points="664.19,-123 674.19,-119.5 664.19,-116 664.19,-123"/>
</g>
<!-- node23 -->
<g id="node23" class="node">
<title>node23</title>
<path fill="#9d4cef" stroke="black" d="M679,-31.5C679,-31.5 769,-31.5 769,-31.5 775,-31.5 781,-37.5 781,-43.5 781,-43.5 781,-65.5 781,-65.5 781,-71.5 775,-77.5 769,-77.5 769,-77.5 679,-77.5 679,-77.5 673,-77.5 667,-71.5 667,-65.5 667,-65.5 667,-43.5 667,-43.5 667,-37.5 673,-31.5 679,-31.5"/>
<text text-anchor="middle" x="724" y="-62.3" font-family="Times,serif" font-size="14.00">index 23</text>
<polyline fill="none" stroke="black" points="667,-54.5 781,-54.5 "/>
<text text-anchor="middle" x="724" y="-39.3" font-family="Times,serif" font-size="14.00">value Nobody</text>
</g>
<!-- node21&#45;&gt;node23 -->
<g id="edge22" class="edge">
<title>node21&#45;&gt;node23</title>
<path fill="none" stroke="blue" d="M513.07,-104.25C535.61,-98.59 561.46,-92.17 585,-86.5 608.43,-80.85 634.15,-74.84 656.96,-69.57"/>
<polygon fill="blue" stroke="blue" points="657.93,-72.94 666.88,-67.28 656.35,-66.12 657.93,-72.94"/>
</g>
</g>
</svg>
