<?xml version="1.0" encoding="UTF-8" standalone="no"?>
<!DOCTYPE svg PUBLIC "-//W3C//DTD SVG 1.1//EN"
 "http://www.w3.org/Graphics/SVG/1.1/DTD/svg11.dtd">
<!-- Generated by graphviz version 2.43.0 (0)
 -->
<!-- Title: G Pages: 1 -->
<svg width="2874pt" height="1040pt"
 viewBox="0.00 0.00 2069.00 749.00" xmlns="http://www.w3.org/2000/svg" xmlns:xlink="http://www.w3.org/1999/xlink">
<g id="graph0" class="graph" transform="scale(0.72 0.72) rotate(0) translate(4 745)">
<title>G</title>
<polygon fill="white" stroke="transparent" points="-4,4 -4,-745 2065,-745 2065,4 -4,4"/>
<!-- node1 -->
<g id="node1" class="node">
<title>node1</title>
<path fill="#9d4cef" stroke="black" d="M704,-704.5C704,-704.5 843,-704.5 843,-704.5 849,-704.5 855,-710.5 855,-716.5 855,-716.5 855,-728.5 855,-728.5 855,-734.5 849,-740.5 843,-740.5 843,-740.5 704,-740.5 704,-740.5 698,-740.5 692,-734.5 692,-728.5 692,-728.5 692,-716.5 692,-716.5 692,-710.5 698,-704.5 704,-704.5"/>
<text text-anchor="middle" x="726.5" y="-718.8" font-family="Times,serif" font-size="14.00">index 1</text>
<polyline fill="none" stroke="black" points="761,-704.5 761,-740.5 "/>
<text text-anchor="middle" x="808" y="-718.8" font-family="Times,serif" font-size="14.00">value pony</text>
</g>
<!-- node2 -->
<g id="node2" class="node">
<title>node2</title>
<path fill="#9d4cef" stroke="black" d="M540.5,-616.5C540.5,-616.5 742.5,-616.5 742.5,-616.5 748.5,-616.5 754.5,-622.5 754.5,-628.5 754.5,-628.5 754.5,-640.5 754.5,-640.5 754.5,-646.5 748.5,-652.5 742.5,-652.5 742.5,-652.5 540.5,-652.5 540.5,-652.5 534.5,-652.5 528.5,-646.5 528.5,-640.5 528.5,-640.5 528.5,-628.5 528.5,-628.5 528.5,-622.5 534.5,-616.5 540.5,-616.5"/>
<text text-anchor="middle" x="563" y="-630.8" font-family="Times,serif" font-size="14.00">index 2</text>
<polyline fill="none" stroke="black" points="597.5,-616.5 597.5,-652.5 "/>
<text text-anchor="middle" x="676" y="-630.8" font-family="Times,serif" font-size="14.00">value the best pony</text>
</g>
<!-- node1&#45;&gt;node2 -->
<g id="edge1" class="edge">
<title>node1&#45;&gt;node2</title>
<path fill="none" stroke="blue" d="M747.11,-704.3C726.78,-691.06 698.5,-672.64 676.33,-658.19"/>
<polygon fill="blue" stroke="blue" points="678.14,-655.19 667.85,-652.67 674.32,-661.06 678.14,-655.19"/>
<text text-anchor="middle" x="728" y="-674.8" font-family="Times,serif" font-size="14.00">yes</text>
</g>
<!-- node19 -->
<g id="node19" class="node">
<title>node19</title>
<path fill="#9d4cef" stroke="black" d="M826,-616.5C826,-616.5 1069,-616.5 1069,-616.5 1075,-616.5 1081,-622.5 1081,-628.5 1081,-628.5 1081,-640.5 1081,-640.5 1081,-646.5 1075,-652.5 1069,-652.5 1069,-652.5 826,-652.5 826,-652.5 820,-652.5 814,-646.5 814,-640.5 814,-640.5 814,-628.5 814,-628.5 814,-622.5 820,-616.5 826,-616.5"/>
<text text-anchor="middle" x="853" y="-630.8" font-family="Times,serif" font-size="14.00">index 19</text>
<polyline fill="none" stroke="black" points="892,-616.5 892,-652.5 "/>
<text text-anchor="middle" x="986.5" y="-630.8" font-family="Times,serif" font-size="14.00">value the Lord Of Chaos</text>
</g>
<!-- node1&#45;&gt;node19 -->
<g id="edge18" class="edge">
<title>node1&#45;&gt;node19</title>
<path fill="none" stroke="blue" d="M808.29,-704.3C835.77,-690.72 874.26,-671.7 903.81,-657.09"/>
<polygon fill="blue" stroke="blue" points="905.65,-660.09 913.06,-652.52 902.55,-653.81 905.65,-660.09"/>
<text text-anchor="middle" x="880.5" y="-674.8" font-family="Times,serif" font-size="14.00">no</text>
</g>
<!-- node3 -->
<g id="node3" class="node">
<title>node3</title>
<path fill="#9d4cef" stroke="black" d="M284.5,-528.5C284.5,-528.5 458.5,-528.5 458.5,-528.5 464.5,-528.5 470.5,-534.5 470.5,-540.5 470.5,-540.5 470.5,-552.5 470.5,-552.5 470.5,-558.5 464.5,-564.5 458.5,-564.5 458.5,-564.5 284.5,-564.5 284.5,-564.5 278.5,-564.5 272.5,-558.5 272.5,-552.5 272.5,-552.5 272.5,-540.5 272.5,-540.5 272.5,-534.5 278.5,-528.5 284.5,-528.5"/>
<text text-anchor="middle" x="307" y="-542.8" font-family="Times,serif" font-size="14.00">index 3</text>
<polyline fill="none" stroke="black" points="341.5,-528.5 341.5,-564.5 "/>
<text text-anchor="middle" x="406" y="-542.8" font-family="Times,serif" font-size="14.00">value got wings</text>
</g>
<!-- node2&#45;&gt;node3 -->
<g id="edge2" class="edge">
<title>node2&#45;&gt;node3</title>
<path fill="none" stroke="blue" d="M587.83,-616.41C543.76,-602.37 481.23,-582.45 434.73,-567.64"/>
<polygon fill="blue" stroke="blue" points="435.66,-564.26 425.06,-564.56 433.53,-570.93 435.66,-564.26"/>
<text text-anchor="middle" x="536" y="-586.8" font-family="Times,serif" font-size="14.00">yes</text>
</g>
<!-- node6 -->
<g id="node6" class="node">
<title>node6</title>
<path fill="#9d4cef" stroke="black" d="M522,-528.5C522,-528.5 761,-528.5 761,-528.5 767,-528.5 773,-534.5 773,-540.5 773,-540.5 773,-552.5 773,-552.5 773,-558.5 767,-564.5 761,-564.5 761,-564.5 522,-564.5 522,-564.5 516,-564.5 510,-558.5 510,-552.5 510,-552.5 510,-540.5 510,-540.5 510,-534.5 516,-528.5 522,-528.5"/>
<text text-anchor="middle" x="544.5" y="-542.8" font-family="Times,serif" font-size="14.00">index 6</text>
<polyline fill="none" stroke="black" points="579,-528.5 579,-564.5 "/>
<text text-anchor="middle" x="676" y="-542.8" font-family="Times,serif" font-size="14.00">value the strongest pony</text>
</g>
<!-- node2&#45;&gt;node6 -->
<g id="edge5" class="edge">
<title>node2&#45;&gt;node6</title>
<path fill="none" stroke="blue" d="M641.5,-616.1C641.5,-604.25 641.5,-588.32 641.5,-574.79"/>
<polygon fill="blue" stroke="blue" points="645,-574.58 641.5,-564.58 638,-574.58 645,-574.58"/>
<text text-anchor="middle" x="650.5" y="-586.8" font-family="Times,serif" font-size="14.00">no</text>
</g>
<!-- node4 -->
<g id="node4" class="node">
<title>node4</title>
<path fill="#9d4cef" stroke="black" d="M12,-440.5C12,-440.5 217,-440.5 217,-440.5 223,-440.5 229,-446.5 229,-452.5 229,-452.5 229,-464.5 229,-464.5 229,-470.5 223,-476.5 217,-476.5 217,-476.5 12,-476.5 12,-476.5 6,-476.5 0,-470.5 0,-464.5 0,-464.5 0,-452.5 0,-452.5 0,-446.5 6,-440.5 12,-440.5"/>
<text text-anchor="middle" x="34.5" y="-454.8" font-family="Times,serif" font-size="14.00">index 4</text>
<polyline fill="none" stroke="black" points="69,-440.5 69,-476.5 "/>
<text text-anchor="middle" x="149" y="-454.8" font-family="Times,serif" font-size="14.00">value Derpy Hooves</text>
</g>
<!-- node3&#45;&gt;node4 -->
<g id="edge3" class="edge">
<title>node3&#45;&gt;node4</title>
<path fill="none" stroke="blue" d="M320.42,-528.41C278.64,-514.43 219.45,-494.62 175.24,-479.83"/>
<polygon fill="blue" stroke="blue" points="176.08,-476.42 165.49,-476.56 173.86,-483.05 176.08,-476.42"/>
<text text-anchor="middle" x="271" y="-498.8" font-family="Times,serif" font-size="14.00">yes</text>
</g>
<!-- node5 -->
<g id="node5" class="node">
<title>node5</title>
<path fill="#9d4cef" stroke="black" d="M259.5,-440.5C259.5,-440.5 483.5,-440.5 483.5,-440.5 489.5,-440.5 495.5,-446.5 495.5,-452.5 495.5,-452.5 495.5,-464.5 495.5,-464.5 495.5,-470.5 489.5,-476.5 483.5,-476.5 483.5,-476.5 259.5,-476.5 259.5,-476.5 253.5,-476.5 247.5,-470.5 247.5,-464.5 247.5,-464.5 247.5,-452.5 247.5,-452.5 247.5,-446.5 253.5,-440.5 259.5,-440.5"/>
<text text-anchor="middle" x="282" y="-454.8" font-family="Times,serif" font-size="14.00">index 5</text>
<polyline fill="none" stroke="black" points="316.5,-440.5 316.5,-476.5 "/>
<text text-anchor="middle" x="406" y="-454.8" font-family="Times,serif" font-size="14.00">value Sunset Shimmer</text>
</g>
<!-- node3&#45;&gt;node5 -->
<g id="edge4" class="edge">
<title>node3&#45;&gt;node5</title>
<path fill="none" stroke="blue" d="M371.5,-528.1C371.5,-516.25 371.5,-500.32 371.5,-486.79"/>
<polygon fill="blue" stroke="blue" points="375,-486.58 371.5,-476.58 368,-486.58 375,-486.58"/>
<text text-anchor="middle" x="380.5" y="-498.8" font-family="Times,serif" font-size="14.00">no</text>
</g>
<!-- node7 -->
<g id="node7" class="node">
<title>node7</title>
<path fill="#9d4cef" stroke="black" d="M526,-440.5C526,-440.5 699,-440.5 699,-440.5 705,-440.5 711,-446.5 711,-452.5 711,-452.5 711,-464.5 711,-464.5 711,-470.5 705,-476.5 699,-476.5 699,-476.5 526,-476.5 526,-476.5 520,-476.5 514,-470.5 514,-464.5 514,-464.5 514,-452.5 514,-452.5 514,-446.5 520,-440.5 526,-440.5"/>
<text text-anchor="middle" x="548.5" y="-454.8" font-family="Times,serif" font-size="14.00">index 7</text>
<polyline fill="none" stroke="black" points="583,-440.5 583,-476.5 "/>
<text text-anchor="middle" x="647" y="-454.8" font-family="Times,serif" font-size="14.00">value Applejack</text>
</g>
<!-- node6&#45;&gt;node7 -->
<g id="edge6" class="edge">
<title>node6&#45;&gt;node7</title>
<path fill="none" stroke="blue" d="M635.63,-528.1C631.6,-516.13 626.16,-500 621.57,-486.39"/>
<polygon fill="blue" stroke="blue" points="624.77,-484.94 618.26,-476.58 618.14,-487.18 624.77,-484.94"/>
<text text-anchor="middle" x="642" y="-498.8" font-family="Times,serif" font-size="14.00">yes</text>
</g>
<!-- node8 -->
<g id="node8" class="node">
<title>node8</title>
<path fill="#9d4cef" stroke="black" d="M741,-440.5C741,-440.5 1064,-440.5 1064,-440.5 1070,-440.5 1076,-446.5 1076,-452.5 1076,-452.5 1076,-464.5 1076,-464.5 1076,-470.5 1070,-476.5 1064,-476.5 1064,-476.5 741,-476.5 741,-476.5 735,-476.5 729,-470.5 729,-464.5 729,-464.5 729,-452.5 729,-452.5 729,-446.5 735,-440.5 741,-440.5"/>
<text text-anchor="middle" x="763.5" y="-454.8" font-family="Times,serif" font-size="14.00">index 8</text>
<polyline fill="none" stroke="black" points="798,-440.5 798,-476.5 "/>
<text text-anchor="middle" x="937" y="-454.8" font-family="Times,serif" font-size="14.00">value the shyest and most kind pony</text>
</g>
<!-- node6&#45;&gt;node8 -->
<g id="edge7" class="edge">
<title>node6&#45;&gt;node8</title>
<path fill="none" stroke="blue" d="M693.38,-528.41C735.9,-514.4 796.17,-494.54 841.09,-479.73"/>
<polygon fill="blue" stroke="blue" points="842.32,-483.02 850.72,-476.56 840.13,-476.37 842.32,-483.02"/>
<text text-anchor="middle" x="797.5" y="-498.8" font-family="Times,serif" font-size="14.00">no</text>
</g>
<!-- node9 -->
<g id="node9" class="node">
<title>node9</title>
<path fill="#9d4cef" stroke="black" d="M726,-352.5C726,-352.5 905,-352.5 905,-352.5 911,-352.5 917,-358.5 917,-364.5 917,-364.5 917,-376.5 917,-376.5 917,-382.5 911,-388.5 905,-388.5 905,-388.5 726,-388.5 726,-388.5 720,-388.5 714,-382.5 714,-376.5 714,-376.5 714,-364.5 714,-364.5 714,-358.5 720,-352.5 726,-352.5"/>
<text text-anchor="middle" x="748.5" y="-366.8" font-family="Times,serif" font-size="14.00">index 9</text>
<polyline fill="none" stroke="black" points="783,-352.5 783,-388.5 "/>
<text text-anchor="middle" x="850" y="-366.8" font-family="Times,serif" font-size="14.00">value Fluttershy</text>
</g>
<!-- node8&#45;&gt;node9 -->
<g id="edge8" class="edge">
<title>node8&#45;&gt;node9</title>
<path fill="none" stroke="blue" d="M884.89,-440.1C871.96,-427.31 854.21,-409.77 839.91,-395.63"/>
<polygon fill="blue" stroke="blue" points="842.36,-393.12 832.78,-388.58 837.43,-398.1 842.36,-393.12"/>
<text text-anchor="middle" x="877" y="-410.8" font-family="Times,serif" font-size="14.00">yes</text>
</g>
<!-- node10 -->
<g id="node10" class="node">
<title>node10</title>
<path fill="#9d4cef" stroke="black" d="M947.5,-352.5C947.5,-352.5 1285.5,-352.5 1285.5,-352.5 1291.5,-352.5 1297.5,-358.5 1297.5,-364.5 1297.5,-364.5 1297.5,-376.5 1297.5,-376.5 1297.5,-382.5 1291.5,-388.5 1285.5,-388.5 1285.5,-388.5 947.5,-388.5 947.5,-388.5 941.5,-388.5 935.5,-382.5 935.5,-376.5 935.5,-376.5 935.5,-364.5 935.5,-364.5 935.5,-358.5 941.5,-352.5 947.5,-352.5"/>
<text text-anchor="middle" x="974.5" y="-366.8" font-family="Times,serif" font-size="14.00">index 10</text>
<polyline fill="none" stroke="black" points="1013.5,-352.5 1013.5,-388.5 "/>
<text text-anchor="middle" x="1155.5" y="-366.8" font-family="Times,serif" font-size="14.00">value the craziest and funniesst pony</text>
</g>
<!-- node8&#45;&gt;node10 -->
<g id="edge9" class="edge">
<title>node8&#45;&gt;node10</title>
<path fill="none" stroke="blue" d="M945.04,-440.41C979.39,-426.6 1027.87,-407.12 1064.52,-392.39"/>
<polygon fill="blue" stroke="blue" points="1066.07,-395.54 1074.05,-388.56 1063.46,-389.04 1066.07,-395.54"/>
<text text-anchor="middle" x="1031.5" y="-410.8" font-family="Times,serif" font-size="14.00">no</text>
</g>
<!-- node11 -->
<g id="node11" class="node">
<title>node11</title>
<path fill="#9d4cef" stroke="black" d="M934,-264.5C934,-264.5 1119,-264.5 1119,-264.5 1125,-264.5 1131,-270.5 1131,-276.5 1131,-276.5 1131,-288.5 1131,-288.5 1131,-294.5 1125,-300.5 1119,-300.5 1119,-300.5 934,-300.5 934,-300.5 928,-300.5 922,-294.5 922,-288.5 922,-288.5 922,-276.5 922,-276.5 922,-270.5 928,-264.5 934,-264.5"/>
<text text-anchor="middle" x="961" y="-278.8" font-family="Times,serif" font-size="14.00">index 11</text>
<polyline fill="none" stroke="black" points="1000,-264.5 1000,-300.5 "/>
<text text-anchor="middle" x="1065.5" y="-278.8" font-family="Times,serif" font-size="14.00">value Pinkie Pie</text>
</g>
<!-- node10&#45;&gt;node11 -->
<g id="edge10" class="edge">
<title>node10&#45;&gt;node11</title>
<path fill="none" stroke="blue" d="M1098.29,-352.1C1084.9,-339.31 1066.55,-321.77 1051.75,-307.63"/>
<polygon fill="blue" stroke="blue" points="1054.03,-304.96 1044.38,-300.58 1049.19,-310.02 1054.03,-304.96"/>
<text text-anchor="middle" x="1090" y="-322.8" font-family="Times,serif" font-size="14.00">yes</text>
</g>
<!-- node12 -->
<g id="node12" class="node">
<title>node12</title>
<path fill="#9d4cef" stroke="black" d="M1161.5,-264.5C1161.5,-264.5 1517.5,-264.5 1517.5,-264.5 1523.5,-264.5 1529.5,-270.5 1529.5,-276.5 1529.5,-276.5 1529.5,-288.5 1529.5,-288.5 1529.5,-294.5 1523.5,-300.5 1517.5,-300.5 1517.5,-300.5 1161.5,-300.5 1161.5,-300.5 1155.5,-300.5 1149.5,-294.5 1149.5,-288.5 1149.5,-288.5 1149.5,-276.5 1149.5,-276.5 1149.5,-270.5 1155.5,-264.5 1161.5,-264.5"/>
<text text-anchor="middle" x="1188.5" y="-278.8" font-family="Times,serif" font-size="14.00">index 12</text>
<polyline fill="none" stroke="black" points="1227.5,-264.5 1227.5,-300.5 "/>
<text text-anchor="middle" x="1378.5" y="-278.8" font-family="Times,serif" font-size="14.00">value the fastest and most faithful pony</text>
</g>
<!-- node10&#45;&gt;node12 -->
<g id="edge11" class="edge">
<title>node10&#45;&gt;node12</title>
<path fill="none" stroke="blue" d="M1160.82,-352.41C1196.77,-338.54 1247.57,-318.95 1285.82,-304.2"/>
<polygon fill="blue" stroke="blue" points="1287.19,-307.43 1295.26,-300.56 1284.67,-300.89 1287.19,-307.43"/>
<text text-anchor="middle" x="1250.5" y="-322.8" font-family="Times,serif" font-size="14.00">no</text>
</g>
<!-- node13 -->
<g id="node13" class="node">
<title>node13</title>
<path fill="#9d4cef" stroke="black" d="M1131,-176.5C1131,-176.5 1346,-176.5 1346,-176.5 1352,-176.5 1358,-182.5 1358,-188.5 1358,-188.5 1358,-200.5 1358,-200.5 1358,-206.5 1352,-212.5 1346,-212.5 1346,-212.5 1131,-212.5 1131,-212.5 1125,-212.5 1119,-206.5 1119,-200.5 1119,-200.5 1119,-188.5 1119,-188.5 1119,-182.5 1125,-176.5 1131,-176.5"/>
<text text-anchor="middle" x="1158" y="-190.8" font-family="Times,serif" font-size="14.00">index 13</text>
<polyline fill="none" stroke="black" points="1197,-176.5 1197,-212.5 "/>
<text text-anchor="middle" x="1277.5" y="-190.8" font-family="Times,serif" font-size="14.00">value Rainbow Dash</text>
</g>
<!-- node12&#45;&gt;node13 -->
<g id="edge12" class="edge">
<title>node12&#45;&gt;node13</title>
<path fill="none" stroke="blue" d="M1319.06,-264.1C1303.9,-251.19 1283.06,-233.45 1266.38,-219.24"/>
<polygon fill="blue" stroke="blue" points="1268.45,-216.4 1258.56,-212.58 1263.91,-221.73 1268.45,-216.4"/>
<text text-anchor="middle" x="1308" y="-234.8" font-family="Times,serif" font-size="14.00">yes</text>
</g>
<!-- node14 -->
<g id="node14" class="node">
<title>node14</title>
<path fill="#9d4cef" stroke="black" d="M1388.5,-176.5C1388.5,-176.5 1800.5,-176.5 1800.5,-176.5 1806.5,-176.5 1812.5,-182.5 1812.5,-188.5 1812.5,-188.5 1812.5,-200.5 1812.5,-200.5 1812.5,-206.5 1806.5,-212.5 1800.5,-212.5 1800.5,-212.5 1388.5,-212.5 1388.5,-212.5 1382.5,-212.5 1376.5,-206.5 1376.5,-200.5 1376.5,-200.5 1376.5,-188.5 1376.5,-188.5 1376.5,-182.5 1382.5,-176.5 1388.5,-176.5"/>
<text text-anchor="middle" x="1415.5" y="-190.8" font-family="Times,serif" font-size="14.00">index 14</text>
<polyline fill="none" stroke="black" points="1454.5,-176.5 1454.5,-212.5 "/>
<text text-anchor="middle" x="1633.5" y="-190.8" font-family="Times,serif" font-size="14.00">value the most beautiful and most selfless pony</text>
</g>
<!-- node12&#45;&gt;node14 -->
<g id="edge13" class="edge">
<title>node12&#45;&gt;node14</title>
<path fill="none" stroke="blue" d="M1390.18,-264.41C1431.64,-250.43 1490.37,-230.62 1534.23,-215.83"/>
<polygon fill="blue" stroke="blue" points="1535.55,-219.07 1543.91,-212.56 1533.32,-212.44 1535.55,-219.07"/>
<text text-anchor="middle" x="1490.5" y="-234.8" font-family="Times,serif" font-size="14.00">no</text>
</g>
<!-- node15 -->
<g id="node15" class="node">
<title>node15</title>
<path fill="#9d4cef" stroke="black" d="M1426.5,-88.5C1426.5,-88.5 1584.5,-88.5 1584.5,-88.5 1590.5,-88.5 1596.5,-94.5 1596.5,-100.5 1596.5,-100.5 1596.5,-112.5 1596.5,-112.5 1596.5,-118.5 1590.5,-124.5 1584.5,-124.5 1584.5,-124.5 1426.5,-124.5 1426.5,-124.5 1420.5,-124.5 1414.5,-118.5 1414.5,-112.5 1414.5,-112.5 1414.5,-100.5 1414.5,-100.5 1414.5,-94.5 1420.5,-88.5 1426.5,-88.5"/>
<text text-anchor="middle" x="1453.5" y="-102.8" font-family="Times,serif" font-size="14.00">index 15</text>
<polyline fill="none" stroke="black" points="1492.5,-88.5 1492.5,-124.5 "/>
<text text-anchor="middle" x="1544.5" y="-102.8" font-family="Times,serif" font-size="14.00">value Rarity</text>
</g>
<!-- node14&#45;&gt;node15 -->
<g id="edge14" class="edge">
<title>node14&#45;&gt;node15</title>
<path fill="none" stroke="blue" d="M1576.49,-176.1C1563.25,-163.31 1545.1,-145.77 1530.47,-131.63"/>
<polygon fill="blue" stroke="blue" points="1532.8,-129.02 1523.18,-124.58 1527.94,-134.05 1532.8,-129.02"/>
<text text-anchor="middle" x="1567" y="-146.8" font-family="Times,serif" font-size="14.00">yes</text>
</g>
<!-- node16 -->
<g id="node16" class="node">
<title>node16</title>
<path fill="#9d4cef" stroke="black" d="M1626.5,-88.5C1626.5,-88.5 2004.5,-88.5 2004.5,-88.5 2010.5,-88.5 2016.5,-94.5 2016.5,-100.5 2016.5,-100.5 2016.5,-112.5 2016.5,-112.5 2016.5,-118.5 2010.5,-124.5 2004.5,-124.5 2004.5,-124.5 1626.5,-124.5 1626.5,-124.5 1620.5,-124.5 1614.5,-118.5 1614.5,-112.5 1614.5,-112.5 1614.5,-100.5 1614.5,-100.5 1614.5,-94.5 1620.5,-88.5 1626.5,-88.5"/>
<text text-anchor="middle" x="1653.5" y="-102.8" font-family="Times,serif" font-size="14.00">index 16</text>
<polyline fill="none" stroke="black" points="1692.5,-88.5 1692.5,-124.5 "/>
<text text-anchor="middle" x="1854.5" y="-102.8" font-family="Times,serif" font-size="14.00">value greatest and the most powerful pony</text>
</g>
<!-- node14&#45;&gt;node16 -->
<g id="edge15" class="edge">
<title>node14&#45;&gt;node16</title>
<path fill="none" stroke="blue" d="M1638.43,-176.41C1674.05,-162.54 1724.4,-142.95 1762.3,-128.2"/>
<polygon fill="blue" stroke="blue" points="1763.61,-131.45 1771.66,-124.56 1761.07,-124.93 1763.61,-131.45"/>
<text text-anchor="middle" x="1726.5" y="-146.8" font-family="Times,serif" font-size="14.00">no</text>
</g>
<!-- node17 -->
<g id="node17" class="node">
<title>node17</title>
<path fill="#9d4cef" stroke="black" d="M1621,-0.5C1621,-0.5 1776,-0.5 1776,-0.5 1782,-0.5 1788,-6.5 1788,-12.5 1788,-12.5 1788,-24.5 1788,-24.5 1788,-30.5 1782,-36.5 1776,-36.5 1776,-36.5 1621,-36.5 1621,-36.5 1615,-36.5 1609,-30.5 1609,-24.5 1609,-24.5 1609,-12.5 1609,-12.5 1609,-6.5 1615,-0.5 1621,-0.5"/>
<text text-anchor="middle" x="1648" y="-14.8" font-family="Times,serif" font-size="14.00">index 17</text>
<polyline fill="none" stroke="black" points="1687,-0.5 1687,-36.5 "/>
<text text-anchor="middle" x="1737.5" y="-14.8" font-family="Times,serif" font-size="14.00">value Trixie</text>
</g>
<!-- node16&#45;&gt;node17 -->
<g id="edge16" class="edge">
<title>node16&#45;&gt;node17</title>
<path fill="none" stroke="blue" d="M1792.1,-88.3C1774.33,-75.24 1749.69,-57.13 1730.15,-42.77"/>
<polygon fill="blue" stroke="blue" points="1731.99,-39.77 1721.85,-36.67 1727.84,-45.41 1731.99,-39.77"/>
<text text-anchor="middle" x="1776" y="-58.8" font-family="Times,serif" font-size="14.00">yes</text>
</g>
<!-- node18 -->
<g id="node18" class="node">
<title>node18</title>
<path fill="#9d4cef" stroke="black" d="M1818,-0.5C1818,-0.5 2049,-0.5 2049,-0.5 2055,-0.5 2061,-6.5 2061,-12.5 2061,-12.5 2061,-24.5 2061,-24.5 2061,-30.5 2055,-36.5 2049,-36.5 2049,-36.5 1818,-36.5 1818,-36.5 1812,-36.5 1806,-30.5 1806,-24.5 1806,-24.5 1806,-12.5 1806,-12.5 1806,-6.5 1812,-0.5 1818,-0.5"/>
<text text-anchor="middle" x="1845" y="-14.8" font-family="Times,serif" font-size="14.00">index 18</text>
<polyline fill="none" stroke="black" points="1884,-0.5 1884,-36.5 "/>
<text text-anchor="middle" x="1972.5" y="-14.8" font-family="Times,serif" font-size="14.00">value Twilight Sparkle</text>
</g>
<!-- node16&#45;&gt;node18 -->
<g id="edge17" class="edge">
<title>node16&#45;&gt;node18</title>
<path fill="none" stroke="blue" d="M1839.1,-88.3C1857.1,-75.18 1882.09,-56.97 1901.84,-42.57"/>
<polygon fill="blue" stroke="blue" points="1903.93,-45.39 1909.95,-36.67 1899.8,-39.73 1903.93,-45.39"/>
<text text-anchor="middle" x="1890.5" y="-58.8" font-family="Times,serif" font-size="14.00">no</text>
</g>
<!-- node20 -->
<g id="node20" class="node">
<title>node20</title>
<path fill="#9d4cef" stroke="black" d="M863.5,-528.5C863.5,-528.5 1031.5,-528.5 1031.5,-528.5 1037.5,-528.5 1043.5,-534.5 1043.5,-540.5 1043.5,-540.5 1043.5,-552.5 1043.5,-552.5 1043.5,-558.5 1037.5,-564.5 1031.5,-564.5 1031.5,-564.5 863.5,-564.5 863.5,-564.5 857.5,-564.5 851.5,-558.5 851.5,-552.5 851.5,-552.5 851.5,-540.5 851.5,-540.5 851.5,-534.5 857.5,-528.5 863.5,-528.5"/>
<text text-anchor="middle" x="890.5" y="-542.8" font-family="Times,serif" font-size="14.00">index 20</text>
<polyline fill="none" stroke="black" points="929.5,-528.5 929.5,-564.5 "/>
<text text-anchor="middle" x="986.5" y="-542.8" font-family="Times,serif" font-size="14.00">value Discord</text>
</g>
<!-- node19&#45;&gt;node20 -->
<g id="edge19" class="edge">
<title>node19&#45;&gt;node20</title>
<path fill="none" stroke="blue" d="M947.5,-616.1C947.5,-604.25 947.5,-588.32 947.5,-574.79"/>
<polygon fill="blue" stroke="blue" points="951,-574.58 947.5,-564.58 944,-574.58 951,-574.58"/>
<text text-anchor="middle" x="960" y="-586.8" font-family="Times,serif" font-size="14.00">yes</text>
</g>
<!-- node21 -->
<g id="node21" class="node">
<title>node21</title>
<path fill="#9d4cef" stroke="black" d="M1094.5,-528.5C1094.5,-528.5 1270.5,-528.5 1270.5,-528.5 1276.5,-528.5 1282.5,-534.5 1282.5,-540.5 1282.5,-540.5 1282.5,-552.5 1282.5,-552.5 1282.5,-558.5 1276.5,-564.5 1270.5,-564.5 1270.5,-564.5 1094.5,-564.5 1094.5,-564.5 1088.5,-564.5 1082.5,-558.5 1082.5,-552.5 1082.5,-552.5 1082.5,-540.5 1082.5,-540.5 1082.5,-534.5 1088.5,-528.5 1094.5,-528.5"/>
<text text-anchor="middle" x="1121.5" y="-542.8" font-family="Times,serif" font-size="14.00">index 21</text>
<polyline fill="none" stroke="black" points="1160.5,-528.5 1160.5,-564.5 "/>
<text text-anchor="middle" x="1221.5" y="-542.8" font-family="Times,serif" font-size="14.00">value a dragon</text>
</g>
<!-- node19&#45;&gt;node21 -->
<g id="edge20" class="edge">
<title>node19&#45;&gt;node21</title>
<path fill="none" stroke="blue" d="M994.21,-616.41C1032.25,-602.48 1086.08,-582.79 1126.45,-568.01"/>
<polygon fill="blue" stroke="blue" points="1127.69,-571.28 1135.88,-564.56 1125.29,-564.71 1127.69,-571.28"/>
<text text-anchor="middle" x="1088.5" y="-586.8" font-family="Times,serif" font-size="14.00">no</text>
</g>
<!-- node22 -->
<g id="node22" class="node">
<title>node22</title>
<path fill="#9d4cef" stroke="black" d="M1106,-440.5C1106,-440.5 1259,-440.5 1259,-440.5 1265,-440.5 1271,-446.5 1271,-452.5 1271,-452.5 1271,-464.5 1271,-464.5 1271,-470.5 1265,-476.5 1259,-476.5 1259,-476.5 1106,-476.5 1106,-476.5 1100,-476.5 1094,-470.5 1094,-464.5 1094,-464.5 1094,-452.5 1094,-452.5 1094,-446.5 1100,-440.5 1106,-440.5"/>
<text text-anchor="middle" x="1133" y="-454.8" font-family="Times,serif" font-size="14.00">index 22</text>
<polyline fill="none" stroke="black" points="1172,-440.5 1172,-476.5 "/>
<text text-anchor="middle" x="1221.5" y="-454.8" font-family="Times,serif" font-size="14.00">value Spike</text>
</g>
<!-- node21&#45;&gt;node22 -->
<g id="edge21" class="edge">
<title>node21&#45;&gt;node22</title>
<path fill="none" stroke="blue" d="M1182.5,-528.1C1182.5,-516.25 1182.5,-500.32 1182.5,-486.79"/>
<polygon fill="blue" stroke="blue" points="1186,-486.58 1182.5,-476.58 1179,-486.58 1186,-486.58"/>
<text text-anchor="middle" x="1195" y="-498.8" font-family="Times,serif" font-size="14.00">yes</text>
</g>
<!-- node23 -->
<g id="node23" class="node">
<title>node23</title>
<path fill="#9d4cef" stroke="black" d="M1301.5,-440.5C1301.5,-440.5 1469.5,-440.5 1469.5,-440.5 1475.5,-440.5 1481.5,-446.5 1481.5,-452.5 1481.5,-452.5 1481.5,-464.5 1481.5,-464.5 1481.5,-470.5 1475.5,-476.5 1469.5,-476.5 1469.5,-476.5 1301.5,-476.5 1301.5,-476.5 1295.5,-476.5 1289.5,-470.5 1289.5,-464.5 1289.5,-464.5 1289.5,-452.5 1289.5,-452.5 1289.5,-446.5 1295.5,-440.5 1301.5,-440.5"/>
<text text-anchor="middle" x="1328.5" y="-454.8" font-family="Times,serif" font-size="14.00">index 23</text>
<polyline fill="none" stroke="black" points="1367.5,-440.5 1367.5,-476.5 "/>
<text text-anchor="middle" x="1424.5" y="-454.8" font-family="Times,serif" font-size="14.00">value Nobody</text>
</g>
<!-- node21&#45;&gt;node23 -->
<g id="edge22" class="edge">
<title>node21&#45;&gt;node23</title>
<path fill="none" stroke="blue" d="M1223.09,-528.3C1255.56,-514.55 1301.22,-495.2 1335.87,-480.53"/>
<polygon fill="blue" stroke="blue" points="1337.48,-483.64 1345.32,-476.52 1334.75,-477.2 1337.48,-483.64"/>
<text text-anchor="middle" x="1305.5" y="-498.8" font-family="Times,serif" font-size="14.00">no</text>
</g>
</g>
</svg>
