<?xml version="1.0" encoding="UTF-8" standalone="no"?>
<!DOCTYPE svg PUBLIC "-//W3C//DTD SVG 1.1//EN"
 "http://www.w3.org/Graphics/SVG/1.1/DTD/svg11.dtd">
<!-- Generated by graphviz version 2.43.0 (0)
 -->
<!-- Title: G Pages: 1 -->
<svg width="1136pt" height="772pt"
 viewBox="0.00 0.00 818.00 556.00" xmlns="http://www.w3.org/2000/svg" xmlns:xlink="http://www.w3.org/1999/xlink">
<g id="graph0" class="graph" transform="scale(0.72 0.72) rotate(0) translate(4 552)">
<title>G</title>
<polygon fill="white" stroke="transparent" points="-4,4 -4,-552 814,-552 814,4 -4,4"/>
<!-- node1 -->
<g id="node1" class="node">
<title>node1</title>
<path fill="#9d4cef" stroke="black" d="M588,-511.5C588,-511.5 618,-511.5 618,-511.5 624,-511.5 630,-517.5 630,-523.5 630,-523.5 630,-535.5 630,-535.5 630,-541.5 624,-547.5 618,-547.5 618,-547.5 588,-547.5 588,-547.5 582,-547.5 576,-541.5 576,-535.5 576,-535.5 576,-523.5 576,-523.5 576,-517.5 582,-511.5 588,-511.5"/>
<text text-anchor="middle" x="603" y="-525.8" font-family="Times,serif" font-size="14.00">*</text>
</g>
<!-- node2 -->
<g id="node2" class="node">
<title>node2</title>
<path fill="#9d4cef" stroke="black" d="M516,-438.5C516,-438.5 546,-438.5 546,-438.5 552,-438.5 558,-444.5 558,-450.5 558,-450.5 558,-462.5 558,-462.5 558,-468.5 552,-474.5 546,-474.5 546,-474.5 516,-474.5 516,-474.5 510,-474.5 504,-468.5 504,-462.5 504,-462.5 504,-450.5 504,-450.5 504,-444.5 510,-438.5 516,-438.5"/>
<text text-anchor="middle" x="531" y="-452.8" font-family="Times,serif" font-size="14.00">+</text>
</g>
<!-- node1&#45;&gt;node2 -->
<g id="edge1" class="edge">
<title>node1&#45;&gt;node2</title>
<path fill="none" stroke="black" d="M585.57,-511.31C576.55,-502.42 565.39,-491.41 555.51,-481.67"/>
<polygon fill="black" stroke="black" points="557.85,-479.06 548.27,-474.53 552.93,-484.04 557.85,-479.06"/>
</g>
<!-- node27 -->
<g id="node27" class="node">
<title>node27</title>
<path fill="#9d4cef" stroke="black" d="M624,-438.5C624,-438.5 654,-438.5 654,-438.5 660,-438.5 666,-444.5 666,-450.5 666,-450.5 666,-462.5 666,-462.5 666,-468.5 660,-474.5 654,-474.5 654,-474.5 624,-474.5 624,-474.5 618,-474.5 612,-468.5 612,-462.5 612,-462.5 612,-450.5 612,-450.5 612,-444.5 618,-438.5 624,-438.5"/>
<text text-anchor="middle" x="639" y="-452.8" font-family="Times,serif" font-size="14.00">^</text>
</g>
<!-- node1&#45;&gt;node27 -->
<g id="edge26" class="edge">
<title>node1&#45;&gt;node27</title>
<path fill="none" stroke="black" d="M611.71,-511.31C615.92,-503.03 621.05,-492.91 625.72,-483.69"/>
<polygon fill="black" stroke="black" points="628.96,-485.03 630.37,-474.53 622.72,-481.87 628.96,-485.03"/>
</g>
<!-- node3 -->
<g id="node3" class="node">
<title>node3</title>
<path fill="#9d4cef" stroke="black" d="M300,-365.5C300,-365.5 330,-365.5 330,-365.5 336,-365.5 342,-371.5 342,-377.5 342,-377.5 342,-389.5 342,-389.5 342,-395.5 336,-401.5 330,-401.5 330,-401.5 300,-401.5 300,-401.5 294,-401.5 288,-395.5 288,-389.5 288,-389.5 288,-377.5 288,-377.5 288,-371.5 294,-365.5 300,-365.5"/>
<text text-anchor="middle" x="315" y="-379.8" font-family="Times,serif" font-size="14.00">*</text>
</g>
<!-- node2&#45;&gt;node3 -->
<g id="edge2" class="edge">
<title>node2&#45;&gt;node3</title>
<path fill="none" stroke="black" d="M503.64,-446.51C465.1,-433.84 394.71,-410.7 351.67,-396.55"/>
<polygon fill="black" stroke="black" points="352.73,-393.22 342.13,-393.42 350.54,-399.87 352.73,-393.22"/>
</g>
<!-- node14 -->
<g id="node14" class="node">
<title>node14</title>
<path fill="#9d4cef" stroke="black" d="M516,-365.5C516,-365.5 546,-365.5 546,-365.5 552,-365.5 558,-371.5 558,-377.5 558,-377.5 558,-389.5 558,-389.5 558,-395.5 552,-401.5 546,-401.5 546,-401.5 516,-401.5 516,-401.5 510,-401.5 504,-395.5 504,-389.5 504,-389.5 504,-377.5 504,-377.5 504,-371.5 510,-365.5 516,-365.5"/>
<text text-anchor="middle" x="531" y="-379.8" font-family="Times,serif" font-size="14.00">/</text>
</g>
<!-- node2&#45;&gt;node14 -->
<g id="edge13" class="edge">
<title>node2&#45;&gt;node14</title>
<path fill="none" stroke="black" d="M531,-438.31C531,-430.29 531,-420.55 531,-411.57"/>
<polygon fill="black" stroke="black" points="534.5,-411.53 531,-401.53 527.5,-411.53 534.5,-411.53"/>
</g>
<!-- node4 -->
<g id="node4" class="node">
<title>node4</title>
<path fill="#9d4cef" stroke="black" d="M192,-292.5C192,-292.5 222,-292.5 222,-292.5 228,-292.5 234,-298.5 234,-304.5 234,-304.5 234,-316.5 234,-316.5 234,-322.5 228,-328.5 222,-328.5 222,-328.5 192,-328.5 192,-328.5 186,-328.5 180,-322.5 180,-316.5 180,-316.5 180,-304.5 180,-304.5 180,-298.5 186,-292.5 192,-292.5"/>
<text text-anchor="middle" x="207" y="-306.8" font-family="Times,serif" font-size="14.00">*</text>
</g>
<!-- node3&#45;&gt;node4 -->
<g id="edge3" class="edge">
<title>node3&#45;&gt;node4</title>
<path fill="none" stroke="black" d="M289.13,-365.49C274.94,-356.17 257.16,-344.47 241.77,-334.36"/>
<polygon fill="black" stroke="black" points="243.31,-331.18 233.03,-328.61 239.47,-337.03 243.31,-331.18"/>
</g>
<!-- node11 -->
<g id="node11" class="node">
<title>node11</title>
<path fill="#9d4cef" stroke="black" d="M300,-292.5C300,-292.5 330,-292.5 330,-292.5 336,-292.5 342,-298.5 342,-304.5 342,-304.5 342,-316.5 342,-316.5 342,-322.5 336,-328.5 330,-328.5 330,-328.5 300,-328.5 300,-328.5 294,-328.5 288,-322.5 288,-316.5 288,-316.5 288,-304.5 288,-304.5 288,-298.5 294,-292.5 300,-292.5"/>
<text text-anchor="middle" x="315" y="-306.8" font-family="Times,serif" font-size="14.00">l</text>
</g>
<!-- node3&#45;&gt;node11 -->
<g id="edge10" class="edge">
<title>node3&#45;&gt;node11</title>
<path fill="none" stroke="black" d="M315,-365.31C315,-357.29 315,-347.55 315,-338.57"/>
<polygon fill="black" stroke="black" points="318.5,-338.53 315,-328.53 311.5,-338.53 318.5,-338.53"/>
</g>
<!-- node5 -->
<g id="node5" class="node">
<title>node5</title>
<path fill="#9d4cef" stroke="black" d="M84,-219.5C84,-219.5 114,-219.5 114,-219.5 120,-219.5 126,-225.5 126,-231.5 126,-231.5 126,-243.5 126,-243.5 126,-249.5 120,-255.5 114,-255.5 114,-255.5 84,-255.5 84,-255.5 78,-255.5 72,-249.5 72,-243.5 72,-243.5 72,-231.5 72,-231.5 72,-225.5 78,-219.5 84,-219.5"/>
<text text-anchor="middle" x="99" y="-233.8" font-family="Times,serif" font-size="14.00">*</text>
</g>
<!-- node4&#45;&gt;node5 -->
<g id="edge4" class="edge">
<title>node4&#45;&gt;node5</title>
<path fill="none" stroke="black" d="M181.13,-292.49C166.94,-283.17 149.16,-271.47 133.77,-261.36"/>
<polygon fill="black" stroke="black" points="135.31,-258.18 125.03,-255.61 131.47,-264.03 135.31,-258.18"/>
</g>
<!-- node8 -->
<g id="node8" class="node">
<title>node8</title>
<path fill="#9d4cef" stroke="black" d="M192,-219.5C192,-219.5 222,-219.5 222,-219.5 228,-219.5 234,-225.5 234,-231.5 234,-231.5 234,-243.5 234,-243.5 234,-249.5 228,-255.5 222,-255.5 222,-255.5 192,-255.5 192,-255.5 186,-255.5 180,-249.5 180,-243.5 180,-243.5 180,-231.5 180,-231.5 180,-225.5 186,-219.5 192,-219.5"/>
<text text-anchor="middle" x="207" y="-233.8" font-family="Times,serif" font-size="14.00">^</text>
</g>
<!-- node4&#45;&gt;node8 -->
<g id="edge7" class="edge">
<title>node4&#45;&gt;node8</title>
<path fill="none" stroke="black" d="M207,-292.31C207,-284.29 207,-274.55 207,-265.57"/>
<polygon fill="black" stroke="black" points="210.5,-265.53 207,-255.53 203.5,-265.53 210.5,-265.53"/>
</g>
<!-- node6 -->
<g id="node6" class="node">
<title>node6</title>
<path fill="#9d4cef" stroke="black" d="M12,-146.5C12,-146.5 42,-146.5 42,-146.5 48,-146.5 54,-152.5 54,-158.5 54,-158.5 54,-170.5 54,-170.5 54,-176.5 48,-182.5 42,-182.5 42,-182.5 12,-182.5 12,-182.5 6,-182.5 0,-176.5 0,-170.5 0,-170.5 0,-158.5 0,-158.5 0,-152.5 6,-146.5 12,-146.5"/>
<text text-anchor="middle" x="27" y="-160.8" font-family="Times,serif" font-size="14.00">2.00</text>
</g>
<!-- node5&#45;&gt;node6 -->
<g id="edge5" class="edge">
<title>node5&#45;&gt;node6</title>
<path fill="none" stroke="black" d="M81.57,-219.31C72.55,-210.42 61.39,-199.41 51.51,-189.67"/>
<polygon fill="black" stroke="black" points="53.85,-187.06 44.27,-182.53 48.93,-192.04 53.85,-187.06"/>
</g>
<!-- node7 -->
<g id="node7" class="node">
<title>node7</title>
<path fill="#9d4cef" stroke="black" d="M84,-146.5C84,-146.5 114,-146.5 114,-146.5 120,-146.5 126,-152.5 126,-158.5 126,-158.5 126,-170.5 126,-170.5 126,-176.5 120,-182.5 114,-182.5 114,-182.5 84,-182.5 84,-182.5 78,-182.5 72,-176.5 72,-170.5 72,-170.5 72,-158.5 72,-158.5 72,-152.5 78,-146.5 84,-146.5"/>
<text text-anchor="middle" x="99" y="-160.8" font-family="Times,serif" font-size="14.00">1.00</text>
</g>
<!-- node5&#45;&gt;node7 -->
<g id="edge6" class="edge">
<title>node5&#45;&gt;node7</title>
<path fill="none" stroke="black" d="M99,-219.31C99,-211.29 99,-201.55 99,-192.57"/>
<polygon fill="black" stroke="black" points="102.5,-192.53 99,-182.53 95.5,-192.53 102.5,-192.53"/>
</g>
<!-- node9 -->
<g id="node9" class="node">
<title>node9</title>
<path fill="#9d4cef" stroke="black" d="M156,-146.5C156,-146.5 186,-146.5 186,-146.5 192,-146.5 198,-152.5 198,-158.5 198,-158.5 198,-170.5 198,-170.5 198,-176.5 192,-182.5 186,-182.5 186,-182.5 156,-182.5 156,-182.5 150,-182.5 144,-176.5 144,-170.5 144,-170.5 144,-158.5 144,-158.5 144,-152.5 150,-146.5 156,-146.5"/>
<text text-anchor="middle" x="171" y="-160.8" font-family="Times,serif" font-size="14.00">x</text>
</g>
<!-- node8&#45;&gt;node9 -->
<g id="edge8" class="edge">
<title>node8&#45;&gt;node9</title>
<path fill="none" stroke="black" d="M198.29,-219.31C194.08,-211.03 188.95,-200.91 184.28,-191.69"/>
<polygon fill="black" stroke="black" points="187.28,-189.87 179.63,-182.53 181.04,-193.03 187.28,-189.87"/>
</g>
<!-- node10 -->
<g id="node10" class="node">
<title>node10</title>
<path fill="#9d4cef" stroke="black" d="M228,-146.5C228,-146.5 258,-146.5 258,-146.5 264,-146.5 270,-152.5 270,-158.5 270,-158.5 270,-170.5 270,-170.5 270,-176.5 264,-182.5 258,-182.5 258,-182.5 228,-182.5 228,-182.5 222,-182.5 216,-176.5 216,-170.5 216,-170.5 216,-158.5 216,-158.5 216,-152.5 222,-146.5 228,-146.5"/>
<text text-anchor="middle" x="243" y="-160.8" font-family="Times,serif" font-size="14.00">1.00</text>
</g>
<!-- node8&#45;&gt;node10 -->
<g id="edge9" class="edge">
<title>node8&#45;&gt;node10</title>
<path fill="none" stroke="black" d="M215.71,-219.31C219.92,-211.03 225.05,-200.91 229.72,-191.69"/>
<polygon fill="black" stroke="black" points="232.96,-193.03 234.37,-182.53 226.72,-189.87 232.96,-193.03"/>
</g>
<!-- node12 -->
<g id="node12" class="node">
<title>node12</title>
<path fill="#9d4cef" stroke="black" d="M300,-219.5C300,-219.5 330,-219.5 330,-219.5 336,-219.5 342,-225.5 342,-231.5 342,-231.5 342,-243.5 342,-243.5 342,-249.5 336,-255.5 330,-255.5 330,-255.5 300,-255.5 300,-255.5 294,-255.5 288,-249.5 288,-243.5 288,-243.5 288,-231.5 288,-231.5 288,-225.5 294,-219.5 300,-219.5"/>
<text text-anchor="middle" x="315" y="-233.8" font-family="Times,serif" font-size="14.00">c</text>
</g>
<!-- node11&#45;&gt;node12 -->
<g id="edge11" class="edge">
<title>node11&#45;&gt;node12</title>
<path fill="none" stroke="black" d="M315,-292.31C315,-284.29 315,-274.55 315,-265.57"/>
<polygon fill="black" stroke="black" points="318.5,-265.53 315,-255.53 311.5,-265.53 318.5,-265.53"/>
</g>
<!-- node13 -->
<g id="node13" class="node">
<title>node13</title>
<path fill="#9d4cef" stroke="black" d="M300,-146.5C300,-146.5 330,-146.5 330,-146.5 336,-146.5 342,-152.5 342,-158.5 342,-158.5 342,-170.5 342,-170.5 342,-176.5 336,-182.5 330,-182.5 330,-182.5 300,-182.5 300,-182.5 294,-182.5 288,-176.5 288,-170.5 288,-170.5 288,-158.5 288,-158.5 288,-152.5 294,-146.5 300,-146.5"/>
<text text-anchor="middle" x="315" y="-160.8" font-family="Times,serif" font-size="14.00">x</text>
</g>
<!-- node12&#45;&gt;node13 -->
<g id="edge12" class="edge">
<title>node12&#45;&gt;node13</title>
<path fill="none" stroke="black" d="M315,-219.31C315,-211.29 315,-201.55 315,-192.57"/>
<polygon fill="black" stroke="black" points="318.5,-192.53 315,-182.53 311.5,-192.53 318.5,-192.53"/>
</g>
<!-- node15 -->
<g id="node15" class="node">
<title>node15</title>
<path fill="#9d4cef" stroke="black" d="M480,-292.5C480,-292.5 510,-292.5 510,-292.5 516,-292.5 522,-298.5 522,-304.5 522,-304.5 522,-316.5 522,-316.5 522,-322.5 516,-328.5 510,-328.5 510,-328.5 480,-328.5 480,-328.5 474,-328.5 468,-322.5 468,-316.5 468,-316.5 468,-304.5 468,-304.5 468,-298.5 474,-292.5 480,-292.5"/>
<text text-anchor="middle" x="495" y="-306.8" font-family="Times,serif" font-size="14.00">*</text>
</g>
<!-- node14&#45;&gt;node15 -->
<g id="edge14" class="edge">
<title>node14&#45;&gt;node15</title>
<path fill="none" stroke="black" d="M522.29,-365.31C518.08,-357.03 512.95,-346.91 508.28,-337.69"/>
<polygon fill="black" stroke="black" points="511.28,-335.87 503.63,-328.53 505.04,-339.03 511.28,-335.87"/>
</g>
<!-- node25 -->
<g id="node25" class="node">
<title>node25</title>
<path fill="#9d4cef" stroke="black" d="M552,-292.5C552,-292.5 582,-292.5 582,-292.5 588,-292.5 594,-298.5 594,-304.5 594,-304.5 594,-316.5 594,-316.5 594,-322.5 588,-328.5 582,-328.5 582,-328.5 552,-328.5 552,-328.5 546,-328.5 540,-322.5 540,-316.5 540,-316.5 540,-304.5 540,-304.5 540,-298.5 546,-292.5 552,-292.5"/>
<text text-anchor="middle" x="567" y="-306.8" font-family="Times,serif" font-size="14.00">c</text>
</g>
<!-- node14&#45;&gt;node25 -->
<g id="edge24" class="edge">
<title>node14&#45;&gt;node25</title>
<path fill="none" stroke="black" d="M539.71,-365.31C543.92,-357.03 549.05,-346.91 553.72,-337.69"/>
<polygon fill="black" stroke="black" points="556.96,-339.03 558.37,-328.53 550.72,-335.87 556.96,-339.03"/>
</g>
<!-- node16 -->
<g id="node16" class="node">
<title>node16</title>
<path fill="#9d4cef" stroke="black" d="M444,-219.5C444,-219.5 474,-219.5 474,-219.5 480,-219.5 486,-225.5 486,-231.5 486,-231.5 486,-243.5 486,-243.5 486,-249.5 480,-255.5 474,-255.5 474,-255.5 444,-255.5 444,-255.5 438,-255.5 432,-249.5 432,-243.5 432,-243.5 432,-231.5 432,-231.5 432,-225.5 438,-219.5 444,-219.5"/>
<text text-anchor="middle" x="459" y="-233.8" font-family="Times,serif" font-size="14.00">&#45;</text>
</g>
<!-- node15&#45;&gt;node16 -->
<g id="edge15" class="edge">
<title>node15&#45;&gt;node16</title>
<path fill="none" stroke="black" d="M486.29,-292.31C482.08,-284.03 476.95,-273.91 472.28,-264.69"/>
<polygon fill="black" stroke="black" points="475.28,-262.87 467.63,-255.53 469.04,-266.03 475.28,-262.87"/>
</g>
<!-- node22 -->
<g id="node22" class="node">
<title>node22</title>
<path fill="#9d4cef" stroke="black" d="M516,-219.5C516,-219.5 546,-219.5 546,-219.5 552,-219.5 558,-225.5 558,-231.5 558,-231.5 558,-243.5 558,-243.5 558,-249.5 552,-255.5 546,-255.5 546,-255.5 516,-255.5 516,-255.5 510,-255.5 504,-249.5 504,-243.5 504,-243.5 504,-231.5 504,-231.5 504,-225.5 510,-219.5 516,-219.5"/>
<text text-anchor="middle" x="531" y="-233.8" font-family="Times,serif" font-size="14.00">^</text>
</g>
<!-- node15&#45;&gt;node22 -->
<g id="edge21" class="edge">
<title>node15&#45;&gt;node22</title>
<path fill="none" stroke="black" d="M503.71,-292.31C507.92,-284.03 513.05,-273.91 517.72,-264.69"/>
<polygon fill="black" stroke="black" points="520.96,-266.03 522.37,-255.53 514.72,-262.87 520.96,-266.03"/>
</g>
<!-- node17 -->
<g id="node17" class="node">
<title>node17</title>
<path fill="#9d4cef" stroke="black" d="M372,-146.5C372,-146.5 402,-146.5 402,-146.5 408,-146.5 414,-152.5 414,-158.5 414,-158.5 414,-170.5 414,-170.5 414,-176.5 408,-182.5 402,-182.5 402,-182.5 372,-182.5 372,-182.5 366,-182.5 360,-176.5 360,-170.5 360,-170.5 360,-158.5 360,-158.5 360,-152.5 366,-146.5 372,-146.5"/>
<text text-anchor="middle" x="387" y="-160.8" font-family="Times,serif" font-size="14.00">0.00</text>
</g>
<!-- node16&#45;&gt;node17 -->
<g id="edge16" class="edge">
<title>node16&#45;&gt;node17</title>
<path fill="none" stroke="black" d="M441.57,-219.31C432.55,-210.42 421.39,-199.41 411.51,-189.67"/>
<polygon fill="black" stroke="black" points="413.85,-187.06 404.27,-182.53 408.93,-192.04 413.85,-187.06"/>
</g>
<!-- node18 -->
<g id="node18" class="node">
<title>node18</title>
<path fill="#9d4cef" stroke="black" d="M444,-146.5C444,-146.5 474,-146.5 474,-146.5 480,-146.5 486,-152.5 486,-158.5 486,-158.5 486,-170.5 486,-170.5 486,-176.5 480,-182.5 474,-182.5 474,-182.5 444,-182.5 444,-182.5 438,-182.5 432,-176.5 432,-170.5 432,-170.5 432,-158.5 432,-158.5 432,-152.5 438,-146.5 444,-146.5"/>
<text text-anchor="middle" x="459" y="-160.8" font-family="Times,serif" font-size="14.00">*</text>
</g>
<!-- node16&#45;&gt;node18 -->
<g id="edge17" class="edge">
<title>node16&#45;&gt;node18</title>
<path fill="none" stroke="black" d="M459,-219.31C459,-211.29 459,-201.55 459,-192.57"/>
<polygon fill="black" stroke="black" points="462.5,-192.53 459,-182.53 455.5,-192.53 462.5,-192.53"/>
</g>
<!-- node19 -->
<g id="node19" class="node">
<title>node19</title>
<path fill="#9d4cef" stroke="black" d="M408,-73.5C408,-73.5 438,-73.5 438,-73.5 444,-73.5 450,-79.5 450,-85.5 450,-85.5 450,-97.5 450,-97.5 450,-103.5 444,-109.5 438,-109.5 438,-109.5 408,-109.5 408,-109.5 402,-109.5 396,-103.5 396,-97.5 396,-97.5 396,-85.5 396,-85.5 396,-79.5 402,-73.5 408,-73.5"/>
<text text-anchor="middle" x="423" y="-87.8" font-family="Times,serif" font-size="14.00">s</text>
</g>
<!-- node18&#45;&gt;node19 -->
<g id="edge18" class="edge">
<title>node18&#45;&gt;node19</title>
<path fill="none" stroke="black" d="M450.29,-146.31C446.08,-138.03 440.95,-127.91 436.28,-118.69"/>
<polygon fill="black" stroke="black" points="439.28,-116.87 431.63,-109.53 433.04,-120.03 439.28,-116.87"/>
</g>
<!-- node21 -->
<g id="node21" class="node">
<title>node21</title>
<path fill="#9d4cef" stroke="black" d="M480,-73.5C480,-73.5 510,-73.5 510,-73.5 516,-73.5 522,-79.5 522,-85.5 522,-85.5 522,-97.5 522,-97.5 522,-103.5 516,-109.5 510,-109.5 510,-109.5 480,-109.5 480,-109.5 474,-109.5 468,-103.5 468,-97.5 468,-97.5 468,-85.5 468,-85.5 468,-79.5 474,-73.5 480,-73.5"/>
<text text-anchor="middle" x="495" y="-87.8" font-family="Times,serif" font-size="14.00">1.00</text>
</g>
<!-- node18&#45;&gt;node21 -->
<g id="edge20" class="edge">
<title>node18&#45;&gt;node21</title>
<path fill="none" stroke="black" d="M467.71,-146.31C471.92,-138.03 477.05,-127.91 481.72,-118.69"/>
<polygon fill="black" stroke="black" points="484.96,-120.03 486.37,-109.53 478.72,-116.87 484.96,-120.03"/>
</g>
<!-- node20 -->
<g id="node20" class="node">
<title>node20</title>
<path fill="#9d4cef" stroke="black" d="M408,-0.5C408,-0.5 438,-0.5 438,-0.5 444,-0.5 450,-6.5 450,-12.5 450,-12.5 450,-24.5 450,-24.5 450,-30.5 444,-36.5 438,-36.5 438,-36.5 408,-36.5 408,-36.5 402,-36.5 396,-30.5 396,-24.5 396,-24.5 396,-12.5 396,-12.5 396,-6.5 402,-0.5 408,-0.5"/>
<text text-anchor="middle" x="423" y="-14.8" font-family="Times,serif" font-size="14.00">x</text>
</g>
<!-- node19&#45;&gt;node20 -->
<g id="edge19" class="edge">
<title>node19&#45;&gt;node20</title>
<path fill="none" stroke="black" d="M423,-73.31C423,-65.29 423,-55.55 423,-46.57"/>
<polygon fill="black" stroke="black" points="426.5,-46.53 423,-36.53 419.5,-46.53 426.5,-46.53"/>
</g>
<!-- node23 -->
<g id="node23" class="node">
<title>node23</title>
<path fill="#9d4cef" stroke="black" d="M516,-146.5C516,-146.5 546,-146.5 546,-146.5 552,-146.5 558,-152.5 558,-158.5 558,-158.5 558,-170.5 558,-170.5 558,-176.5 552,-182.5 546,-182.5 546,-182.5 516,-182.5 516,-182.5 510,-182.5 504,-176.5 504,-170.5 504,-170.5 504,-158.5 504,-158.5 504,-152.5 510,-146.5 516,-146.5"/>
<text text-anchor="middle" x="531" y="-160.8" font-family="Times,serif" font-size="14.00">x</text>
</g>
<!-- node22&#45;&gt;node23 -->
<g id="edge22" class="edge">
<title>node22&#45;&gt;node23</title>
<path fill="none" stroke="black" d="M531,-219.31C531,-211.29 531,-201.55 531,-192.57"/>
<polygon fill="black" stroke="black" points="534.5,-192.53 531,-182.53 527.5,-192.53 534.5,-192.53"/>
</g>
<!-- node24 -->
<g id="node24" class="node">
<title>node24</title>
<path fill="#9d4cef" stroke="black" d="M588,-146.5C588,-146.5 618,-146.5 618,-146.5 624,-146.5 630,-152.5 630,-158.5 630,-158.5 630,-170.5 630,-170.5 630,-176.5 624,-182.5 618,-182.5 618,-182.5 588,-182.5 588,-182.5 582,-182.5 576,-176.5 576,-170.5 576,-170.5 576,-158.5 576,-158.5 576,-152.5 582,-146.5 588,-146.5"/>
<text text-anchor="middle" x="603" y="-160.8" font-family="Times,serif" font-size="14.00">2.00</text>
</g>
<!-- node22&#45;&gt;node24 -->
<g id="edge23" class="edge">
<title>node22&#45;&gt;node24</title>
<path fill="none" stroke="black" d="M548.43,-219.31C557.45,-210.42 568.61,-199.41 578.49,-189.67"/>
<polygon fill="black" stroke="black" points="581.07,-192.04 585.73,-182.53 576.15,-187.06 581.07,-192.04"/>
</g>
<!-- node26 -->
<g id="node26" class="node">
<title>node26</title>
<path fill="#9d4cef" stroke="black" d="M588,-219.5C588,-219.5 618,-219.5 618,-219.5 624,-219.5 630,-225.5 630,-231.5 630,-231.5 630,-243.5 630,-243.5 630,-249.5 624,-255.5 618,-255.5 618,-255.5 588,-255.5 588,-255.5 582,-255.5 576,-249.5 576,-243.5 576,-243.5 576,-231.5 576,-231.5 576,-225.5 582,-219.5 588,-219.5"/>
<text text-anchor="middle" x="603" y="-233.8" font-family="Times,serif" font-size="14.00">x</text>
</g>
<!-- node25&#45;&gt;node26 -->
<g id="edge25" class="edge">
<title>node25&#45;&gt;node26</title>
<path fill="none" stroke="black" d="M575.71,-292.31C579.92,-284.03 585.05,-273.91 589.72,-264.69"/>
<polygon fill="black" stroke="black" points="592.96,-266.03 594.37,-255.53 586.72,-262.87 592.96,-266.03"/>
</g>
<!-- node28 -->
<g id="node28" class="node">
<title>node28</title>
<path fill="#9d4cef" stroke="black" d="M624,-365.5C624,-365.5 654,-365.5 654,-365.5 660,-365.5 666,-371.5 666,-377.5 666,-377.5 666,-389.5 666,-389.5 666,-395.5 660,-401.5 654,-401.5 654,-401.5 624,-401.5 624,-401.5 618,-401.5 612,-395.5 612,-389.5 612,-389.5 612,-377.5 612,-377.5 612,-371.5 618,-365.5 624,-365.5"/>
<text text-anchor="middle" x="639" y="-379.8" font-family="Times,serif" font-size="14.00">c</text>
</g>
<!-- node27&#45;&gt;node28 -->
<g id="edge27" class="edge">
<title>node27&#45;&gt;node28</title>
<path fill="none" stroke="black" d="M639,-438.31C639,-430.29 639,-420.55 639,-411.57"/>
<polygon fill="black" stroke="black" points="642.5,-411.53 639,-401.53 635.5,-411.53 642.5,-411.53"/>
</g>
<!-- node30 -->
<g id="node30" class="node">
<title>node30</title>
<path fill="#9d4cef" stroke="black" d="M696,-365.5C696,-365.5 726,-365.5 726,-365.5 732,-365.5 738,-371.5 738,-377.5 738,-377.5 738,-389.5 738,-389.5 738,-395.5 732,-401.5 726,-401.5 726,-401.5 696,-401.5 696,-401.5 690,-401.5 684,-395.5 684,-389.5 684,-389.5 684,-377.5 684,-377.5 684,-371.5 690,-365.5 696,-365.5"/>
<text text-anchor="middle" x="711" y="-379.8" font-family="Times,serif" font-size="14.00">^</text>
</g>
<!-- node27&#45;&gt;node30 -->
<g id="edge29" class="edge">
<title>node27&#45;&gt;node30</title>
<path fill="none" stroke="black" d="M656.43,-438.31C665.45,-429.42 676.61,-418.41 686.49,-408.67"/>
<polygon fill="black" stroke="black" points="689.07,-411.04 693.73,-401.53 684.15,-406.06 689.07,-411.04"/>
</g>
<!-- node29 -->
<g id="node29" class="node">
<title>node29</title>
<path fill="#9d4cef" stroke="black" d="M624,-292.5C624,-292.5 654,-292.5 654,-292.5 660,-292.5 666,-298.5 666,-304.5 666,-304.5 666,-316.5 666,-316.5 666,-322.5 660,-328.5 654,-328.5 654,-328.5 624,-328.5 624,-328.5 618,-328.5 612,-322.5 612,-316.5 612,-316.5 612,-304.5 612,-304.5 612,-298.5 618,-292.5 624,-292.5"/>
<text text-anchor="middle" x="639" y="-306.8" font-family="Times,serif" font-size="14.00">x</text>
</g>
<!-- node28&#45;&gt;node29 -->
<g id="edge28" class="edge">
<title>node28&#45;&gt;node29</title>
<path fill="none" stroke="black" d="M639,-365.31C639,-357.29 639,-347.55 639,-338.57"/>
<polygon fill="black" stroke="black" points="642.5,-338.53 639,-328.53 635.5,-338.53 642.5,-338.53"/>
</g>
<!-- node31 -->
<g id="node31" class="node">
<title>node31</title>
<path fill="#9d4cef" stroke="black" d="M696,-292.5C696,-292.5 726,-292.5 726,-292.5 732,-292.5 738,-298.5 738,-304.5 738,-304.5 738,-316.5 738,-316.5 738,-322.5 732,-328.5 726,-328.5 726,-328.5 696,-328.5 696,-328.5 690,-328.5 684,-322.5 684,-316.5 684,-316.5 684,-304.5 684,-304.5 684,-298.5 690,-292.5 696,-292.5"/>
<text text-anchor="middle" x="711" y="-306.8" font-family="Times,serif" font-size="14.00">x</text>
</g>
<!-- node30&#45;&gt;node31 -->
<g id="edge30" class="edge">
<title>node30&#45;&gt;node31</title>
<path fill="none" stroke="black" d="M711,-365.31C711,-357.29 711,-347.55 711,-338.57"/>
<polygon fill="black" stroke="black" points="714.5,-338.53 711,-328.53 707.5,-338.53 714.5,-338.53"/>
</g>
<!-- node32 -->
<g id="node32" class="node">
<title>node32</title>
<path fill="#9d4cef" stroke="black" d="M768,-292.5C768,-292.5 798,-292.5 798,-292.5 804,-292.5 810,-298.5 810,-304.5 810,-304.5 810,-316.5 810,-316.5 810,-322.5 804,-328.5 798,-328.5 798,-328.5 768,-328.5 768,-328.5 762,-328.5 756,-322.5 756,-316.5 756,-316.5 756,-304.5 756,-304.5 756,-298.5 762,-292.5 768,-292.5"/>
<text text-anchor="middle" x="783" y="-306.8" font-family="Times,serif" font-size="14.00">2.00</text>
</g>
<!-- node30&#45;&gt;node32 -->
<g id="edge31" class="edge">
<title>node30&#45;&gt;node32</title>
<path fill="none" stroke="black" d="M728.43,-365.31C737.45,-356.42 748.61,-345.41 758.49,-335.67"/>
<polygon fill="black" stroke="black" points="761.07,-338.04 765.73,-328.53 756.15,-333.06 761.07,-338.04"/>
</g>
</g>
</svg>
