<?xml version="1.0" encoding="UTF-8" standalone="no"?>
<!DOCTYPE svg PUBLIC "-//W3C//DTD SVG 1.1//EN"
 "http://www.w3.org/Graphics/SVG/1.1/DTD/svg11.dtd">
<!-- Generated by graphviz version 2.43.0 (0)
 -->
<!-- Title: G Pages: 1 -->
<svg width="1536pt" height="975pt"
 viewBox="0.00 0.00 1106.00 702.00" xmlns="http://www.w3.org/2000/svg" xmlns:xlink="http://www.w3.org/1999/xlink">
<g id="graph0" class="graph" transform="scale(0.72 0.72) rotate(0) translate(4 698)">
<title>G</title>
<polygon fill="white" stroke="transparent" points="-4,4 -4,-698 1102,-698 1102,4 -4,4"/>
<!-- node1 -->
<g id="node1" class="node">
<title>node1</title>
<path fill="#9d4cef" stroke="black" d="M444,-657.5C444,-657.5 474,-657.5 474,-657.5 480,-657.5 486,-663.5 486,-669.5 486,-669.5 486,-681.5 486,-681.5 486,-687.5 480,-693.5 474,-693.5 474,-693.5 444,-693.5 444,-693.5 438,-693.5 432,-687.5 432,-681.5 432,-681.5 432,-669.5 432,-669.5 432,-663.5 438,-657.5 444,-657.5"/>
<text text-anchor="middle" x="459" y="-671.8" font-family="Times,serif" font-size="14.00">+</text>
</g>
<!-- node2 -->
<g id="node2" class="node">
<title>node2</title>
<path fill="#9d4cef" stroke="black" d="M336,-584.5C336,-584.5 366,-584.5 366,-584.5 372,-584.5 378,-590.5 378,-596.5 378,-596.5 378,-608.5 378,-608.5 378,-614.5 372,-620.5 366,-620.5 366,-620.5 336,-620.5 336,-620.5 330,-620.5 324,-614.5 324,-608.5 324,-608.5 324,-596.5 324,-596.5 324,-590.5 330,-584.5 336,-584.5"/>
<text text-anchor="middle" x="351" y="-598.8" font-family="Times,serif" font-size="14.00">*</text>
</g>
<!-- node1&#45;&gt;node2 -->
<g id="edge1" class="edge">
<title>node1&#45;&gt;node2</title>
<path fill="none" stroke="black" d="M433.13,-657.49C418.94,-648.17 401.16,-636.47 385.77,-626.36"/>
<polygon fill="black" stroke="black" points="387.31,-623.18 377.03,-620.61 383.47,-629.03 387.31,-623.18"/>
</g>
<!-- node19 -->
<g id="node19" class="node">
<title>node19</title>
<path fill="#9d4cef" stroke="black" d="M498,-584.5C498,-584.5 528,-584.5 528,-584.5 534,-584.5 540,-590.5 540,-596.5 540,-596.5 540,-608.5 540,-608.5 540,-614.5 534,-620.5 528,-620.5 528,-620.5 498,-620.5 498,-620.5 492,-620.5 486,-614.5 486,-608.5 486,-608.5 486,-596.5 486,-596.5 486,-590.5 492,-584.5 498,-584.5"/>
<text text-anchor="middle" x="513" y="-598.8" font-family="Times,serif" font-size="14.00">*</text>
</g>
<!-- node1&#45;&gt;node19 -->
<g id="edge18" class="edge">
<title>node1&#45;&gt;node19</title>
<path fill="none" stroke="black" d="M472.07,-657.31C478.64,-648.68 486.72,-638.06 493.96,-628.53"/>
<polygon fill="black" stroke="black" points="496.78,-630.61 500.05,-620.53 491.21,-626.37 496.78,-630.61"/>
</g>
<!-- node3 -->
<g id="node3" class="node">
<title>node3</title>
<path fill="#9d4cef" stroke="black" d="M192,-511.5C192,-511.5 222,-511.5 222,-511.5 228,-511.5 234,-517.5 234,-523.5 234,-523.5 234,-535.5 234,-535.5 234,-541.5 228,-547.5 222,-547.5 222,-547.5 192,-547.5 192,-547.5 186,-547.5 180,-541.5 180,-535.5 180,-535.5 180,-523.5 180,-523.5 180,-517.5 186,-511.5 192,-511.5"/>
<text text-anchor="middle" x="207" y="-525.8" font-family="Times,serif" font-size="14.00">*</text>
</g>
<!-- node2&#45;&gt;node3 -->
<g id="edge2" class="edge">
<title>node2&#45;&gt;node3</title>
<path fill="none" stroke="black" d="M323.91,-588.15C301.23,-576.96 268.64,-560.89 243.63,-548.56"/>
<polygon fill="black" stroke="black" points="244.97,-545.32 234.45,-544.04 241.87,-551.6 244.97,-545.32"/>
</g>
<!-- node10 -->
<g id="node10" class="node">
<title>node10</title>
<path fill="#9d4cef" stroke="black" d="M336,-511.5C336,-511.5 366,-511.5 366,-511.5 372,-511.5 378,-517.5 378,-523.5 378,-523.5 378,-535.5 378,-535.5 378,-541.5 372,-547.5 366,-547.5 366,-547.5 336,-547.5 336,-547.5 330,-547.5 324,-541.5 324,-535.5 324,-535.5 324,-523.5 324,-523.5 324,-517.5 330,-511.5 336,-511.5"/>
<text text-anchor="middle" x="351" y="-525.8" font-family="Times,serif" font-size="14.00">^</text>
</g>
<!-- node2&#45;&gt;node10 -->
<g id="edge9" class="edge">
<title>node2&#45;&gt;node10</title>
<path fill="none" stroke="black" d="M351,-584.31C351,-576.29 351,-566.55 351,-557.57"/>
<polygon fill="black" stroke="black" points="354.5,-557.53 351,-547.53 347.5,-557.53 354.5,-557.53"/>
</g>
<!-- node4 -->
<g id="node4" class="node">
<title>node4</title>
<path fill="#9d4cef" stroke="black" d="M84,-438.5C84,-438.5 114,-438.5 114,-438.5 120,-438.5 126,-444.5 126,-450.5 126,-450.5 126,-462.5 126,-462.5 126,-468.5 120,-474.5 114,-474.5 114,-474.5 84,-474.5 84,-474.5 78,-474.5 72,-468.5 72,-462.5 72,-462.5 72,-450.5 72,-450.5 72,-444.5 78,-438.5 84,-438.5"/>
<text text-anchor="middle" x="99" y="-452.8" font-family="Times,serif" font-size="14.00">*</text>
</g>
<!-- node3&#45;&gt;node4 -->
<g id="edge3" class="edge">
<title>node3&#45;&gt;node4</title>
<path fill="none" stroke="black" d="M181.13,-511.49C166.94,-502.17 149.16,-490.47 133.77,-480.36"/>
<polygon fill="black" stroke="black" points="135.31,-477.18 125.03,-474.61 131.47,-483.03 135.31,-477.18"/>
</g>
<!-- node7 -->
<g id="node7" class="node">
<title>node7</title>
<path fill="#9d4cef" stroke="black" d="M192,-438.5C192,-438.5 222,-438.5 222,-438.5 228,-438.5 234,-444.5 234,-450.5 234,-450.5 234,-462.5 234,-462.5 234,-468.5 228,-474.5 222,-474.5 222,-474.5 192,-474.5 192,-474.5 186,-474.5 180,-468.5 180,-462.5 180,-462.5 180,-450.5 180,-450.5 180,-444.5 186,-438.5 192,-438.5"/>
<text text-anchor="middle" x="207" y="-452.8" font-family="Times,serif" font-size="14.00">^</text>
</g>
<!-- node3&#45;&gt;node7 -->
<g id="edge6" class="edge">
<title>node3&#45;&gt;node7</title>
<path fill="none" stroke="black" d="M207,-511.31C207,-503.29 207,-493.55 207,-484.57"/>
<polygon fill="black" stroke="black" points="210.5,-484.53 207,-474.53 203.5,-484.53 210.5,-484.53"/>
</g>
<!-- node5 -->
<g id="node5" class="node">
<title>node5</title>
<path fill="#9d4cef" stroke="black" d="M12,-365.5C12,-365.5 42,-365.5 42,-365.5 48,-365.5 54,-371.5 54,-377.5 54,-377.5 54,-389.5 54,-389.5 54,-395.5 48,-401.5 42,-401.5 42,-401.5 12,-401.5 12,-401.5 6,-401.5 0,-395.5 0,-389.5 0,-389.5 0,-377.5 0,-377.5 0,-371.5 6,-365.5 12,-365.5"/>
<text text-anchor="middle" x="27" y="-379.8" font-family="Times,serif" font-size="14.00">2.00</text>
</g>
<!-- node4&#45;&gt;node5 -->
<g id="edge4" class="edge">
<title>node4&#45;&gt;node5</title>
<path fill="none" stroke="black" d="M81.57,-438.31C72.55,-429.42 61.39,-418.41 51.51,-408.67"/>
<polygon fill="black" stroke="black" points="53.85,-406.06 44.27,-401.53 48.93,-411.04 53.85,-406.06"/>
</g>
<!-- node6 -->
<g id="node6" class="node">
<title>node6</title>
<path fill="#9d4cef" stroke="black" d="M84,-365.5C84,-365.5 114,-365.5 114,-365.5 120,-365.5 126,-371.5 126,-377.5 126,-377.5 126,-389.5 126,-389.5 126,-395.5 120,-401.5 114,-401.5 114,-401.5 84,-401.5 84,-401.5 78,-401.5 72,-395.5 72,-389.5 72,-389.5 72,-377.5 72,-377.5 72,-371.5 78,-365.5 84,-365.5"/>
<text text-anchor="middle" x="99" y="-379.8" font-family="Times,serif" font-size="14.00">1.00</text>
</g>
<!-- node4&#45;&gt;node6 -->
<g id="edge5" class="edge">
<title>node4&#45;&gt;node6</title>
<path fill="none" stroke="black" d="M99,-438.31C99,-430.29 99,-420.55 99,-411.57"/>
<polygon fill="black" stroke="black" points="102.5,-411.53 99,-401.53 95.5,-411.53 102.5,-411.53"/>
</g>
<!-- node8 -->
<g id="node8" class="node">
<title>node8</title>
<path fill="#9d4cef" stroke="black" d="M156,-365.5C156,-365.5 186,-365.5 186,-365.5 192,-365.5 198,-371.5 198,-377.5 198,-377.5 198,-389.5 198,-389.5 198,-395.5 192,-401.5 186,-401.5 186,-401.5 156,-401.5 156,-401.5 150,-401.5 144,-395.5 144,-389.5 144,-389.5 144,-377.5 144,-377.5 144,-371.5 150,-365.5 156,-365.5"/>
<text text-anchor="middle" x="171" y="-379.8" font-family="Times,serif" font-size="14.00">x</text>
</g>
<!-- node7&#45;&gt;node8 -->
<g id="edge7" class="edge">
<title>node7&#45;&gt;node8</title>
<path fill="none" stroke="black" d="M198.29,-438.31C194.08,-430.03 188.95,-419.91 184.28,-410.69"/>
<polygon fill="black" stroke="black" points="187.28,-408.87 179.63,-401.53 181.04,-412.03 187.28,-408.87"/>
</g>
<!-- node9 -->
<g id="node9" class="node">
<title>node9</title>
<path fill="#9d4cef" stroke="black" d="M228,-365.5C228,-365.5 258,-365.5 258,-365.5 264,-365.5 270,-371.5 270,-377.5 270,-377.5 270,-389.5 270,-389.5 270,-395.5 264,-401.5 258,-401.5 258,-401.5 228,-401.5 228,-401.5 222,-401.5 216,-395.5 216,-389.5 216,-389.5 216,-377.5 216,-377.5 216,-371.5 222,-365.5 228,-365.5"/>
<text text-anchor="middle" x="243" y="-379.8" font-family="Times,serif" font-size="14.00">1.00</text>
</g>
<!-- node7&#45;&gt;node9 -->
<g id="edge8" class="edge">
<title>node7&#45;&gt;node9</title>
<path fill="none" stroke="black" d="M215.71,-438.31C219.92,-430.03 225.05,-419.91 229.72,-410.69"/>
<polygon fill="black" stroke="black" points="232.96,-412.03 234.37,-401.53 226.72,-408.87 232.96,-412.03"/>
</g>
<!-- node11 -->
<g id="node11" class="node">
<title>node11</title>
<path fill="#9d4cef" stroke="black" d="M300,-438.5C300,-438.5 330,-438.5 330,-438.5 336,-438.5 342,-444.5 342,-450.5 342,-450.5 342,-462.5 342,-462.5 342,-468.5 336,-474.5 330,-474.5 330,-474.5 300,-474.5 300,-474.5 294,-474.5 288,-468.5 288,-462.5 288,-462.5 288,-450.5 288,-450.5 288,-444.5 294,-438.5 300,-438.5"/>
<text text-anchor="middle" x="315" y="-452.8" font-family="Times,serif" font-size="14.00">c</text>
</g>
<!-- node10&#45;&gt;node11 -->
<g id="edge10" class="edge">
<title>node10&#45;&gt;node11</title>
<path fill="none" stroke="black" d="M342.29,-511.31C338.08,-503.03 332.95,-492.91 328.28,-483.69"/>
<polygon fill="black" stroke="black" points="331.28,-481.87 323.63,-474.53 325.04,-485.03 331.28,-481.87"/>
</g>
<!-- node13 -->
<g id="node13" class="node">
<title>node13</title>
<path fill="#9d4cef" stroke="black" d="M372,-438.5C372,-438.5 402,-438.5 402,-438.5 408,-438.5 414,-444.5 414,-450.5 414,-450.5 414,-462.5 414,-462.5 414,-468.5 408,-474.5 402,-474.5 402,-474.5 372,-474.5 372,-474.5 366,-474.5 360,-468.5 360,-462.5 360,-462.5 360,-450.5 360,-450.5 360,-444.5 366,-438.5 372,-438.5"/>
<text text-anchor="middle" x="387" y="-452.8" font-family="Times,serif" font-size="14.00">*</text>
</g>
<!-- node10&#45;&gt;node13 -->
<g id="edge12" class="edge">
<title>node10&#45;&gt;node13</title>
<path fill="none" stroke="black" d="M359.71,-511.31C363.92,-503.03 369.05,-492.91 373.72,-483.69"/>
<polygon fill="black" stroke="black" points="376.96,-485.03 378.37,-474.53 370.72,-481.87 376.96,-485.03"/>
</g>
<!-- node12 -->
<g id="node12" class="node">
<title>node12</title>
<path fill="#9d4cef" stroke="black" d="M300,-365.5C300,-365.5 330,-365.5 330,-365.5 336,-365.5 342,-371.5 342,-377.5 342,-377.5 342,-389.5 342,-389.5 342,-395.5 336,-401.5 330,-401.5 330,-401.5 300,-401.5 300,-401.5 294,-401.5 288,-395.5 288,-389.5 288,-389.5 288,-377.5 288,-377.5 288,-371.5 294,-365.5 300,-365.5"/>
<text text-anchor="middle" x="315" y="-379.8" font-family="Times,serif" font-size="14.00">x</text>
</g>
<!-- node11&#45;&gt;node12 -->
<g id="edge11" class="edge">
<title>node11&#45;&gt;node12</title>
<path fill="none" stroke="black" d="M315,-438.31C315,-430.29 315,-420.55 315,-411.57"/>
<polygon fill="black" stroke="black" points="318.5,-411.53 315,-401.53 311.5,-411.53 318.5,-411.53"/>
</g>
<!-- node14 -->
<g id="node14" class="node">
<title>node14</title>
<path fill="#9d4cef" stroke="black" d="M372,-365.5C372,-365.5 402,-365.5 402,-365.5 408,-365.5 414,-371.5 414,-377.5 414,-377.5 414,-389.5 414,-389.5 414,-395.5 408,-401.5 402,-401.5 402,-401.5 372,-401.5 372,-401.5 366,-401.5 360,-395.5 360,-389.5 360,-389.5 360,-377.5 360,-377.5 360,-371.5 366,-365.5 372,-365.5"/>
<text text-anchor="middle" x="387" y="-379.8" font-family="Times,serif" font-size="14.00">s</text>
</g>
<!-- node13&#45;&gt;node14 -->
<g id="edge13" class="edge">
<title>node13&#45;&gt;node14</title>
<path fill="none" stroke="black" d="M387,-438.31C387,-430.29 387,-420.55 387,-411.57"/>
<polygon fill="black" stroke="black" points="390.5,-411.53 387,-401.53 383.5,-411.53 390.5,-411.53"/>
</g>
<!-- node16 -->
<g id="node16" class="node">
<title>node16</title>
<path fill="#9d4cef" stroke="black" d="M444,-365.5C444,-365.5 474,-365.5 474,-365.5 480,-365.5 486,-371.5 486,-377.5 486,-377.5 486,-389.5 486,-389.5 486,-395.5 480,-401.5 474,-401.5 474,-401.5 444,-401.5 444,-401.5 438,-401.5 432,-395.5 432,-389.5 432,-389.5 432,-377.5 432,-377.5 432,-371.5 438,-365.5 444,-365.5"/>
<text text-anchor="middle" x="459" y="-379.8" font-family="Times,serif" font-size="14.00">^</text>
</g>
<!-- node13&#45;&gt;node16 -->
<g id="edge15" class="edge">
<title>node13&#45;&gt;node16</title>
<path fill="none" stroke="black" d="M404.43,-438.31C413.45,-429.42 424.61,-418.41 434.49,-408.67"/>
<polygon fill="black" stroke="black" points="437.07,-411.04 441.73,-401.53 432.15,-406.06 437.07,-411.04"/>
</g>
<!-- node15 -->
<g id="node15" class="node">
<title>node15</title>
<path fill="#9d4cef" stroke="black" d="M300,-292.5C300,-292.5 330,-292.5 330,-292.5 336,-292.5 342,-298.5 342,-304.5 342,-304.5 342,-316.5 342,-316.5 342,-322.5 336,-328.5 330,-328.5 330,-328.5 300,-328.5 300,-328.5 294,-328.5 288,-322.5 288,-316.5 288,-316.5 288,-304.5 288,-304.5 288,-298.5 294,-292.5 300,-292.5"/>
<text text-anchor="middle" x="315" y="-306.8" font-family="Times,serif" font-size="14.00">x</text>
</g>
<!-- node14&#45;&gt;node15 -->
<g id="edge14" class="edge">
<title>node14&#45;&gt;node15</title>
<path fill="none" stroke="black" d="M369.57,-365.31C360.55,-356.42 349.39,-345.41 339.51,-335.67"/>
<polygon fill="black" stroke="black" points="341.85,-333.06 332.27,-328.53 336.93,-338.04 341.85,-333.06"/>
</g>
<!-- node17 -->
<g id="node17" class="node">
<title>node17</title>
<path fill="#9d4cef" stroke="black" d="M372,-292.5C372,-292.5 402,-292.5 402,-292.5 408,-292.5 414,-298.5 414,-304.5 414,-304.5 414,-316.5 414,-316.5 414,-322.5 408,-328.5 402,-328.5 402,-328.5 372,-328.5 372,-328.5 366,-328.5 360,-322.5 360,-316.5 360,-316.5 360,-304.5 360,-304.5 360,-298.5 366,-292.5 372,-292.5"/>
<text text-anchor="middle" x="387" y="-306.8" font-family="Times,serif" font-size="14.00">x</text>
</g>
<!-- node16&#45;&gt;node17 -->
<g id="edge16" class="edge">
<title>node16&#45;&gt;node17</title>
<path fill="none" stroke="black" d="M441.57,-365.31C432.55,-356.42 421.39,-345.41 411.51,-335.67"/>
<polygon fill="black" stroke="black" points="413.85,-333.06 404.27,-328.53 408.93,-338.04 413.85,-333.06"/>
</g>
<!-- node18 -->
<g id="node18" class="node">
<title>node18</title>
<path fill="#9d4cef" stroke="black" d="M444,-292.5C444,-292.5 474,-292.5 474,-292.5 480,-292.5 486,-298.5 486,-304.5 486,-304.5 486,-316.5 486,-316.5 486,-322.5 480,-328.5 474,-328.5 474,-328.5 444,-328.5 444,-328.5 438,-328.5 432,-322.5 432,-316.5 432,-316.5 432,-304.5 432,-304.5 432,-298.5 438,-292.5 444,-292.5"/>
<text text-anchor="middle" x="459" y="-306.8" font-family="Times,serif" font-size="14.00">3.00</text>
</g>
<!-- node16&#45;&gt;node18 -->
<g id="edge17" class="edge">
<title>node16&#45;&gt;node18</title>
<path fill="none" stroke="black" d="M459,-365.31C459,-357.29 459,-347.55 459,-338.57"/>
<polygon fill="black" stroke="black" points="462.5,-338.53 459,-328.53 455.5,-338.53 462.5,-338.53"/>
</g>
<!-- node20 -->
<g id="node20" class="node">
<title>node20</title>
<path fill="#9d4cef" stroke="black" d="M498,-511.5C498,-511.5 528,-511.5 528,-511.5 534,-511.5 540,-517.5 540,-523.5 540,-523.5 540,-535.5 540,-535.5 540,-541.5 534,-547.5 528,-547.5 528,-547.5 498,-547.5 498,-547.5 492,-547.5 486,-541.5 486,-535.5 486,-535.5 486,-523.5 486,-523.5 486,-517.5 492,-511.5 498,-511.5"/>
<text text-anchor="middle" x="513" y="-525.8" font-family="Times,serif" font-size="14.00">^</text>
</g>
<!-- node19&#45;&gt;node20 -->
<g id="edge19" class="edge">
<title>node19&#45;&gt;node20</title>
<path fill="none" stroke="black" d="M513,-584.31C513,-576.29 513,-566.55 513,-557.57"/>
<polygon fill="black" stroke="black" points="516.5,-557.53 513,-547.53 509.5,-557.53 516.5,-557.53"/>
</g>
<!-- node23 -->
<g id="node23" class="node">
<title>node23</title>
<path fill="#9d4cef" stroke="black" d="M606,-511.5C606,-511.5 636,-511.5 636,-511.5 642,-511.5 648,-517.5 648,-523.5 648,-523.5 648,-535.5 648,-535.5 648,-541.5 642,-547.5 636,-547.5 636,-547.5 606,-547.5 606,-547.5 600,-547.5 594,-541.5 594,-535.5 594,-535.5 594,-523.5 594,-523.5 594,-517.5 600,-511.5 606,-511.5"/>
<text text-anchor="middle" x="621" y="-525.8" font-family="Times,serif" font-size="14.00">*</text>
</g>
<!-- node19&#45;&gt;node23 -->
<g id="edge22" class="edge">
<title>node19&#45;&gt;node23</title>
<path fill="none" stroke="black" d="M538.87,-584.49C553.06,-575.17 570.84,-563.47 586.23,-553.36"/>
<polygon fill="black" stroke="black" points="588.53,-556.03 594.97,-547.61 584.69,-550.18 588.53,-556.03"/>
</g>
<!-- node21 -->
<g id="node21" class="node">
<title>node21</title>
<path fill="#9d4cef" stroke="black" d="M444,-438.5C444,-438.5 474,-438.5 474,-438.5 480,-438.5 486,-444.5 486,-450.5 486,-450.5 486,-462.5 486,-462.5 486,-468.5 480,-474.5 474,-474.5 474,-474.5 444,-474.5 444,-474.5 438,-474.5 432,-468.5 432,-462.5 432,-462.5 432,-450.5 432,-450.5 432,-444.5 438,-438.5 444,-438.5"/>
<text text-anchor="middle" x="459" y="-452.8" font-family="Times,serif" font-size="14.00">x</text>
</g>
<!-- node20&#45;&gt;node21 -->
<g id="edge20" class="edge">
<title>node20&#45;&gt;node21</title>
<path fill="none" stroke="black" d="M499.93,-511.31C493.36,-502.68 485.28,-492.06 478.04,-482.53"/>
<polygon fill="black" stroke="black" points="480.79,-480.37 471.95,-474.53 475.22,-484.61 480.79,-480.37"/>
</g>
<!-- node22 -->
<g id="node22" class="node">
<title>node22</title>
<path fill="#9d4cef" stroke="black" d="M516,-438.5C516,-438.5 546,-438.5 546,-438.5 552,-438.5 558,-444.5 558,-450.5 558,-450.5 558,-462.5 558,-462.5 558,-468.5 552,-474.5 546,-474.5 546,-474.5 516,-474.5 516,-474.5 510,-474.5 504,-468.5 504,-462.5 504,-462.5 504,-450.5 504,-450.5 504,-444.5 510,-438.5 516,-438.5"/>
<text text-anchor="middle" x="531" y="-452.8" font-family="Times,serif" font-size="14.00">2.00</text>
</g>
<!-- node20&#45;&gt;node22 -->
<g id="edge21" class="edge">
<title>node20&#45;&gt;node22</title>
<path fill="none" stroke="black" d="M517.36,-511.31C519.41,-503.2 521.91,-493.34 524.21,-484.28"/>
<polygon fill="black" stroke="black" points="527.62,-485.08 526.68,-474.53 520.83,-483.36 527.62,-485.08"/>
</g>
<!-- node24 -->
<g id="node24" class="node">
<title>node24</title>
<path fill="#9d4cef" stroke="black" d="M606,-438.5C606,-438.5 636,-438.5 636,-438.5 642,-438.5 648,-444.5 648,-450.5 648,-450.5 648,-462.5 648,-462.5 648,-468.5 642,-474.5 636,-474.5 636,-474.5 606,-474.5 606,-474.5 600,-474.5 594,-468.5 594,-462.5 594,-462.5 594,-450.5 594,-450.5 594,-444.5 600,-438.5 606,-438.5"/>
<text text-anchor="middle" x="621" y="-452.8" font-family="Times,serif" font-size="14.00">+</text>
</g>
<!-- node23&#45;&gt;node24 -->
<g id="edge23" class="edge">
<title>node23&#45;&gt;node24</title>
<path fill="none" stroke="black" d="M621,-511.31C621,-503.29 621,-493.55 621,-484.57"/>
<polygon fill="black" stroke="black" points="624.5,-484.53 621,-474.53 617.5,-484.53 624.5,-484.53"/>
</g>
<!-- node64 -->
<g id="node64" class="node">
<title>node64</title>
<path fill="#9d4cef" stroke="black" d="M840,-438.5C840,-438.5 870,-438.5 870,-438.5 876,-438.5 882,-444.5 882,-450.5 882,-450.5 882,-462.5 882,-462.5 882,-468.5 876,-474.5 870,-474.5 870,-474.5 840,-474.5 840,-474.5 834,-474.5 828,-468.5 828,-462.5 828,-462.5 828,-450.5 828,-450.5 828,-444.5 834,-438.5 840,-438.5"/>
<text text-anchor="middle" x="855" y="-452.8" font-family="Times,serif" font-size="14.00">^</text>
</g>
<!-- node23&#45;&gt;node64 -->
<g id="edge63" class="edge">
<title>node23&#45;&gt;node64</title>
<path fill="none" stroke="black" d="M648.3,-520.22C690.31,-507.47 770.87,-483.03 818.05,-468.71"/>
<polygon fill="black" stroke="black" points="819.32,-471.98 827.87,-465.73 817.29,-465.29 819.32,-471.98"/>
</g>
<!-- node25 -->
<g id="node25" class="node">
<title>node25</title>
<path fill="#9d4cef" stroke="black" d="M588,-365.5C588,-365.5 618,-365.5 618,-365.5 624,-365.5 630,-371.5 630,-377.5 630,-377.5 630,-389.5 630,-389.5 630,-395.5 624,-401.5 618,-401.5 618,-401.5 588,-401.5 588,-401.5 582,-401.5 576,-395.5 576,-389.5 576,-389.5 576,-377.5 576,-377.5 576,-371.5 582,-365.5 588,-365.5"/>
<text text-anchor="middle" x="603" y="-379.8" font-family="Times,serif" font-size="14.00">*</text>
</g>
<!-- node24&#45;&gt;node25 -->
<g id="edge24" class="edge">
<title>node24&#45;&gt;node25</title>
<path fill="none" stroke="black" d="M616.64,-438.31C614.59,-430.2 612.09,-420.34 609.79,-411.28"/>
<polygon fill="black" stroke="black" points="613.17,-410.36 607.32,-401.53 606.38,-412.08 613.17,-410.36"/>
</g>
<!-- node48 -->
<g id="node48" class="node">
<title>node48</title>
<path fill="#9d4cef" stroke="black" d="M696,-365.5C696,-365.5 726,-365.5 726,-365.5 732,-365.5 738,-371.5 738,-377.5 738,-377.5 738,-389.5 738,-389.5 738,-395.5 732,-401.5 726,-401.5 726,-401.5 696,-401.5 696,-401.5 690,-401.5 684,-395.5 684,-389.5 684,-389.5 684,-377.5 684,-377.5 684,-371.5 690,-365.5 696,-365.5"/>
<text text-anchor="middle" x="711" y="-379.8" font-family="Times,serif" font-size="14.00">/</text>
</g>
<!-- node24&#45;&gt;node48 -->
<g id="edge47" class="edge">
<title>node24&#45;&gt;node48</title>
<path fill="none" stroke="black" d="M642.79,-438.31C654.39,-429.16 668.84,-417.76 681.44,-407.82"/>
<polygon fill="black" stroke="black" points="683.73,-410.47 689.41,-401.53 679.4,-404.97 683.73,-410.47"/>
</g>
<!-- node26 -->
<g id="node26" class="node">
<title>node26</title>
<path fill="#9d4cef" stroke="black" d="M516,-292.5C516,-292.5 546,-292.5 546,-292.5 552,-292.5 558,-298.5 558,-304.5 558,-304.5 558,-316.5 558,-316.5 558,-322.5 552,-328.5 546,-328.5 546,-328.5 516,-328.5 516,-328.5 510,-328.5 504,-322.5 504,-316.5 504,-316.5 504,-304.5 504,-304.5 504,-298.5 510,-292.5 516,-292.5"/>
<text text-anchor="middle" x="531" y="-306.8" font-family="Times,serif" font-size="14.00">+</text>
</g>
<!-- node25&#45;&gt;node26 -->
<g id="edge25" class="edge">
<title>node25&#45;&gt;node26</title>
<path fill="none" stroke="black" d="M585.57,-365.31C576.55,-356.42 565.39,-345.41 555.51,-335.67"/>
<polygon fill="black" stroke="black" points="557.85,-333.06 548.27,-328.53 552.93,-338.04 557.85,-333.06"/>
</g>
<!-- node45 -->
<g id="node45" class="node">
<title>node45</title>
<path fill="#9d4cef" stroke="black" d="M588,-292.5C588,-292.5 618,-292.5 618,-292.5 624,-292.5 630,-298.5 630,-304.5 630,-304.5 630,-316.5 630,-316.5 630,-322.5 624,-328.5 618,-328.5 618,-328.5 588,-328.5 588,-328.5 582,-328.5 576,-322.5 576,-316.5 576,-316.5 576,-304.5 576,-304.5 576,-298.5 582,-292.5 588,-292.5"/>
<text text-anchor="middle" x="603" y="-306.8" font-family="Times,serif" font-size="14.00">l</text>
</g>
<!-- node25&#45;&gt;node45 -->
<g id="edge44" class="edge">
<title>node25&#45;&gt;node45</title>
<path fill="none" stroke="black" d="M603,-365.31C603,-357.29 603,-347.55 603,-338.57"/>
<polygon fill="black" stroke="black" points="606.5,-338.53 603,-328.53 599.5,-338.53 606.5,-338.53"/>
</g>
<!-- node27 -->
<g id="node27" class="node">
<title>node27</title>
<path fill="#9d4cef" stroke="black" d="M336,-219.5C336,-219.5 366,-219.5 366,-219.5 372,-219.5 378,-225.5 378,-231.5 378,-231.5 378,-243.5 378,-243.5 378,-249.5 372,-255.5 366,-255.5 366,-255.5 336,-255.5 336,-255.5 330,-255.5 324,-249.5 324,-243.5 324,-243.5 324,-231.5 324,-231.5 324,-225.5 330,-219.5 336,-219.5"/>
<text text-anchor="middle" x="351" y="-233.8" font-family="Times,serif" font-size="14.00">*</text>
</g>
<!-- node26&#45;&gt;node27 -->
<g id="edge26" class="edge">
<title>node26&#45;&gt;node27</title>
<path fill="none" stroke="black" d="M503.61,-295.85C500.72,-294.51 497.81,-293.2 495,-292 459.14,-276.66 417.25,-261.39 387.93,-251.11"/>
<polygon fill="black" stroke="black" points="388.71,-247.68 378.11,-247.69 386.4,-254.29 388.71,-247.68"/>
</g>
<!-- node35 -->
<g id="node35" class="node">
<title>node35</title>
<path fill="#9d4cef" stroke="black" d="M516,-219.5C516,-219.5 546,-219.5 546,-219.5 552,-219.5 558,-225.5 558,-231.5 558,-231.5 558,-243.5 558,-243.5 558,-249.5 552,-255.5 546,-255.5 546,-255.5 516,-255.5 516,-255.5 510,-255.5 504,-249.5 504,-243.5 504,-243.5 504,-231.5 504,-231.5 504,-225.5 510,-219.5 516,-219.5"/>
<text text-anchor="middle" x="531" y="-233.8" font-family="Times,serif" font-size="14.00">*</text>
</g>
<!-- node26&#45;&gt;node35 -->
<g id="edge34" class="edge">
<title>node26&#45;&gt;node35</title>
<path fill="none" stroke="black" d="M531,-292.31C531,-284.29 531,-274.55 531,-265.57"/>
<polygon fill="black" stroke="black" points="534.5,-265.53 531,-255.53 527.5,-265.53 534.5,-265.53"/>
</g>
<!-- node28 -->
<g id="node28" class="node">
<title>node28</title>
<path fill="#9d4cef" stroke="black" d="M228,-146.5C228,-146.5 258,-146.5 258,-146.5 264,-146.5 270,-152.5 270,-158.5 270,-158.5 270,-170.5 270,-170.5 270,-176.5 264,-182.5 258,-182.5 258,-182.5 228,-182.5 228,-182.5 222,-182.5 216,-176.5 216,-170.5 216,-170.5 216,-158.5 216,-158.5 216,-152.5 222,-146.5 228,-146.5"/>
<text text-anchor="middle" x="243" y="-160.8" font-family="Times,serif" font-size="14.00">*</text>
</g>
<!-- node27&#45;&gt;node28 -->
<g id="edge27" class="edge">
<title>node27&#45;&gt;node28</title>
<path fill="none" stroke="black" d="M325.13,-219.49C310.94,-210.17 293.16,-198.47 277.77,-188.36"/>
<polygon fill="black" stroke="black" points="279.31,-185.18 269.03,-182.61 275.47,-191.03 279.31,-185.18"/>
</g>
<!-- node32 -->
<g id="node32" class="node">
<title>node32</title>
<path fill="#9d4cef" stroke="black" d="M336,-146.5C336,-146.5 366,-146.5 366,-146.5 372,-146.5 378,-152.5 378,-158.5 378,-158.5 378,-170.5 378,-170.5 378,-176.5 372,-182.5 366,-182.5 366,-182.5 336,-182.5 336,-182.5 330,-182.5 324,-176.5 324,-170.5 324,-170.5 324,-158.5 324,-158.5 324,-152.5 330,-146.5 336,-146.5"/>
<text text-anchor="middle" x="351" y="-160.8" font-family="Times,serif" font-size="14.00">^</text>
</g>
<!-- node27&#45;&gt;node32 -->
<g id="edge31" class="edge">
<title>node27&#45;&gt;node32</title>
<path fill="none" stroke="black" d="M351,-219.31C351,-211.29 351,-201.55 351,-192.57"/>
<polygon fill="black" stroke="black" points="354.5,-192.53 351,-182.53 347.5,-192.53 354.5,-192.53"/>
</g>
<!-- node29 -->
<g id="node29" class="node">
<title>node29</title>
<path fill="#9d4cef" stroke="black" d="M156,-73.5C156,-73.5 186,-73.5 186,-73.5 192,-73.5 198,-79.5 198,-85.5 198,-85.5 198,-97.5 198,-97.5 198,-103.5 192,-109.5 186,-109.5 186,-109.5 156,-109.5 156,-109.5 150,-109.5 144,-103.5 144,-97.5 144,-97.5 144,-85.5 144,-85.5 144,-79.5 150,-73.5 156,-73.5"/>
<text text-anchor="middle" x="171" y="-87.8" font-family="Times,serif" font-size="14.00">c</text>
</g>
<!-- node28&#45;&gt;node29 -->
<g id="edge28" class="edge">
<title>node28&#45;&gt;node29</title>
<path fill="none" stroke="black" d="M225.57,-146.31C216.55,-137.42 205.39,-126.41 195.51,-116.67"/>
<polygon fill="black" stroke="black" points="197.85,-114.06 188.27,-109.53 192.93,-119.04 197.85,-114.06"/>
</g>
<!-- node31 -->
<g id="node31" class="node">
<title>node31</title>
<path fill="#9d4cef" stroke="black" d="M228,-73.5C228,-73.5 258,-73.5 258,-73.5 264,-73.5 270,-79.5 270,-85.5 270,-85.5 270,-97.5 270,-97.5 270,-103.5 264,-109.5 258,-109.5 258,-109.5 228,-109.5 228,-109.5 222,-109.5 216,-103.5 216,-97.5 216,-97.5 216,-85.5 216,-85.5 216,-79.5 222,-73.5 228,-73.5"/>
<text text-anchor="middle" x="243" y="-87.8" font-family="Times,serif" font-size="14.00">1.00</text>
</g>
<!-- node28&#45;&gt;node31 -->
<g id="edge30" class="edge">
<title>node28&#45;&gt;node31</title>
<path fill="none" stroke="black" d="M243,-146.31C243,-138.29 243,-128.55 243,-119.57"/>
<polygon fill="black" stroke="black" points="246.5,-119.53 243,-109.53 239.5,-119.53 246.5,-119.53"/>
</g>
<!-- node30 -->
<g id="node30" class="node">
<title>node30</title>
<path fill="#9d4cef" stroke="black" d="M156,-0.5C156,-0.5 186,-0.5 186,-0.5 192,-0.5 198,-6.5 198,-12.5 198,-12.5 198,-24.5 198,-24.5 198,-30.5 192,-36.5 186,-36.5 186,-36.5 156,-36.5 156,-36.5 150,-36.5 144,-30.5 144,-24.5 144,-24.5 144,-12.5 144,-12.5 144,-6.5 150,-0.5 156,-0.5"/>
<text text-anchor="middle" x="171" y="-14.8" font-family="Times,serif" font-size="14.00">x</text>
</g>
<!-- node29&#45;&gt;node30 -->
<g id="edge29" class="edge">
<title>node29&#45;&gt;node30</title>
<path fill="none" stroke="black" d="M171,-73.31C171,-65.29 171,-55.55 171,-46.57"/>
<polygon fill="black" stroke="black" points="174.5,-46.53 171,-36.53 167.5,-46.53 174.5,-46.53"/>
</g>
<!-- node33 -->
<g id="node33" class="node">
<title>node33</title>
<path fill="#9d4cef" stroke="black" d="M300,-73.5C300,-73.5 330,-73.5 330,-73.5 336,-73.5 342,-79.5 342,-85.5 342,-85.5 342,-97.5 342,-97.5 342,-103.5 336,-109.5 330,-109.5 330,-109.5 300,-109.5 300,-109.5 294,-109.5 288,-103.5 288,-97.5 288,-97.5 288,-85.5 288,-85.5 288,-79.5 294,-73.5 300,-73.5"/>
<text text-anchor="middle" x="315" y="-87.8" font-family="Times,serif" font-size="14.00">x</text>
</g>
<!-- node32&#45;&gt;node33 -->
<g id="edge32" class="edge">
<title>node32&#45;&gt;node33</title>
<path fill="none" stroke="black" d="M342.29,-146.31C338.08,-138.03 332.95,-127.91 328.28,-118.69"/>
<polygon fill="black" stroke="black" points="331.28,-116.87 323.63,-109.53 325.04,-120.03 331.28,-116.87"/>
</g>
<!-- node34 -->
<g id="node34" class="node">
<title>node34</title>
<path fill="#9d4cef" stroke="black" d="M372,-73.5C372,-73.5 402,-73.5 402,-73.5 408,-73.5 414,-79.5 414,-85.5 414,-85.5 414,-97.5 414,-97.5 414,-103.5 408,-109.5 402,-109.5 402,-109.5 372,-109.5 372,-109.5 366,-109.5 360,-103.5 360,-97.5 360,-97.5 360,-85.5 360,-85.5 360,-79.5 366,-73.5 372,-73.5"/>
<text text-anchor="middle" x="387" y="-87.8" font-family="Times,serif" font-size="14.00">3.00</text>
</g>
<!-- node32&#45;&gt;node34 -->
<g id="edge33" class="edge">
<title>node32&#45;&gt;node34</title>
<path fill="none" stroke="black" d="M359.71,-146.31C363.92,-138.03 369.05,-127.91 373.72,-118.69"/>
<polygon fill="black" stroke="black" points="376.96,-120.03 378.37,-109.53 370.72,-116.87 376.96,-120.03"/>
</g>
<!-- node36 -->
<g id="node36" class="node">
<title>node36</title>
<path fill="#9d4cef" stroke="black" d="M444,-146.5C444,-146.5 474,-146.5 474,-146.5 480,-146.5 486,-152.5 486,-158.5 486,-158.5 486,-170.5 486,-170.5 486,-176.5 480,-182.5 474,-182.5 474,-182.5 444,-182.5 444,-182.5 438,-182.5 432,-176.5 432,-170.5 432,-170.5 432,-158.5 432,-158.5 432,-152.5 438,-146.5 444,-146.5"/>
<text text-anchor="middle" x="459" y="-160.8" font-family="Times,serif" font-size="14.00">s</text>
</g>
<!-- node35&#45;&gt;node36 -->
<g id="edge35" class="edge">
<title>node35&#45;&gt;node36</title>
<path fill="none" stroke="black" d="M513.57,-219.31C504.55,-210.42 493.39,-199.41 483.51,-189.67"/>
<polygon fill="black" stroke="black" points="485.85,-187.06 476.27,-182.53 480.93,-192.04 485.85,-187.06"/>
</g>
<!-- node38 -->
<g id="node38" class="node">
<title>node38</title>
<path fill="#9d4cef" stroke="black" d="M516,-146.5C516,-146.5 546,-146.5 546,-146.5 552,-146.5 558,-152.5 558,-158.5 558,-158.5 558,-170.5 558,-170.5 558,-176.5 552,-182.5 546,-182.5 546,-182.5 516,-182.5 516,-182.5 510,-182.5 504,-176.5 504,-170.5 504,-170.5 504,-158.5 504,-158.5 504,-152.5 510,-146.5 516,-146.5"/>
<text text-anchor="middle" x="531" y="-160.8" font-family="Times,serif" font-size="14.00">*</text>
</g>
<!-- node35&#45;&gt;node38 -->
<g id="edge37" class="edge">
<title>node35&#45;&gt;node38</title>
<path fill="none" stroke="black" d="M531,-219.31C531,-211.29 531,-201.55 531,-192.57"/>
<polygon fill="black" stroke="black" points="534.5,-192.53 531,-182.53 527.5,-192.53 534.5,-192.53"/>
</g>
<!-- node37 -->
<g id="node37" class="node">
<title>node37</title>
<path fill="#9d4cef" stroke="black" d="M444,-73.5C444,-73.5 474,-73.5 474,-73.5 480,-73.5 486,-79.5 486,-85.5 486,-85.5 486,-97.5 486,-97.5 486,-103.5 480,-109.5 474,-109.5 474,-109.5 444,-109.5 444,-109.5 438,-109.5 432,-103.5 432,-97.5 432,-97.5 432,-85.5 432,-85.5 432,-79.5 438,-73.5 444,-73.5"/>
<text text-anchor="middle" x="459" y="-87.8" font-family="Times,serif" font-size="14.00">x</text>
</g>
<!-- node36&#45;&gt;node37 -->
<g id="edge36" class="edge">
<title>node36&#45;&gt;node37</title>
<path fill="none" stroke="black" d="M459,-146.31C459,-138.29 459,-128.55 459,-119.57"/>
<polygon fill="black" stroke="black" points="462.5,-119.53 459,-109.53 455.5,-119.53 462.5,-119.53"/>
</g>
<!-- node39 -->
<g id="node39" class="node">
<title>node39</title>
<path fill="#9d4cef" stroke="black" d="M516,-73.5C516,-73.5 546,-73.5 546,-73.5 552,-73.5 558,-79.5 558,-85.5 558,-85.5 558,-97.5 558,-97.5 558,-103.5 552,-109.5 546,-109.5 546,-109.5 516,-109.5 516,-109.5 510,-109.5 504,-103.5 504,-97.5 504,-97.5 504,-85.5 504,-85.5 504,-79.5 510,-73.5 516,-73.5"/>
<text text-anchor="middle" x="531" y="-87.8" font-family="Times,serif" font-size="14.00">*</text>
</g>
<!-- node38&#45;&gt;node39 -->
<g id="edge38" class="edge">
<title>node38&#45;&gt;node39</title>
<path fill="none" stroke="black" d="M531,-146.31C531,-138.29 531,-128.55 531,-119.57"/>
<polygon fill="black" stroke="black" points="534.5,-119.53 531,-109.53 527.5,-119.53 534.5,-119.53"/>
</g>
<!-- node42 -->
<g id="node42" class="node">
<title>node42</title>
<path fill="#9d4cef" stroke="black" d="M588,-73.5C588,-73.5 618,-73.5 618,-73.5 624,-73.5 630,-79.5 630,-85.5 630,-85.5 630,-97.5 630,-97.5 630,-103.5 624,-109.5 618,-109.5 618,-109.5 588,-109.5 588,-109.5 582,-109.5 576,-103.5 576,-97.5 576,-97.5 576,-85.5 576,-85.5 576,-79.5 582,-73.5 588,-73.5"/>
<text text-anchor="middle" x="603" y="-87.8" font-family="Times,serif" font-size="14.00">^</text>
</g>
<!-- node38&#45;&gt;node42 -->
<g id="edge41" class="edge">
<title>node38&#45;&gt;node42</title>
<path fill="none" stroke="black" d="M548.43,-146.31C557.45,-137.42 568.61,-126.41 578.49,-116.67"/>
<polygon fill="black" stroke="black" points="581.07,-119.04 585.73,-109.53 576.15,-114.06 581.07,-119.04"/>
</g>
<!-- node40 -->
<g id="node40" class="node">
<title>node40</title>
<path fill="#9d4cef" stroke="black" d="M444,-0.5C444,-0.5 474,-0.5 474,-0.5 480,-0.5 486,-6.5 486,-12.5 486,-12.5 486,-24.5 486,-24.5 486,-30.5 480,-36.5 474,-36.5 474,-36.5 444,-36.5 444,-36.5 438,-36.5 432,-30.5 432,-24.5 432,-24.5 432,-12.5 432,-12.5 432,-6.5 438,-0.5 444,-0.5"/>
<text text-anchor="middle" x="459" y="-14.8" font-family="Times,serif" font-size="14.00">3.00</text>
</g>
<!-- node39&#45;&gt;node40 -->
<g id="edge39" class="edge">
<title>node39&#45;&gt;node40</title>
<path fill="none" stroke="black" d="M513.57,-73.31C504.55,-64.42 493.39,-53.41 483.51,-43.67"/>
<polygon fill="black" stroke="black" points="485.85,-41.06 476.27,-36.53 480.93,-46.04 485.85,-41.06"/>
</g>
<!-- node41 -->
<g id="node41" class="node">
<title>node41</title>
<path fill="#9d4cef" stroke="black" d="M516,-0.5C516,-0.5 546,-0.5 546,-0.5 552,-0.5 558,-6.5 558,-12.5 558,-12.5 558,-24.5 558,-24.5 558,-30.5 552,-36.5 546,-36.5 546,-36.5 516,-36.5 516,-36.5 510,-36.5 504,-30.5 504,-24.5 504,-24.5 504,-12.5 504,-12.5 504,-6.5 510,-0.5 516,-0.5"/>
<text text-anchor="middle" x="531" y="-14.8" font-family="Times,serif" font-size="14.00">1.00</text>
</g>
<!-- node39&#45;&gt;node41 -->
<g id="edge40" class="edge">
<title>node39&#45;&gt;node41</title>
<path fill="none" stroke="black" d="M531,-73.31C531,-65.29 531,-55.55 531,-46.57"/>
<polygon fill="black" stroke="black" points="534.5,-46.53 531,-36.53 527.5,-46.53 534.5,-46.53"/>
</g>
<!-- node43 -->
<g id="node43" class="node">
<title>node43</title>
<path fill="#9d4cef" stroke="black" d="M588,-0.5C588,-0.5 618,-0.5 618,-0.5 624,-0.5 630,-6.5 630,-12.5 630,-12.5 630,-24.5 630,-24.5 630,-30.5 624,-36.5 618,-36.5 618,-36.5 588,-36.5 588,-36.5 582,-36.5 576,-30.5 576,-24.5 576,-24.5 576,-12.5 576,-12.5 576,-6.5 582,-0.5 588,-0.5"/>
<text text-anchor="middle" x="603" y="-14.8" font-family="Times,serif" font-size="14.00">x</text>
</g>
<!-- node42&#45;&gt;node43 -->
<g id="edge42" class="edge">
<title>node42&#45;&gt;node43</title>
<path fill="none" stroke="black" d="M603,-73.31C603,-65.29 603,-55.55 603,-46.57"/>
<polygon fill="black" stroke="black" points="606.5,-46.53 603,-36.53 599.5,-46.53 606.5,-46.53"/>
</g>
<!-- node44 -->
<g id="node44" class="node">
<title>node44</title>
<path fill="#9d4cef" stroke="black" d="M660,-0.5C660,-0.5 690,-0.5 690,-0.5 696,-0.5 702,-6.5 702,-12.5 702,-12.5 702,-24.5 702,-24.5 702,-30.5 696,-36.5 690,-36.5 690,-36.5 660,-36.5 660,-36.5 654,-36.5 648,-30.5 648,-24.5 648,-24.5 648,-12.5 648,-12.5 648,-6.5 654,-0.5 660,-0.5"/>
<text text-anchor="middle" x="675" y="-14.8" font-family="Times,serif" font-size="14.00">2.00</text>
</g>
<!-- node42&#45;&gt;node44 -->
<g id="edge43" class="edge">
<title>node42&#45;&gt;node44</title>
<path fill="none" stroke="black" d="M620.43,-73.31C629.45,-64.42 640.61,-53.41 650.49,-43.67"/>
<polygon fill="black" stroke="black" points="653.07,-46.04 657.73,-36.53 648.15,-41.06 653.07,-46.04"/>
</g>
<!-- node46 -->
<g id="node46" class="node">
<title>node46</title>
<path fill="#9d4cef" stroke="black" d="M588,-219.5C588,-219.5 618,-219.5 618,-219.5 624,-219.5 630,-225.5 630,-231.5 630,-231.5 630,-243.5 630,-243.5 630,-249.5 624,-255.5 618,-255.5 618,-255.5 588,-255.5 588,-255.5 582,-255.5 576,-249.5 576,-243.5 576,-243.5 576,-231.5 576,-231.5 576,-225.5 582,-219.5 588,-219.5"/>
<text text-anchor="middle" x="603" y="-233.8" font-family="Times,serif" font-size="14.00">c</text>
</g>
<!-- node45&#45;&gt;node46 -->
<g id="edge45" class="edge">
<title>node45&#45;&gt;node46</title>
<path fill="none" stroke="black" d="M603,-292.31C603,-284.29 603,-274.55 603,-265.57"/>
<polygon fill="black" stroke="black" points="606.5,-265.53 603,-255.53 599.5,-265.53 606.5,-265.53"/>
</g>
<!-- node47 -->
<g id="node47" class="node">
<title>node47</title>
<path fill="#9d4cef" stroke="black" d="M588,-146.5C588,-146.5 618,-146.5 618,-146.5 624,-146.5 630,-152.5 630,-158.5 630,-158.5 630,-170.5 630,-170.5 630,-176.5 624,-182.5 618,-182.5 618,-182.5 588,-182.5 588,-182.5 582,-182.5 576,-176.5 576,-170.5 576,-170.5 576,-158.5 576,-158.5 576,-152.5 582,-146.5 588,-146.5"/>
<text text-anchor="middle" x="603" y="-160.8" font-family="Times,serif" font-size="14.00">x</text>
</g>
<!-- node46&#45;&gt;node47 -->
<g id="edge46" class="edge">
<title>node46&#45;&gt;node47</title>
<path fill="none" stroke="black" d="M603,-219.31C603,-211.29 603,-201.55 603,-192.57"/>
<polygon fill="black" stroke="black" points="606.5,-192.53 603,-182.53 599.5,-192.53 606.5,-192.53"/>
</g>
<!-- node49 -->
<g id="node49" class="node">
<title>node49</title>
<path fill="#9d4cef" stroke="black" d="M696,-292.5C696,-292.5 726,-292.5 726,-292.5 732,-292.5 738,-298.5 738,-304.5 738,-304.5 738,-316.5 738,-316.5 738,-322.5 732,-328.5 726,-328.5 726,-328.5 696,-328.5 696,-328.5 690,-328.5 684,-322.5 684,-316.5 684,-316.5 684,-304.5 684,-304.5 684,-298.5 690,-292.5 696,-292.5"/>
<text text-anchor="middle" x="711" y="-306.8" font-family="Times,serif" font-size="14.00">*</text>
</g>
<!-- node48&#45;&gt;node49 -->
<g id="edge48" class="edge">
<title>node48&#45;&gt;node49</title>
<path fill="none" stroke="black" d="M711,-365.31C711,-357.29 711,-347.55 711,-338.57"/>
<polygon fill="black" stroke="black" points="714.5,-338.53 711,-328.53 707.5,-338.53 714.5,-338.53"/>
</g>
<!-- node62 -->
<g id="node62" class="node">
<title>node62</title>
<path fill="#9d4cef" stroke="black" d="M768,-292.5C768,-292.5 798,-292.5 798,-292.5 804,-292.5 810,-298.5 810,-304.5 810,-304.5 810,-316.5 810,-316.5 810,-322.5 804,-328.5 798,-328.5 798,-328.5 768,-328.5 768,-328.5 762,-328.5 756,-322.5 756,-316.5 756,-316.5 756,-304.5 756,-304.5 756,-298.5 762,-292.5 768,-292.5"/>
<text text-anchor="middle" x="783" y="-306.8" font-family="Times,serif" font-size="14.00">c</text>
</g>
<!-- node48&#45;&gt;node62 -->
<g id="edge61" class="edge">
<title>node48&#45;&gt;node62</title>
<path fill="none" stroke="black" d="M728.43,-365.31C737.45,-356.42 748.61,-345.41 758.49,-335.67"/>
<polygon fill="black" stroke="black" points="761.07,-338.04 765.73,-328.53 756.15,-333.06 761.07,-338.04"/>
</g>
<!-- node50 -->
<g id="node50" class="node">
<title>node50</title>
<path fill="#9d4cef" stroke="black" d="M696,-219.5C696,-219.5 726,-219.5 726,-219.5 732,-219.5 738,-225.5 738,-231.5 738,-231.5 738,-243.5 738,-243.5 738,-249.5 732,-255.5 726,-255.5 726,-255.5 696,-255.5 696,-255.5 690,-255.5 684,-249.5 684,-243.5 684,-243.5 684,-231.5 684,-231.5 684,-225.5 690,-219.5 696,-219.5"/>
<text text-anchor="middle" x="711" y="-233.8" font-family="Times,serif" font-size="14.00">&#45;</text>
</g>
<!-- node49&#45;&gt;node50 -->
<g id="edge49" class="edge">
<title>node49&#45;&gt;node50</title>
<path fill="none" stroke="black" d="M711,-292.31C711,-284.29 711,-274.55 711,-265.57"/>
<polygon fill="black" stroke="black" points="714.5,-265.53 711,-255.53 707.5,-265.53 714.5,-265.53"/>
</g>
<!-- node56 -->
<g id="node56" class="node">
<title>node56</title>
<path fill="#9d4cef" stroke="black" d="M768,-219.5C768,-219.5 798,-219.5 798,-219.5 804,-219.5 810,-225.5 810,-231.5 810,-231.5 810,-243.5 810,-243.5 810,-249.5 804,-255.5 798,-255.5 798,-255.5 768,-255.5 768,-255.5 762,-255.5 756,-249.5 756,-243.5 756,-243.5 756,-231.5 756,-231.5 756,-225.5 762,-219.5 768,-219.5"/>
<text text-anchor="middle" x="783" y="-233.8" font-family="Times,serif" font-size="14.00">*</text>
</g>
<!-- node49&#45;&gt;node56 -->
<g id="edge55" class="edge">
<title>node49&#45;&gt;node56</title>
<path fill="none" stroke="black" d="M728.43,-292.31C737.45,-283.42 748.61,-272.41 758.49,-262.67"/>
<polygon fill="black" stroke="black" points="761.07,-265.04 765.73,-255.53 756.15,-260.06 761.07,-265.04"/>
</g>
<!-- node51 -->
<g id="node51" class="node">
<title>node51</title>
<path fill="#9d4cef" stroke="black" d="M660,-146.5C660,-146.5 690,-146.5 690,-146.5 696,-146.5 702,-152.5 702,-158.5 702,-158.5 702,-170.5 702,-170.5 702,-176.5 696,-182.5 690,-182.5 690,-182.5 660,-182.5 660,-182.5 654,-182.5 648,-176.5 648,-170.5 648,-170.5 648,-158.5 648,-158.5 648,-152.5 654,-146.5 660,-146.5"/>
<text text-anchor="middle" x="675" y="-160.8" font-family="Times,serif" font-size="14.00">0.00</text>
</g>
<!-- node50&#45;&gt;node51 -->
<g id="edge50" class="edge">
<title>node50&#45;&gt;node51</title>
<path fill="none" stroke="black" d="M702.29,-219.31C698.08,-211.03 692.95,-200.91 688.28,-191.69"/>
<polygon fill="black" stroke="black" points="691.28,-189.87 683.63,-182.53 685.04,-193.03 691.28,-189.87"/>
</g>
<!-- node52 -->
<g id="node52" class="node">
<title>node52</title>
<path fill="#9d4cef" stroke="black" d="M732,-146.5C732,-146.5 762,-146.5 762,-146.5 768,-146.5 774,-152.5 774,-158.5 774,-158.5 774,-170.5 774,-170.5 774,-176.5 768,-182.5 762,-182.5 762,-182.5 732,-182.5 732,-182.5 726,-182.5 720,-176.5 720,-170.5 720,-170.5 720,-158.5 720,-158.5 720,-152.5 726,-146.5 732,-146.5"/>
<text text-anchor="middle" x="747" y="-160.8" font-family="Times,serif" font-size="14.00">*</text>
</g>
<!-- node50&#45;&gt;node52 -->
<g id="edge51" class="edge">
<title>node50&#45;&gt;node52</title>
<path fill="none" stroke="black" d="M719.71,-219.31C723.92,-211.03 729.05,-200.91 733.72,-191.69"/>
<polygon fill="black" stroke="black" points="736.96,-193.03 738.37,-182.53 730.72,-189.87 736.96,-193.03"/>
</g>
<!-- node53 -->
<g id="node53" class="node">
<title>node53</title>
<path fill="#9d4cef" stroke="black" d="M660,-73.5C660,-73.5 690,-73.5 690,-73.5 696,-73.5 702,-79.5 702,-85.5 702,-85.5 702,-97.5 702,-97.5 702,-103.5 696,-109.5 690,-109.5 690,-109.5 660,-109.5 660,-109.5 654,-109.5 648,-103.5 648,-97.5 648,-97.5 648,-85.5 648,-85.5 648,-79.5 654,-73.5 660,-73.5"/>
<text text-anchor="middle" x="675" y="-87.8" font-family="Times,serif" font-size="14.00">s</text>
</g>
<!-- node52&#45;&gt;node53 -->
<g id="edge52" class="edge">
<title>node52&#45;&gt;node53</title>
<path fill="none" stroke="black" d="M729.57,-146.31C720.55,-137.42 709.39,-126.41 699.51,-116.67"/>
<polygon fill="black" stroke="black" points="701.85,-114.06 692.27,-109.53 696.93,-119.04 701.85,-114.06"/>
</g>
<!-- node55 -->
<g id="node55" class="node">
<title>node55</title>
<path fill="#9d4cef" stroke="black" d="M732,-73.5C732,-73.5 762,-73.5 762,-73.5 768,-73.5 774,-79.5 774,-85.5 774,-85.5 774,-97.5 774,-97.5 774,-103.5 768,-109.5 762,-109.5 762,-109.5 732,-109.5 732,-109.5 726,-109.5 720,-103.5 720,-97.5 720,-97.5 720,-85.5 720,-85.5 720,-79.5 726,-73.5 732,-73.5"/>
<text text-anchor="middle" x="747" y="-87.8" font-family="Times,serif" font-size="14.00">1.00</text>
</g>
<!-- node52&#45;&gt;node55 -->
<g id="edge54" class="edge">
<title>node52&#45;&gt;node55</title>
<path fill="none" stroke="black" d="M747,-146.31C747,-138.29 747,-128.55 747,-119.57"/>
<polygon fill="black" stroke="black" points="750.5,-119.53 747,-109.53 743.5,-119.53 750.5,-119.53"/>
</g>
<!-- node54 -->
<g id="node54" class="node">
<title>node54</title>
<path fill="#9d4cef" stroke="black" d="M732,-0.5C732,-0.5 762,-0.5 762,-0.5 768,-0.5 774,-6.5 774,-12.5 774,-12.5 774,-24.5 774,-24.5 774,-30.5 768,-36.5 762,-36.5 762,-36.5 732,-36.5 732,-36.5 726,-36.5 720,-30.5 720,-24.5 720,-24.5 720,-12.5 720,-12.5 720,-6.5 726,-0.5 732,-0.5"/>
<text text-anchor="middle" x="747" y="-14.8" font-family="Times,serif" font-size="14.00">x</text>
</g>
<!-- node53&#45;&gt;node54 -->
<g id="edge53" class="edge">
<title>node53&#45;&gt;node54</title>
<path fill="none" stroke="black" d="M692.43,-73.31C701.45,-64.42 712.61,-53.41 722.49,-43.67"/>
<polygon fill="black" stroke="black" points="725.07,-46.04 729.73,-36.53 720.15,-41.06 725.07,-46.04"/>
</g>
<!-- node57 -->
<g id="node57" class="node">
<title>node57</title>
<path fill="#9d4cef" stroke="black" d="M804,-146.5C804,-146.5 834,-146.5 834,-146.5 840,-146.5 846,-152.5 846,-158.5 846,-158.5 846,-170.5 846,-170.5 846,-176.5 840,-182.5 834,-182.5 834,-182.5 804,-182.5 804,-182.5 798,-182.5 792,-176.5 792,-170.5 792,-170.5 792,-158.5 792,-158.5 792,-152.5 798,-146.5 804,-146.5"/>
<text text-anchor="middle" x="819" y="-160.8" font-family="Times,serif" font-size="14.00">s</text>
</g>
<!-- node56&#45;&gt;node57 -->
<g id="edge56" class="edge">
<title>node56&#45;&gt;node57</title>
<path fill="none" stroke="black" d="M791.71,-219.31C795.92,-211.03 801.05,-200.91 805.72,-191.69"/>
<polygon fill="black" stroke="black" points="808.96,-193.03 810.37,-182.53 802.72,-189.87 808.96,-193.03"/>
</g>
<!-- node59 -->
<g id="node59" class="node">
<title>node59</title>
<path fill="#9d4cef" stroke="black" d="M876,-146.5C876,-146.5 906,-146.5 906,-146.5 912,-146.5 918,-152.5 918,-158.5 918,-158.5 918,-170.5 918,-170.5 918,-176.5 912,-182.5 906,-182.5 906,-182.5 876,-182.5 876,-182.5 870,-182.5 864,-176.5 864,-170.5 864,-170.5 864,-158.5 864,-158.5 864,-152.5 870,-146.5 876,-146.5"/>
<text text-anchor="middle" x="891" y="-160.8" font-family="Times,serif" font-size="14.00">^</text>
</g>
<!-- node56&#45;&gt;node59 -->
<g id="edge58" class="edge">
<title>node56&#45;&gt;node59</title>
<path fill="none" stroke="black" d="M808.87,-219.49C823.06,-210.17 840.84,-198.47 856.23,-188.36"/>
<polygon fill="black" stroke="black" points="858.53,-191.03 864.97,-182.61 854.69,-185.18 858.53,-191.03"/>
</g>
<!-- node58 -->
<g id="node58" class="node">
<title>node58</title>
<path fill="#9d4cef" stroke="black" d="M804,-73.5C804,-73.5 834,-73.5 834,-73.5 840,-73.5 846,-79.5 846,-85.5 846,-85.5 846,-97.5 846,-97.5 846,-103.5 840,-109.5 834,-109.5 834,-109.5 804,-109.5 804,-109.5 798,-109.5 792,-103.5 792,-97.5 792,-97.5 792,-85.5 792,-85.5 792,-79.5 798,-73.5 804,-73.5"/>
<text text-anchor="middle" x="819" y="-87.8" font-family="Times,serif" font-size="14.00">x</text>
</g>
<!-- node57&#45;&gt;node58 -->
<g id="edge57" class="edge">
<title>node57&#45;&gt;node58</title>
<path fill="none" stroke="black" d="M819,-146.31C819,-138.29 819,-128.55 819,-119.57"/>
<polygon fill="black" stroke="black" points="822.5,-119.53 819,-109.53 815.5,-119.53 822.5,-119.53"/>
</g>
<!-- node60 -->
<g id="node60" class="node">
<title>node60</title>
<path fill="#9d4cef" stroke="black" d="M876,-73.5C876,-73.5 906,-73.5 906,-73.5 912,-73.5 918,-79.5 918,-85.5 918,-85.5 918,-97.5 918,-97.5 918,-103.5 912,-109.5 906,-109.5 906,-109.5 876,-109.5 876,-109.5 870,-109.5 864,-103.5 864,-97.5 864,-97.5 864,-85.5 864,-85.5 864,-79.5 870,-73.5 876,-73.5"/>
<text text-anchor="middle" x="891" y="-87.8" font-family="Times,serif" font-size="14.00">x</text>
</g>
<!-- node59&#45;&gt;node60 -->
<g id="edge59" class="edge">
<title>node59&#45;&gt;node60</title>
<path fill="none" stroke="black" d="M891,-146.31C891,-138.29 891,-128.55 891,-119.57"/>
<polygon fill="black" stroke="black" points="894.5,-119.53 891,-109.53 887.5,-119.53 894.5,-119.53"/>
</g>
<!-- node61 -->
<g id="node61" class="node">
<title>node61</title>
<path fill="#9d4cef" stroke="black" d="M948,-73.5C948,-73.5 978,-73.5 978,-73.5 984,-73.5 990,-79.5 990,-85.5 990,-85.5 990,-97.5 990,-97.5 990,-103.5 984,-109.5 978,-109.5 978,-109.5 948,-109.5 948,-109.5 942,-109.5 936,-103.5 936,-97.5 936,-97.5 936,-85.5 936,-85.5 936,-79.5 942,-73.5 948,-73.5"/>
<text text-anchor="middle" x="963" y="-87.8" font-family="Times,serif" font-size="14.00">3.00</text>
</g>
<!-- node59&#45;&gt;node61 -->
<g id="edge60" class="edge">
<title>node59&#45;&gt;node61</title>
<path fill="none" stroke="black" d="M908.43,-146.31C917.45,-137.42 928.61,-126.41 938.49,-116.67"/>
<polygon fill="black" stroke="black" points="941.07,-119.04 945.73,-109.53 936.15,-114.06 941.07,-119.04"/>
</g>
<!-- node63 -->
<g id="node63" class="node">
<title>node63</title>
<path fill="#9d4cef" stroke="black" d="M840,-219.5C840,-219.5 870,-219.5 870,-219.5 876,-219.5 882,-225.5 882,-231.5 882,-231.5 882,-243.5 882,-243.5 882,-249.5 876,-255.5 870,-255.5 870,-255.5 840,-255.5 840,-255.5 834,-255.5 828,-249.5 828,-243.5 828,-243.5 828,-231.5 828,-231.5 828,-225.5 834,-219.5 840,-219.5"/>
<text text-anchor="middle" x="855" y="-233.8" font-family="Times,serif" font-size="14.00">x</text>
</g>
<!-- node62&#45;&gt;node63 -->
<g id="edge62" class="edge">
<title>node62&#45;&gt;node63</title>
<path fill="none" stroke="black" d="M800.43,-292.31C809.45,-283.42 820.61,-272.41 830.49,-262.67"/>
<polygon fill="black" stroke="black" points="833.07,-265.04 837.73,-255.53 828.15,-260.06 833.07,-265.04"/>
</g>
<!-- node65 -->
<g id="node65" class="node">
<title>node65</title>
<path fill="#9d4cef" stroke="black" d="M840,-365.5C840,-365.5 870,-365.5 870,-365.5 876,-365.5 882,-371.5 882,-377.5 882,-377.5 882,-389.5 882,-389.5 882,-395.5 876,-401.5 870,-401.5 870,-401.5 840,-401.5 840,-401.5 834,-401.5 828,-395.5 828,-389.5 828,-389.5 828,-377.5 828,-377.5 828,-371.5 834,-365.5 840,-365.5"/>
<text text-anchor="middle" x="855" y="-379.8" font-family="Times,serif" font-size="14.00">c</text>
</g>
<!-- node64&#45;&gt;node65 -->
<g id="edge64" class="edge">
<title>node64&#45;&gt;node65</title>
<path fill="none" stroke="black" d="M855,-438.31C855,-430.29 855,-420.55 855,-411.57"/>
<polygon fill="black" stroke="black" points="858.5,-411.53 855,-401.53 851.5,-411.53 858.5,-411.53"/>
</g>
<!-- node67 -->
<g id="node67" class="node">
<title>node67</title>
<path fill="#9d4cef" stroke="black" d="M912,-365.5C912,-365.5 942,-365.5 942,-365.5 948,-365.5 954,-371.5 954,-377.5 954,-377.5 954,-389.5 954,-389.5 954,-395.5 948,-401.5 942,-401.5 942,-401.5 912,-401.5 912,-401.5 906,-401.5 900,-395.5 900,-389.5 900,-389.5 900,-377.5 900,-377.5 900,-371.5 906,-365.5 912,-365.5"/>
<text text-anchor="middle" x="927" y="-379.8" font-family="Times,serif" font-size="14.00">*</text>
</g>
<!-- node64&#45;&gt;node67 -->
<g id="edge66" class="edge">
<title>node64&#45;&gt;node67</title>
<path fill="none" stroke="black" d="M872.43,-438.31C881.45,-429.42 892.61,-418.41 902.49,-408.67"/>
<polygon fill="black" stroke="black" points="905.07,-411.04 909.73,-401.53 900.15,-406.06 905.07,-411.04"/>
</g>
<!-- node66 -->
<g id="node66" class="node">
<title>node66</title>
<path fill="#9d4cef" stroke="black" d="M840,-292.5C840,-292.5 870,-292.5 870,-292.5 876,-292.5 882,-298.5 882,-304.5 882,-304.5 882,-316.5 882,-316.5 882,-322.5 876,-328.5 870,-328.5 870,-328.5 840,-328.5 840,-328.5 834,-328.5 828,-322.5 828,-316.5 828,-316.5 828,-304.5 828,-304.5 828,-298.5 834,-292.5 840,-292.5"/>
<text text-anchor="middle" x="855" y="-306.8" font-family="Times,serif" font-size="14.00">x</text>
</g>
<!-- node65&#45;&gt;node66 -->
<g id="edge65" class="edge">
<title>node65&#45;&gt;node66</title>
<path fill="none" stroke="black" d="M855,-365.31C855,-357.29 855,-347.55 855,-338.57"/>
<polygon fill="black" stroke="black" points="858.5,-338.53 855,-328.53 851.5,-338.53 858.5,-338.53"/>
</g>
<!-- node68 -->
<g id="node68" class="node">
<title>node68</title>
<path fill="#9d4cef" stroke="black" d="M912,-292.5C912,-292.5 942,-292.5 942,-292.5 948,-292.5 954,-298.5 954,-304.5 954,-304.5 954,-316.5 954,-316.5 954,-322.5 948,-328.5 942,-328.5 942,-328.5 912,-328.5 912,-328.5 906,-328.5 900,-322.5 900,-316.5 900,-316.5 900,-304.5 900,-304.5 900,-298.5 906,-292.5 912,-292.5"/>
<text text-anchor="middle" x="927" y="-306.8" font-family="Times,serif" font-size="14.00">s</text>
</g>
<!-- node67&#45;&gt;node68 -->
<g id="edge67" class="edge">
<title>node67&#45;&gt;node68</title>
<path fill="none" stroke="black" d="M927,-365.31C927,-357.29 927,-347.55 927,-338.57"/>
<polygon fill="black" stroke="black" points="930.5,-338.53 927,-328.53 923.5,-338.53 930.5,-338.53"/>
</g>
<!-- node70 -->
<g id="node70" class="node">
<title>node70</title>
<path fill="#9d4cef" stroke="black" d="M984,-292.5C984,-292.5 1014,-292.5 1014,-292.5 1020,-292.5 1026,-298.5 1026,-304.5 1026,-304.5 1026,-316.5 1026,-316.5 1026,-322.5 1020,-328.5 1014,-328.5 1014,-328.5 984,-328.5 984,-328.5 978,-328.5 972,-322.5 972,-316.5 972,-316.5 972,-304.5 972,-304.5 972,-298.5 978,-292.5 984,-292.5"/>
<text text-anchor="middle" x="999" y="-306.8" font-family="Times,serif" font-size="14.00">^</text>
</g>
<!-- node67&#45;&gt;node70 -->
<g id="edge69" class="edge">
<title>node67&#45;&gt;node70</title>
<path fill="none" stroke="black" d="M944.43,-365.31C953.45,-356.42 964.61,-345.41 974.49,-335.67"/>
<polygon fill="black" stroke="black" points="977.07,-338.04 981.73,-328.53 972.15,-333.06 977.07,-338.04"/>
</g>
<!-- node69 -->
<g id="node69" class="node">
<title>node69</title>
<path fill="#9d4cef" stroke="black" d="M912,-219.5C912,-219.5 942,-219.5 942,-219.5 948,-219.5 954,-225.5 954,-231.5 954,-231.5 954,-243.5 954,-243.5 954,-249.5 948,-255.5 942,-255.5 942,-255.5 912,-255.5 912,-255.5 906,-255.5 900,-249.5 900,-243.5 900,-243.5 900,-231.5 900,-231.5 900,-225.5 906,-219.5 912,-219.5"/>
<text text-anchor="middle" x="927" y="-233.8" font-family="Times,serif" font-size="14.00">x</text>
</g>
<!-- node68&#45;&gt;node69 -->
<g id="edge68" class="edge">
<title>node68&#45;&gt;node69</title>
<path fill="none" stroke="black" d="M927,-292.31C927,-284.29 927,-274.55 927,-265.57"/>
<polygon fill="black" stroke="black" points="930.5,-265.53 927,-255.53 923.5,-265.53 930.5,-265.53"/>
</g>
<!-- node71 -->
<g id="node71" class="node">
<title>node71</title>
<path fill="#9d4cef" stroke="black" d="M984,-219.5C984,-219.5 1014,-219.5 1014,-219.5 1020,-219.5 1026,-225.5 1026,-231.5 1026,-231.5 1026,-243.5 1026,-243.5 1026,-249.5 1020,-255.5 1014,-255.5 1014,-255.5 984,-255.5 984,-255.5 978,-255.5 972,-249.5 972,-243.5 972,-243.5 972,-231.5 972,-231.5 972,-225.5 978,-219.5 984,-219.5"/>
<text text-anchor="middle" x="999" y="-233.8" font-family="Times,serif" font-size="14.00">x</text>
</g>
<!-- node70&#45;&gt;node71 -->
<g id="edge70" class="edge">
<title>node70&#45;&gt;node71</title>
<path fill="none" stroke="black" d="M999,-292.31C999,-284.29 999,-274.55 999,-265.57"/>
<polygon fill="black" stroke="black" points="1002.5,-265.53 999,-255.53 995.5,-265.53 1002.5,-265.53"/>
</g>
<!-- node72 -->
<g id="node72" class="node">
<title>node72</title>
<path fill="#9d4cef" stroke="black" d="M1056,-219.5C1056,-219.5 1086,-219.5 1086,-219.5 1092,-219.5 1098,-225.5 1098,-231.5 1098,-231.5 1098,-243.5 1098,-243.5 1098,-249.5 1092,-255.5 1086,-255.5 1086,-255.5 1056,-255.5 1056,-255.5 1050,-255.5 1044,-249.5 1044,-243.5 1044,-243.5 1044,-231.5 1044,-231.5 1044,-225.5 1050,-219.5 1056,-219.5"/>
<text text-anchor="middle" x="1071" y="-233.8" font-family="Times,serif" font-size="14.00">3.00</text>
</g>
<!-- node70&#45;&gt;node72 -->
<g id="edge71" class="edge">
<title>node70&#45;&gt;node72</title>
<path fill="none" stroke="black" d="M1016.43,-292.31C1025.45,-283.42 1036.61,-272.41 1046.49,-262.67"/>
<polygon fill="black" stroke="black" points="1049.07,-265.04 1053.73,-255.53 1044.15,-260.06 1049.07,-265.04"/>
</g>
</g>
</svg>
