<?xml version="1.0" encoding="UTF-8" standalone="no"?>
<!DOCTYPE svg PUBLIC "-//W3C//DTD SVG 1.1//EN"
 "http://www.w3.org/Graphics/SVG/1.1/DTD/svg11.dtd">
<!-- Generated by graphviz version 2.43.0 (0)
 -->
<!-- Title: G Pages: 1 -->
<svg width="886pt" height="671pt"
 viewBox="0.00 0.00 638.00 483.00" xmlns="http://www.w3.org/2000/svg" xmlns:xlink="http://www.w3.org/1999/xlink">
<g id="graph0" class="graph" transform="scale(0.72 0.72) rotate(0) translate(4 479)">
<title>G</title>
<polygon fill="white" stroke="transparent" points="-4,4 -4,-479 634,-479 634,4 -4,4"/>
<!-- node1 -->
<g id="node1" class="node">
<title>node1</title>
<path fill="#9d4cef" stroke="black" d="M408,-438.5C408,-438.5 438,-438.5 438,-438.5 444,-438.5 450,-444.5 450,-450.5 450,-450.5 450,-462.5 450,-462.5 450,-468.5 444,-474.5 438,-474.5 438,-474.5 408,-474.5 408,-474.5 402,-474.5 396,-468.5 396,-462.5 396,-462.5 396,-450.5 396,-450.5 396,-444.5 402,-438.5 408,-438.5"/>
<text text-anchor="middle" x="423" y="-452.8" font-family="Times,serif" font-size="14.00">*</text>
</g>
<!-- node2 -->
<g id="node2" class="node">
<title>node2</title>
<path fill="#9d4cef" stroke="black" d="M336,-365.5C336,-365.5 366,-365.5 366,-365.5 372,-365.5 378,-371.5 378,-377.5 378,-377.5 378,-389.5 378,-389.5 378,-395.5 372,-401.5 366,-401.5 366,-401.5 336,-401.5 336,-401.5 330,-401.5 324,-395.5 324,-389.5 324,-389.5 324,-377.5 324,-377.5 324,-371.5 330,-365.5 336,-365.5"/>
<text text-anchor="middle" x="351" y="-379.8" font-family="Times,serif" font-size="14.00">+</text>
</g>
<!-- node1&#45;&gt;node2 -->
<g id="edge1" class="edge">
<title>node1&#45;&gt;node2</title>
<path fill="none" stroke="black" d="M405.57,-438.31C396.55,-429.42 385.39,-418.41 375.51,-408.67"/>
<polygon fill="black" stroke="black" points="377.85,-406.06 368.27,-401.53 372.93,-411.04 377.85,-406.06"/>
</g>
<!-- node21 -->
<g id="node21" class="node">
<title>node21</title>
<path fill="#9d4cef" stroke="black" d="M444,-365.5C444,-365.5 474,-365.5 474,-365.5 480,-365.5 486,-371.5 486,-377.5 486,-377.5 486,-389.5 486,-389.5 486,-395.5 480,-401.5 474,-401.5 474,-401.5 444,-401.5 444,-401.5 438,-401.5 432,-395.5 432,-389.5 432,-389.5 432,-377.5 432,-377.5 432,-371.5 438,-365.5 444,-365.5"/>
<text text-anchor="middle" x="459" y="-379.8" font-family="Times,serif" font-size="14.00">^</text>
</g>
<!-- node1&#45;&gt;node21 -->
<g id="edge20" class="edge">
<title>node1&#45;&gt;node21</title>
<path fill="none" stroke="black" d="M431.71,-438.31C435.92,-430.03 441.05,-419.91 445.72,-410.69"/>
<polygon fill="black" stroke="black" points="448.96,-412.03 450.37,-401.53 442.72,-408.87 448.96,-412.03"/>
</g>
<!-- node3 -->
<g id="node3" class="node">
<title>node3</title>
<path fill="#9d4cef" stroke="black" d="M156,-292.5C156,-292.5 186,-292.5 186,-292.5 192,-292.5 198,-298.5 198,-304.5 198,-304.5 198,-316.5 198,-316.5 198,-322.5 192,-328.5 186,-328.5 186,-328.5 156,-328.5 156,-328.5 150,-328.5 144,-322.5 144,-316.5 144,-316.5 144,-304.5 144,-304.5 144,-298.5 150,-292.5 156,-292.5"/>
<text text-anchor="middle" x="171" y="-306.8" font-family="Times,serif" font-size="14.00">*</text>
</g>
<!-- node2&#45;&gt;node3 -->
<g id="edge2" class="edge">
<title>node2&#45;&gt;node3</title>
<path fill="none" stroke="black" d="M323.66,-371.72C292.69,-359.5 242.07,-339.53 207.68,-325.97"/>
<polygon fill="black" stroke="black" points="208.59,-322.57 198.01,-322.15 206.02,-329.08 208.59,-322.57"/>
</g>
<!-- node10 -->
<g id="node10" class="node">
<title>node10</title>
<path fill="#9d4cef" stroke="black" d="M336,-292.5C336,-292.5 366,-292.5 366,-292.5 372,-292.5 378,-298.5 378,-304.5 378,-304.5 378,-316.5 378,-316.5 378,-322.5 372,-328.5 366,-328.5 366,-328.5 336,-328.5 336,-328.5 330,-328.5 324,-322.5 324,-316.5 324,-316.5 324,-304.5 324,-304.5 324,-298.5 330,-292.5 336,-292.5"/>
<text text-anchor="middle" x="351" y="-306.8" font-family="Times,serif" font-size="14.00">/</text>
</g>
<!-- node2&#45;&gt;node10 -->
<g id="edge9" class="edge">
<title>node2&#45;&gt;node10</title>
<path fill="none" stroke="black" d="M351,-365.31C351,-357.29 351,-347.55 351,-338.57"/>
<polygon fill="black" stroke="black" points="354.5,-338.53 351,-328.53 347.5,-338.53 354.5,-338.53"/>
</g>
<!-- node4 -->
<g id="node4" class="node">
<title>node4</title>
<path fill="#9d4cef" stroke="black" d="M84,-219.5C84,-219.5 114,-219.5 114,-219.5 120,-219.5 126,-225.5 126,-231.5 126,-231.5 126,-243.5 126,-243.5 126,-249.5 120,-255.5 114,-255.5 114,-255.5 84,-255.5 84,-255.5 78,-255.5 72,-249.5 72,-243.5 72,-243.5 72,-231.5 72,-231.5 72,-225.5 78,-219.5 84,-219.5"/>
<text text-anchor="middle" x="99" y="-233.8" font-family="Times,serif" font-size="14.00">*</text>
</g>
<!-- node3&#45;&gt;node4 -->
<g id="edge3" class="edge">
<title>node3&#45;&gt;node4</title>
<path fill="none" stroke="black" d="M153.57,-292.31C144.55,-283.42 133.39,-272.41 123.51,-262.67"/>
<polygon fill="black" stroke="black" points="125.85,-260.06 116.27,-255.53 120.93,-265.04 125.85,-260.06"/>
</g>
<!-- node7 -->
<g id="node7" class="node">
<title>node7</title>
<path fill="#9d4cef" stroke="black" d="M156,-219.5C156,-219.5 186,-219.5 186,-219.5 192,-219.5 198,-225.5 198,-231.5 198,-231.5 198,-243.5 198,-243.5 198,-249.5 192,-255.5 186,-255.5 186,-255.5 156,-255.5 156,-255.5 150,-255.5 144,-249.5 144,-243.5 144,-243.5 144,-231.5 144,-231.5 144,-225.5 150,-219.5 156,-219.5"/>
<text text-anchor="middle" x="171" y="-233.8" font-family="Times,serif" font-size="14.00">l</text>
</g>
<!-- node3&#45;&gt;node7 -->
<g id="edge6" class="edge">
<title>node3&#45;&gt;node7</title>
<path fill="none" stroke="black" d="M171,-292.31C171,-284.29 171,-274.55 171,-265.57"/>
<polygon fill="black" stroke="black" points="174.5,-265.53 171,-255.53 167.5,-265.53 174.5,-265.53"/>
</g>
<!-- node5 -->
<g id="node5" class="node">
<title>node5</title>
<path fill="#9d4cef" stroke="black" d="M12,-146.5C12,-146.5 42,-146.5 42,-146.5 48,-146.5 54,-152.5 54,-158.5 54,-158.5 54,-170.5 54,-170.5 54,-176.5 48,-182.5 42,-182.5 42,-182.5 12,-182.5 12,-182.5 6,-182.5 0,-176.5 0,-170.5 0,-170.5 0,-158.5 0,-158.5 0,-152.5 6,-146.5 12,-146.5"/>
<text text-anchor="middle" x="27" y="-160.8" font-family="Times,serif" font-size="14.00">2.00</text>
</g>
<!-- node4&#45;&gt;node5 -->
<g id="edge4" class="edge">
<title>node4&#45;&gt;node5</title>
<path fill="none" stroke="black" d="M81.57,-219.31C72.55,-210.42 61.39,-199.41 51.51,-189.67"/>
<polygon fill="black" stroke="black" points="53.85,-187.06 44.27,-182.53 48.93,-192.04 53.85,-187.06"/>
</g>
<!-- node6 -->
<g id="node6" class="node">
<title>node6</title>
<path fill="#9d4cef" stroke="black" d="M84,-146.5C84,-146.5 114,-146.5 114,-146.5 120,-146.5 126,-152.5 126,-158.5 126,-158.5 126,-170.5 126,-170.5 126,-176.5 120,-182.5 114,-182.5 114,-182.5 84,-182.5 84,-182.5 78,-182.5 72,-176.5 72,-170.5 72,-170.5 72,-158.5 72,-158.5 72,-152.5 78,-146.5 84,-146.5"/>
<text text-anchor="middle" x="99" y="-160.8" font-family="Times,serif" font-size="14.00">x</text>
</g>
<!-- node4&#45;&gt;node6 -->
<g id="edge5" class="edge">
<title>node4&#45;&gt;node6</title>
<path fill="none" stroke="black" d="M99,-219.31C99,-211.29 99,-201.55 99,-192.57"/>
<polygon fill="black" stroke="black" points="102.5,-192.53 99,-182.53 95.5,-192.53 102.5,-192.53"/>
</g>
<!-- node8 -->
<g id="node8" class="node">
<title>node8</title>
<path fill="#9d4cef" stroke="black" d="M156,-146.5C156,-146.5 186,-146.5 186,-146.5 192,-146.5 198,-152.5 198,-158.5 198,-158.5 198,-170.5 198,-170.5 198,-176.5 192,-182.5 186,-182.5 186,-182.5 156,-182.5 156,-182.5 150,-182.5 144,-176.5 144,-170.5 144,-170.5 144,-158.5 144,-158.5 144,-152.5 150,-146.5 156,-146.5"/>
<text text-anchor="middle" x="171" y="-160.8" font-family="Times,serif" font-size="14.00">c</text>
</g>
<!-- node7&#45;&gt;node8 -->
<g id="edge7" class="edge">
<title>node7&#45;&gt;node8</title>
<path fill="none" stroke="black" d="M171,-219.31C171,-211.29 171,-201.55 171,-192.57"/>
<polygon fill="black" stroke="black" points="174.5,-192.53 171,-182.53 167.5,-192.53 174.5,-192.53"/>
</g>
<!-- node9 -->
<g id="node9" class="node">
<title>node9</title>
<path fill="#9d4cef" stroke="black" d="M120,-73.5C120,-73.5 150,-73.5 150,-73.5 156,-73.5 162,-79.5 162,-85.5 162,-85.5 162,-97.5 162,-97.5 162,-103.5 156,-109.5 150,-109.5 150,-109.5 120,-109.5 120,-109.5 114,-109.5 108,-103.5 108,-97.5 108,-97.5 108,-85.5 108,-85.5 108,-79.5 114,-73.5 120,-73.5"/>
<text text-anchor="middle" x="135" y="-87.8" font-family="Times,serif" font-size="14.00">x</text>
</g>
<!-- node8&#45;&gt;node9 -->
<g id="edge8" class="edge">
<title>node8&#45;&gt;node9</title>
<path fill="none" stroke="black" d="M162.29,-146.31C158.08,-138.03 152.95,-127.91 148.28,-118.69"/>
<polygon fill="black" stroke="black" points="151.28,-116.87 143.63,-109.53 145.04,-120.03 151.28,-116.87"/>
</g>
<!-- node11 -->
<g id="node11" class="node">
<title>node11</title>
<path fill="#9d4cef" stroke="black" d="M300,-219.5C300,-219.5 330,-219.5 330,-219.5 336,-219.5 342,-225.5 342,-231.5 342,-231.5 342,-243.5 342,-243.5 342,-249.5 336,-255.5 330,-255.5 330,-255.5 300,-255.5 300,-255.5 294,-255.5 288,-249.5 288,-243.5 288,-243.5 288,-231.5 288,-231.5 288,-225.5 294,-219.5 300,-219.5"/>
<text text-anchor="middle" x="315" y="-233.8" font-family="Times,serif" font-size="14.00">*</text>
</g>
<!-- node10&#45;&gt;node11 -->
<g id="edge10" class="edge">
<title>node10&#45;&gt;node11</title>
<path fill="none" stroke="black" d="M342.29,-292.31C338.08,-284.03 332.95,-273.91 328.28,-264.69"/>
<polygon fill="black" stroke="black" points="331.28,-262.87 323.63,-255.53 325.04,-266.03 331.28,-262.87"/>
</g>
<!-- node19 -->
<g id="node19" class="node">
<title>node19</title>
<path fill="#9d4cef" stroke="black" d="M372,-219.5C372,-219.5 402,-219.5 402,-219.5 408,-219.5 414,-225.5 414,-231.5 414,-231.5 414,-243.5 414,-243.5 414,-249.5 408,-255.5 402,-255.5 402,-255.5 372,-255.5 372,-255.5 366,-255.5 360,-249.5 360,-243.5 360,-243.5 360,-231.5 360,-231.5 360,-225.5 366,-219.5 372,-219.5"/>
<text text-anchor="middle" x="387" y="-233.8" font-family="Times,serif" font-size="14.00">c</text>
</g>
<!-- node10&#45;&gt;node19 -->
<g id="edge18" class="edge">
<title>node10&#45;&gt;node19</title>
<path fill="none" stroke="black" d="M359.71,-292.31C363.92,-284.03 369.05,-273.91 373.72,-264.69"/>
<polygon fill="black" stroke="black" points="376.96,-266.03 378.37,-255.53 370.72,-262.87 376.96,-266.03"/>
</g>
<!-- node12 -->
<g id="node12" class="node">
<title>node12</title>
<path fill="#9d4cef" stroke="black" d="M264,-146.5C264,-146.5 294,-146.5 294,-146.5 300,-146.5 306,-152.5 306,-158.5 306,-158.5 306,-170.5 306,-170.5 306,-176.5 300,-182.5 294,-182.5 294,-182.5 264,-182.5 264,-182.5 258,-182.5 252,-176.5 252,-170.5 252,-170.5 252,-158.5 252,-158.5 252,-152.5 258,-146.5 264,-146.5"/>
<text text-anchor="middle" x="279" y="-160.8" font-family="Times,serif" font-size="14.00">&#45;</text>
</g>
<!-- node11&#45;&gt;node12 -->
<g id="edge11" class="edge">
<title>node11&#45;&gt;node12</title>
<path fill="none" stroke="black" d="M306.29,-219.31C302.08,-211.03 296.95,-200.91 292.28,-191.69"/>
<polygon fill="black" stroke="black" points="295.28,-189.87 287.63,-182.53 289.04,-193.03 295.28,-189.87"/>
</g>
<!-- node16 -->
<g id="node16" class="node">
<title>node16</title>
<path fill="#9d4cef" stroke="black" d="M336,-146.5C336,-146.5 366,-146.5 366,-146.5 372,-146.5 378,-152.5 378,-158.5 378,-158.5 378,-170.5 378,-170.5 378,-176.5 372,-182.5 366,-182.5 366,-182.5 336,-182.5 336,-182.5 330,-182.5 324,-176.5 324,-170.5 324,-170.5 324,-158.5 324,-158.5 324,-152.5 330,-146.5 336,-146.5"/>
<text text-anchor="middle" x="351" y="-160.8" font-family="Times,serif" font-size="14.00">^</text>
</g>
<!-- node11&#45;&gt;node16 -->
<g id="edge15" class="edge">
<title>node11&#45;&gt;node16</title>
<path fill="none" stroke="black" d="M323.71,-219.31C327.92,-211.03 333.05,-200.91 337.72,-191.69"/>
<polygon fill="black" stroke="black" points="340.96,-193.03 342.37,-182.53 334.72,-189.87 340.96,-193.03"/>
</g>
<!-- node13 -->
<g id="node13" class="node">
<title>node13</title>
<path fill="#9d4cef" stroke="black" d="M192,-73.5C192,-73.5 222,-73.5 222,-73.5 228,-73.5 234,-79.5 234,-85.5 234,-85.5 234,-97.5 234,-97.5 234,-103.5 228,-109.5 222,-109.5 222,-109.5 192,-109.5 192,-109.5 186,-109.5 180,-103.5 180,-97.5 180,-97.5 180,-85.5 180,-85.5 180,-79.5 186,-73.5 192,-73.5"/>
<text text-anchor="middle" x="207" y="-87.8" font-family="Times,serif" font-size="14.00">0.00</text>
</g>
<!-- node12&#45;&gt;node13 -->
<g id="edge12" class="edge">
<title>node12&#45;&gt;node13</title>
<path fill="none" stroke="black" d="M261.57,-146.31C252.55,-137.42 241.39,-126.41 231.51,-116.67"/>
<polygon fill="black" stroke="black" points="233.85,-114.06 224.27,-109.53 228.93,-119.04 233.85,-114.06"/>
</g>
<!-- node14 -->
<g id="node14" class="node">
<title>node14</title>
<path fill="#9d4cef" stroke="black" d="M264,-73.5C264,-73.5 294,-73.5 294,-73.5 300,-73.5 306,-79.5 306,-85.5 306,-85.5 306,-97.5 306,-97.5 306,-103.5 300,-109.5 294,-109.5 294,-109.5 264,-109.5 264,-109.5 258,-109.5 252,-103.5 252,-97.5 252,-97.5 252,-85.5 252,-85.5 252,-79.5 258,-73.5 264,-73.5"/>
<text text-anchor="middle" x="279" y="-87.8" font-family="Times,serif" font-size="14.00">s</text>
</g>
<!-- node12&#45;&gt;node14 -->
<g id="edge13" class="edge">
<title>node12&#45;&gt;node14</title>
<path fill="none" stroke="black" d="M279,-146.31C279,-138.29 279,-128.55 279,-119.57"/>
<polygon fill="black" stroke="black" points="282.5,-119.53 279,-109.53 275.5,-119.53 282.5,-119.53"/>
</g>
<!-- node15 -->
<g id="node15" class="node">
<title>node15</title>
<path fill="#9d4cef" stroke="black" d="M264,-0.5C264,-0.5 294,-0.5 294,-0.5 300,-0.5 306,-6.5 306,-12.5 306,-12.5 306,-24.5 306,-24.5 306,-30.5 300,-36.5 294,-36.5 294,-36.5 264,-36.5 264,-36.5 258,-36.5 252,-30.5 252,-24.5 252,-24.5 252,-12.5 252,-12.5 252,-6.5 258,-0.5 264,-0.5"/>
<text text-anchor="middle" x="279" y="-14.8" font-family="Times,serif" font-size="14.00">x</text>
</g>
<!-- node14&#45;&gt;node15 -->
<g id="edge14" class="edge">
<title>node14&#45;&gt;node15</title>
<path fill="none" stroke="black" d="M279,-73.31C279,-65.29 279,-55.55 279,-46.57"/>
<polygon fill="black" stroke="black" points="282.5,-46.53 279,-36.53 275.5,-46.53 282.5,-46.53"/>
</g>
<!-- node17 -->
<g id="node17" class="node">
<title>node17</title>
<path fill="#9d4cef" stroke="black" d="M336,-73.5C336,-73.5 366,-73.5 366,-73.5 372,-73.5 378,-79.5 378,-85.5 378,-85.5 378,-97.5 378,-97.5 378,-103.5 372,-109.5 366,-109.5 366,-109.5 336,-109.5 336,-109.5 330,-109.5 324,-103.5 324,-97.5 324,-97.5 324,-85.5 324,-85.5 324,-79.5 330,-73.5 336,-73.5"/>
<text text-anchor="middle" x="351" y="-87.8" font-family="Times,serif" font-size="14.00">x</text>
</g>
<!-- node16&#45;&gt;node17 -->
<g id="edge16" class="edge">
<title>node16&#45;&gt;node17</title>
<path fill="none" stroke="black" d="M351,-146.31C351,-138.29 351,-128.55 351,-119.57"/>
<polygon fill="black" stroke="black" points="354.5,-119.53 351,-109.53 347.5,-119.53 354.5,-119.53"/>
</g>
<!-- node18 -->
<g id="node18" class="node">
<title>node18</title>
<path fill="#9d4cef" stroke="black" d="M408,-73.5C408,-73.5 438,-73.5 438,-73.5 444,-73.5 450,-79.5 450,-85.5 450,-85.5 450,-97.5 450,-97.5 450,-103.5 444,-109.5 438,-109.5 438,-109.5 408,-109.5 408,-109.5 402,-109.5 396,-103.5 396,-97.5 396,-97.5 396,-85.5 396,-85.5 396,-79.5 402,-73.5 408,-73.5"/>
<text text-anchor="middle" x="423" y="-87.8" font-family="Times,serif" font-size="14.00">2.00</text>
</g>
<!-- node16&#45;&gt;node18 -->
<g id="edge17" class="edge">
<title>node16&#45;&gt;node18</title>
<path fill="none" stroke="black" d="M368.43,-146.31C377.45,-137.42 388.61,-126.41 398.49,-116.67"/>
<polygon fill="black" stroke="black" points="401.07,-119.04 405.73,-109.53 396.15,-114.06 401.07,-119.04"/>
</g>
<!-- node20 -->
<g id="node20" class="node">
<title>node20</title>
<path fill="#9d4cef" stroke="black" d="M408,-146.5C408,-146.5 438,-146.5 438,-146.5 444,-146.5 450,-152.5 450,-158.5 450,-158.5 450,-170.5 450,-170.5 450,-176.5 444,-182.5 438,-182.5 438,-182.5 408,-182.5 408,-182.5 402,-182.5 396,-176.5 396,-170.5 396,-170.5 396,-158.5 396,-158.5 396,-152.5 402,-146.5 408,-146.5"/>
<text text-anchor="middle" x="423" y="-160.8" font-family="Times,serif" font-size="14.00">x</text>
</g>
<!-- node19&#45;&gt;node20 -->
<g id="edge19" class="edge">
<title>node19&#45;&gt;node20</title>
<path fill="none" stroke="black" d="M395.71,-219.31C399.92,-211.03 405.05,-200.91 409.72,-191.69"/>
<polygon fill="black" stroke="black" points="412.96,-193.03 414.37,-182.53 406.72,-189.87 412.96,-193.03"/>
</g>
<!-- node22 -->
<g id="node22" class="node">
<title>node22</title>
<path fill="#9d4cef" stroke="black" d="M444,-292.5C444,-292.5 474,-292.5 474,-292.5 480,-292.5 486,-298.5 486,-304.5 486,-304.5 486,-316.5 486,-316.5 486,-322.5 480,-328.5 474,-328.5 474,-328.5 444,-328.5 444,-328.5 438,-328.5 432,-322.5 432,-316.5 432,-316.5 432,-304.5 432,-304.5 432,-298.5 438,-292.5 444,-292.5"/>
<text text-anchor="middle" x="459" y="-306.8" font-family="Times,serif" font-size="14.00">c</text>
</g>
<!-- node21&#45;&gt;node22 -->
<g id="edge21" class="edge">
<title>node21&#45;&gt;node22</title>
<path fill="none" stroke="black" d="M459,-365.31C459,-357.29 459,-347.55 459,-338.57"/>
<polygon fill="black" stroke="black" points="462.5,-338.53 459,-328.53 455.5,-338.53 462.5,-338.53"/>
</g>
<!-- node24 -->
<g id="node24" class="node">
<title>node24</title>
<path fill="#9d4cef" stroke="black" d="M516,-292.5C516,-292.5 546,-292.5 546,-292.5 552,-292.5 558,-298.5 558,-304.5 558,-304.5 558,-316.5 558,-316.5 558,-322.5 552,-328.5 546,-328.5 546,-328.5 516,-328.5 516,-328.5 510,-328.5 504,-322.5 504,-316.5 504,-316.5 504,-304.5 504,-304.5 504,-298.5 510,-292.5 516,-292.5"/>
<text text-anchor="middle" x="531" y="-306.8" font-family="Times,serif" font-size="14.00">^</text>
</g>
<!-- node21&#45;&gt;node24 -->
<g id="edge23" class="edge">
<title>node21&#45;&gt;node24</title>
<path fill="none" stroke="black" d="M476.43,-365.31C485.45,-356.42 496.61,-345.41 506.49,-335.67"/>
<polygon fill="black" stroke="black" points="509.07,-338.04 513.73,-328.53 504.15,-333.06 509.07,-338.04"/>
</g>
<!-- node23 -->
<g id="node23" class="node">
<title>node23</title>
<path fill="#9d4cef" stroke="black" d="M444,-219.5C444,-219.5 474,-219.5 474,-219.5 480,-219.5 486,-225.5 486,-231.5 486,-231.5 486,-243.5 486,-243.5 486,-249.5 480,-255.5 474,-255.5 474,-255.5 444,-255.5 444,-255.5 438,-255.5 432,-249.5 432,-243.5 432,-243.5 432,-231.5 432,-231.5 432,-225.5 438,-219.5 444,-219.5"/>
<text text-anchor="middle" x="459" y="-233.8" font-family="Times,serif" font-size="14.00">x</text>
</g>
<!-- node22&#45;&gt;node23 -->
<g id="edge22" class="edge">
<title>node22&#45;&gt;node23</title>
<path fill="none" stroke="black" d="M459,-292.31C459,-284.29 459,-274.55 459,-265.57"/>
<polygon fill="black" stroke="black" points="462.5,-265.53 459,-255.53 455.5,-265.53 462.5,-265.53"/>
</g>
<!-- node25 -->
<g id="node25" class="node">
<title>node25</title>
<path fill="#9d4cef" stroke="black" d="M516,-219.5C516,-219.5 546,-219.5 546,-219.5 552,-219.5 558,-225.5 558,-231.5 558,-231.5 558,-243.5 558,-243.5 558,-249.5 552,-255.5 546,-255.5 546,-255.5 516,-255.5 516,-255.5 510,-255.5 504,-249.5 504,-243.5 504,-243.5 504,-231.5 504,-231.5 504,-225.5 510,-219.5 516,-219.5"/>
<text text-anchor="middle" x="531" y="-233.8" font-family="Times,serif" font-size="14.00">x</text>
</g>
<!-- node24&#45;&gt;node25 -->
<g id="edge24" class="edge">
<title>node24&#45;&gt;node25</title>
<path fill="none" stroke="black" d="M531,-292.31C531,-284.29 531,-274.55 531,-265.57"/>
<polygon fill="black" stroke="black" points="534.5,-265.53 531,-255.53 527.5,-265.53 534.5,-265.53"/>
</g>
<!-- node26 -->
<g id="node26" class="node">
<title>node26</title>
<path fill="#9d4cef" stroke="black" d="M588,-219.5C588,-219.5 618,-219.5 618,-219.5 624,-219.5 630,-225.5 630,-231.5 630,-231.5 630,-243.5 630,-243.5 630,-249.5 624,-255.5 618,-255.5 618,-255.5 588,-255.5 588,-255.5 582,-255.5 576,-249.5 576,-243.5 576,-243.5 576,-231.5 576,-231.5 576,-225.5 582,-219.5 588,-219.5"/>
<text text-anchor="middle" x="603" y="-233.8" font-family="Times,serif" font-size="14.00">2.00</text>
</g>
<!-- node24&#45;&gt;node26 -->
<g id="edge25" class="edge">
<title>node24&#45;&gt;node26</title>
<path fill="none" stroke="black" d="M548.43,-292.31C557.45,-283.42 568.61,-272.41 578.49,-262.67"/>
<polygon fill="black" stroke="black" points="581.07,-265.04 585.73,-255.53 576.15,-260.06 581.07,-265.04"/>
</g>
</g>
</svg>
