<?xml version="1.0" encoding="UTF-8" standalone="no"?>
<!DOCTYPE svg PUBLIC "-//W3C//DTD SVG 1.1//EN"
 "http://www.w3.org/Graphics/SVG/1.1/DTD/svg11.dtd">
<!-- Generated by graphviz version 2.43.0 (0)
 -->
<!-- Title: G Pages: 1 -->
<svg width="586pt" height="468pt"
 viewBox="0.00 0.00 422.00 337.00" xmlns="http://www.w3.org/2000/svg" xmlns:xlink="http://www.w3.org/1999/xlink">
<g id="graph0" class="graph" transform="scale(0.72 0.72) rotate(0) translate(4 333)">
<title>G</title>
<polygon fill="white" stroke="transparent" points="-4,4 -4,-333 418,-333 418,4 -4,4"/>
<!-- node1 -->
<g id="node1" class="node">
<title>node1</title>
<path fill="#9d4cef" stroke="black" d="M120,-292.5C120,-292.5 150,-292.5 150,-292.5 156,-292.5 162,-298.5 162,-304.5 162,-304.5 162,-316.5 162,-316.5 162,-322.5 156,-328.5 150,-328.5 150,-328.5 120,-328.5 120,-328.5 114,-328.5 108,-322.5 108,-316.5 108,-316.5 108,-304.5 108,-304.5 108,-298.5 114,-292.5 120,-292.5"/>
<text text-anchor="middle" x="135" y="-306.8" font-family="Times,serif" font-size="14.00">&#45;</text>
</g>
<!-- node2 -->
<g id="node2" class="node">
<title>node2</title>
<path fill="#9d4cef" stroke="black" d="M84,-219.5C84,-219.5 114,-219.5 114,-219.5 120,-219.5 126,-225.5 126,-231.5 126,-231.5 126,-243.5 126,-243.5 126,-249.5 120,-255.5 114,-255.5 114,-255.5 84,-255.5 84,-255.5 78,-255.5 72,-249.5 72,-243.5 72,-243.5 72,-231.5 72,-231.5 72,-225.5 78,-219.5 84,-219.5"/>
<text text-anchor="middle" x="99" y="-233.8" font-family="Times,serif" font-size="14.00">0.00</text>
</g>
<!-- node1&#45;&gt;node2 -->
<g id="edge1" class="edge">
<title>node1&#45;&gt;node2</title>
<path fill="none" stroke="black" d="M126.29,-292.31C122.08,-284.03 116.95,-273.91 112.28,-264.69"/>
<polygon fill="black" stroke="black" points="115.28,-262.87 107.63,-255.53 109.04,-266.03 115.28,-262.87"/>
</g>
<!-- node3 -->
<g id="node3" class="node">
<title>node3</title>
<path fill="#9d4cef" stroke="black" d="M156,-219.5C156,-219.5 186,-219.5 186,-219.5 192,-219.5 198,-225.5 198,-231.5 198,-231.5 198,-243.5 198,-243.5 198,-249.5 192,-255.5 186,-255.5 186,-255.5 156,-255.5 156,-255.5 150,-255.5 144,-249.5 144,-243.5 144,-243.5 144,-231.5 144,-231.5 144,-225.5 150,-219.5 156,-219.5"/>
<text text-anchor="middle" x="171" y="-233.8" font-family="Times,serif" font-size="14.00">*</text>
</g>
<!-- node1&#45;&gt;node3 -->
<g id="edge2" class="edge">
<title>node1&#45;&gt;node3</title>
<path fill="none" stroke="black" d="M143.71,-292.31C147.92,-284.03 153.05,-273.91 157.72,-264.69"/>
<polygon fill="black" stroke="black" points="160.96,-266.03 162.37,-255.53 154.72,-262.87 160.96,-266.03"/>
</g>
<!-- node4 -->
<g id="node4" class="node">
<title>node4</title>
<path fill="#9d4cef" stroke="black" d="M120,-146.5C120,-146.5 150,-146.5 150,-146.5 156,-146.5 162,-152.5 162,-158.5 162,-158.5 162,-170.5 162,-170.5 162,-176.5 156,-182.5 150,-182.5 150,-182.5 120,-182.5 120,-182.5 114,-182.5 108,-176.5 108,-170.5 108,-170.5 108,-158.5 108,-158.5 108,-152.5 114,-146.5 120,-146.5"/>
<text text-anchor="middle" x="135" y="-160.8" font-family="Times,serif" font-size="14.00">s</text>
</g>
<!-- node3&#45;&gt;node4 -->
<g id="edge3" class="edge">
<title>node3&#45;&gt;node4</title>
<path fill="none" stroke="black" d="M162.29,-219.31C158.08,-211.03 152.95,-200.91 148.28,-191.69"/>
<polygon fill="black" stroke="black" points="151.28,-189.87 143.63,-182.53 145.04,-193.03 151.28,-189.87"/>
</g>
<!-- node8 -->
<g id="node8" class="node">
<title>node8</title>
<path fill="#9d4cef" stroke="black" d="M192,-146.5C192,-146.5 222,-146.5 222,-146.5 228,-146.5 234,-152.5 234,-158.5 234,-158.5 234,-170.5 234,-170.5 234,-176.5 228,-182.5 222,-182.5 222,-182.5 192,-182.5 192,-182.5 186,-182.5 180,-176.5 180,-170.5 180,-170.5 180,-158.5 180,-158.5 180,-152.5 186,-146.5 192,-146.5"/>
<text text-anchor="middle" x="207" y="-160.8" font-family="Times,serif" font-size="14.00">*</text>
</g>
<!-- node3&#45;&gt;node8 -->
<g id="edge7" class="edge">
<title>node3&#45;&gt;node8</title>
<path fill="none" stroke="black" d="M179.71,-219.31C183.92,-211.03 189.05,-200.91 193.72,-191.69"/>
<polygon fill="black" stroke="black" points="196.96,-193.03 198.37,-182.53 190.72,-189.87 196.96,-193.03"/>
</g>
<!-- node5 -->
<g id="node5" class="node">
<title>node5</title>
<path fill="#9d4cef" stroke="black" d="M84,-73.5C84,-73.5 114,-73.5 114,-73.5 120,-73.5 126,-79.5 126,-85.5 126,-85.5 126,-97.5 126,-97.5 126,-103.5 120,-109.5 114,-109.5 114,-109.5 84,-109.5 84,-109.5 78,-109.5 72,-103.5 72,-97.5 72,-97.5 72,-85.5 72,-85.5 72,-79.5 78,-73.5 84,-73.5"/>
<text text-anchor="middle" x="99" y="-87.8" font-family="Times,serif" font-size="14.00">^</text>
</g>
<!-- node4&#45;&gt;node5 -->
<g id="edge4" class="edge">
<title>node4&#45;&gt;node5</title>
<path fill="none" stroke="black" d="M126.29,-146.31C122.08,-138.03 116.95,-127.91 112.28,-118.69"/>
<polygon fill="black" stroke="black" points="115.28,-116.87 107.63,-109.53 109.04,-120.03 115.28,-116.87"/>
</g>
<!-- node6 -->
<g id="node6" class="node">
<title>node6</title>
<path fill="#9d4cef" stroke="black" d="M12,-0.5C12,-0.5 42,-0.5 42,-0.5 48,-0.5 54,-6.5 54,-12.5 54,-12.5 54,-24.5 54,-24.5 54,-30.5 48,-36.5 42,-36.5 42,-36.5 12,-36.5 12,-36.5 6,-36.5 0,-30.5 0,-24.5 0,-24.5 0,-12.5 0,-12.5 0,-6.5 6,-0.5 12,-0.5"/>
<text text-anchor="middle" x="27" y="-14.8" font-family="Times,serif" font-size="14.00">x</text>
</g>
<!-- node5&#45;&gt;node6 -->
<g id="edge5" class="edge">
<title>node5&#45;&gt;node6</title>
<path fill="none" stroke="black" d="M81.57,-73.31C72.55,-64.42 61.39,-53.41 51.51,-43.67"/>
<polygon fill="black" stroke="black" points="53.85,-41.06 44.27,-36.53 48.93,-46.04 53.85,-41.06"/>
</g>
<!-- node7 -->
<g id="node7" class="node">
<title>node7</title>
<path fill="#9d4cef" stroke="black" d="M84,-0.5C84,-0.5 114,-0.5 114,-0.5 120,-0.5 126,-6.5 126,-12.5 126,-12.5 126,-24.5 126,-24.5 126,-30.5 120,-36.5 114,-36.5 114,-36.5 84,-36.5 84,-36.5 78,-36.5 72,-30.5 72,-24.5 72,-24.5 72,-12.5 72,-12.5 72,-6.5 78,-0.5 84,-0.5"/>
<text text-anchor="middle" x="99" y="-14.8" font-family="Times,serif" font-size="14.00">2.00</text>
</g>
<!-- node5&#45;&gt;node7 -->
<g id="edge6" class="edge">
<title>node5&#45;&gt;node7</title>
<path fill="none" stroke="black" d="M99,-73.31C99,-65.29 99,-55.55 99,-46.57"/>
<polygon fill="black" stroke="black" points="102.5,-46.53 99,-36.53 95.5,-46.53 102.5,-46.53"/>
</g>
<!-- node9 -->
<g id="node9" class="node">
<title>node9</title>
<path fill="#9d4cef" stroke="black" d="M192,-73.5C192,-73.5 222,-73.5 222,-73.5 228,-73.5 234,-79.5 234,-85.5 234,-85.5 234,-97.5 234,-97.5 234,-103.5 228,-109.5 222,-109.5 222,-109.5 192,-109.5 192,-109.5 186,-109.5 180,-103.5 180,-97.5 180,-97.5 180,-85.5 180,-85.5 180,-79.5 186,-73.5 192,-73.5"/>
<text text-anchor="middle" x="207" y="-87.8" font-family="Times,serif" font-size="14.00">*</text>
</g>
<!-- node8&#45;&gt;node9 -->
<g id="edge8" class="edge">
<title>node8&#45;&gt;node9</title>
<path fill="none" stroke="black" d="M207,-146.31C207,-138.29 207,-128.55 207,-119.57"/>
<polygon fill="black" stroke="black" points="210.5,-119.53 207,-109.53 203.5,-119.53 210.5,-119.53"/>
</g>
<!-- node12 -->
<g id="node12" class="node">
<title>node12</title>
<path fill="#9d4cef" stroke="black" d="M300,-73.5C300,-73.5 330,-73.5 330,-73.5 336,-73.5 342,-79.5 342,-85.5 342,-85.5 342,-97.5 342,-97.5 342,-103.5 336,-109.5 330,-109.5 330,-109.5 300,-109.5 300,-109.5 294,-109.5 288,-103.5 288,-97.5 288,-97.5 288,-85.5 288,-85.5 288,-79.5 294,-73.5 300,-73.5"/>
<text text-anchor="middle" x="315" y="-87.8" font-family="Times,serif" font-size="14.00">^</text>
</g>
<!-- node8&#45;&gt;node12 -->
<g id="edge11" class="edge">
<title>node8&#45;&gt;node12</title>
<path fill="none" stroke="black" d="M232.87,-146.49C247.06,-137.17 264.84,-125.47 280.23,-115.36"/>
<polygon fill="black" stroke="black" points="282.53,-118.03 288.97,-109.61 278.69,-112.18 282.53,-118.03"/>
</g>
<!-- node10 -->
<g id="node10" class="node">
<title>node10</title>
<path fill="#9d4cef" stroke="black" d="M156,-0.5C156,-0.5 186,-0.5 186,-0.5 192,-0.5 198,-6.5 198,-12.5 198,-12.5 198,-24.5 198,-24.5 198,-30.5 192,-36.5 186,-36.5 186,-36.5 156,-36.5 156,-36.5 150,-36.5 144,-30.5 144,-24.5 144,-24.5 144,-12.5 144,-12.5 144,-6.5 150,-0.5 156,-0.5"/>
<text text-anchor="middle" x="171" y="-14.8" font-family="Times,serif" font-size="14.00">2.00</text>
</g>
<!-- node9&#45;&gt;node10 -->
<g id="edge9" class="edge">
<title>node9&#45;&gt;node10</title>
<path fill="none" stroke="black" d="M198.29,-73.31C194.08,-65.03 188.95,-54.91 184.28,-45.69"/>
<polygon fill="black" stroke="black" points="187.28,-43.87 179.63,-36.53 181.04,-47.03 187.28,-43.87"/>
</g>
<!-- node11 -->
<g id="node11" class="node">
<title>node11</title>
<path fill="#9d4cef" stroke="black" d="M228,-0.5C228,-0.5 258,-0.5 258,-0.5 264,-0.5 270,-6.5 270,-12.5 270,-12.5 270,-24.5 270,-24.5 270,-30.5 264,-36.5 258,-36.5 258,-36.5 228,-36.5 228,-36.5 222,-36.5 216,-30.5 216,-24.5 216,-24.5 216,-12.5 216,-12.5 216,-6.5 222,-0.5 228,-0.5"/>
<text text-anchor="middle" x="243" y="-14.8" font-family="Times,serif" font-size="14.00">1.00</text>
</g>
<!-- node9&#45;&gt;node11 -->
<g id="edge10" class="edge">
<title>node9&#45;&gt;node11</title>
<path fill="none" stroke="black" d="M215.71,-73.31C219.92,-65.03 225.05,-54.91 229.72,-45.69"/>
<polygon fill="black" stroke="black" points="232.96,-47.03 234.37,-36.53 226.72,-43.87 232.96,-47.03"/>
</g>
<!-- node13 -->
<g id="node13" class="node">
<title>node13</title>
<path fill="#9d4cef" stroke="black" d="M300,-0.5C300,-0.5 330,-0.5 330,-0.5 336,-0.5 342,-6.5 342,-12.5 342,-12.5 342,-24.5 342,-24.5 342,-30.5 336,-36.5 330,-36.5 330,-36.5 300,-36.5 300,-36.5 294,-36.5 288,-30.5 288,-24.5 288,-24.5 288,-12.5 288,-12.5 288,-6.5 294,-0.5 300,-0.5"/>
<text text-anchor="middle" x="315" y="-14.8" font-family="Times,serif" font-size="14.00">x</text>
</g>
<!-- node12&#45;&gt;node13 -->
<g id="edge12" class="edge">
<title>node12&#45;&gt;node13</title>
<path fill="none" stroke="black" d="M315,-73.31C315,-65.29 315,-55.55 315,-46.57"/>
<polygon fill="black" stroke="black" points="318.5,-46.53 315,-36.53 311.5,-46.53 318.5,-46.53"/>
</g>
<!-- node14 -->
<g id="node14" class="node">
<title>node14</title>
<path fill="#9d4cef" stroke="black" d="M372,-0.5C372,-0.5 402,-0.5 402,-0.5 408,-0.5 414,-6.5 414,-12.5 414,-12.5 414,-24.5 414,-24.5 414,-30.5 408,-36.5 402,-36.5 402,-36.5 372,-36.5 372,-36.5 366,-36.5 360,-30.5 360,-24.5 360,-24.5 360,-12.5 360,-12.5 360,-6.5 366,-0.5 372,-0.5"/>
<text text-anchor="middle" x="387" y="-14.8" font-family="Times,serif" font-size="14.00">1.00</text>
</g>
<!-- node12&#45;&gt;node14 -->
<g id="edge13" class="edge">
<title>node12&#45;&gt;node14</title>
<path fill="none" stroke="black" d="M332.43,-73.31C341.45,-64.42 352.61,-53.41 362.49,-43.67"/>
<polygon fill="black" stroke="black" points="365.07,-46.04 369.73,-36.53 360.15,-41.06 365.07,-46.04"/>
</g>
</g>
</svg>
